<svg width="43" height="19" viewBox="0 0 43 19" fill="none" xmlns="http://www.w3.org/2000/svg">
<g id="Group 1000004878">
<path id="Vector" d="M8.19461 2.78262C8.69721 2.16009 9.05621 1.33004 8.94851 0.5C8.19461 0.534585 7.29711 0.984193 6.75861 1.57214C6.29191 2.09092 5.86111 2.95555 5.96881 3.75101C6.83041 3.85476 7.65611 3.40516 8.19461 2.78262ZM8.94851 3.95852C7.72791 3.88935 6.68681 4.61564 6.11241 4.61564C5.53801 4.61564 4.64052 3.9931 3.67122 3.9931C2.41472 4.02769 1.26592 4.68481 0.619725 5.79153C-0.672672 7.9704 0.260726 11.1868 1.55312 12.9507C2.16342 13.8153 2.91732 14.7837 3.88662 14.7491C4.82002 14.7145 5.17902 14.1612 6.29191 14.1612C7.40481 14.1612 7.72791 14.7491 8.73311 14.7145C9.7383 14.6799 10.3845 13.8499 10.9948 12.9507C11.7128 11.9477 12 10.9793 12 10.9447C11.9641 10.9101 10.0255 10.2184 10.0255 8.07416C9.9896 6.27573 11.5333 5.4111 11.6051 5.37651C10.7794 4.13145 9.41521 3.9931 8.94851 3.95852Z" fill="white"/>
<g id="Group">
<path id="Vector_2" d="M18.9692 1.51953C21.5708 1.51953 23.3638 3.3125 23.3638 5.8789C23.3638 8.48046 21.5356 10.2734 18.8989 10.2734H16.0513V14.8086H13.9771V1.51953H18.9692ZM16.0513 8.55077H18.4067C20.1997 8.55077 21.2192 7.5664 21.2192 5.91405C21.2192 4.22656 20.1997 3.27734 18.4067 3.27734H16.0161V8.55077H16.0513ZM23.8911 12.1015C23.8911 10.414 25.1919 9.35936 27.5122 9.21874L30.1841 9.07811V8.33983C30.1841 7.24999 29.4458 6.61718 28.2505 6.61718C27.0903 6.61718 26.3872 7.17968 26.2114 8.02343H24.313C24.4184 6.26562 25.9302 4.96484 28.3208 4.96484C30.6762 4.96484 32.188 6.1953 32.188 8.16405V14.8437H30.2895V13.2617H30.2544C29.6919 14.3515 28.4614 15.0195 27.1958 15.0195C25.227 15.0195 23.8911 13.8242 23.8911 12.1015ZM30.1841 11.2226V10.4492L27.7934 10.5898C26.5981 10.6601 25.9302 11.1875 25.9302 12.0312C25.9302 12.875 26.6333 13.4375 27.688 13.4375C29.0942 13.4375 30.1841 12.4883 30.1841 11.2226ZM33.9458 18.4297V16.8125C34.0864 16.8476 34.438 16.8476 34.5786 16.8476C35.4926 16.8476 35.9848 16.4609 36.3012 15.4765C36.3012 15.4414 36.477 14.8789 36.477 14.8789L32.9614 5.17577H35.1059L37.5669 13.0859H37.602L40.0629 5.17577H42.1723L38.5512 15.4062C37.7075 17.7617 36.7583 18.5 34.7544 18.5C34.6137 18.4648 34.1215 18.4648 33.9458 18.4297Z" fill="white"/>
</g>
</g>
</svg>
