<svg width="82" height="63" viewBox="0 0 82 63" fill="none" xmlns="http://www.w3.org/2000/svg">
<g clip-path="url(#clip0_2013_3)">
<path d="M80.3843 62.1458V62.3077H80.5373C80.566 62.3082 80.5943 62.3011 80.6193 62.2871C80.6292 62.2801 80.6373 62.2708 80.6426 62.26C80.648 62.2492 80.6505 62.2372 80.65 62.2251C80.6505 62.2133 80.648 62.2016 80.6426 62.191C80.6372 62.1805 80.6292 62.1714 80.6193 62.1648C80.5946 62.1501 80.566 62.143 80.5373 62.1442H80.3843V62.1458ZM80.5389 62.0312C80.6044 62.0272 80.6694 62.0458 80.7226 62.0838C80.7439 62.1011 80.7608 62.123 80.772 62.1479C80.7832 62.1728 80.7883 62.2 80.7869 62.2272C80.7879 62.2506 80.7838 62.2739 80.7749 62.2956C80.766 62.3174 80.7525 62.3369 80.7353 62.3531C80.6942 62.3883 80.6427 62.4095 80.5885 62.4134L80.7935 62.6442H80.6357L80.4471 62.415H80.386V62.6442H80.254V62.0316H80.5409L80.5389 62.0312ZM80.4979 62.8555C80.5671 62.8562 80.6357 62.8424 80.6992 62.815C80.7604 62.789 80.816 62.7518 80.8632 62.7053C80.9104 62.6589 80.9482 62.6039 80.9743 62.5434C81.0281 62.415 81.0281 62.2709 80.9743 62.1425C80.9478 62.0822 80.9101 62.0273 80.8632 61.9806C80.816 61.9341 80.7604 61.8969 80.6992 61.8709C80.6354 61.845 80.5669 61.8321 80.4979 61.8328C80.4277 61.8322 80.3581 61.8451 80.2929 61.8709C80.2303 61.8964 80.1734 61.9336 80.1252 61.9806C80.0527 62.054 80.0036 62.147 79.9842 62.2477C79.9647 62.3485 79.9757 62.4527 80.0157 62.5474C80.0407 62.6082 80.0779 62.6633 80.1252 62.7094C80.1734 62.7563 80.2304 62.7935 80.2929 62.8191C80.3577 62.8464 80.4275 62.8602 80.4979 62.8596M80.4979 61.6854C80.6781 61.6852 80.8511 61.755 80.9796 61.8798C81.0416 61.9396 81.091 62.0111 81.1248 62.0899C81.1598 62.1708 81.1779 62.258 81.1779 62.346C81.1779 62.434 81.1598 62.5211 81.1248 62.6021C81.0901 62.6805 81.0409 62.7518 80.9796 62.8122C80.9167 62.8718 80.8436 62.9198 80.7636 62.9539C80.6796 62.9892 80.5892 63.0071 80.4979 63.0066C80.4056 63.0072 80.314 62.9893 80.2289 62.9539C80.148 62.9206 80.0742 62.8725 80.0112 62.8122C79.95 62.7495 79.9014 62.6759 79.8681 62.5952C79.8331 62.5143 79.815 62.4271 79.815 62.3391C79.815 62.2511 79.8331 62.164 79.8681 62.083C79.902 62.0042 79.9513 61.9328 80.0133 61.8729C80.0754 61.8116 80.1494 61.7633 80.231 61.7312C80.3161 61.6958 80.4076 61.6779 80.4999 61.6785M17.7187 59.3197C17.7187 58.1516 18.4936 57.192 19.7601 57.192C20.9704 57.192 21.7871 58.1103 21.7871 59.3197C21.7871 60.5291 20.9704 61.4473 19.7601 61.4473C18.4936 61.4473 17.7187 60.4878 17.7187 59.3197ZM23.1668 59.3197V55.9956H21.7035V56.8053C21.2394 56.2069 20.5354 55.8316 19.578 55.8316C17.692 55.8316 16.2119 57.2924 16.2119 59.3213C16.2119 61.3502 17.6912 62.811 19.578 62.811C20.535 62.811 21.2394 62.4353 21.7035 61.8373V62.6442H23.1651V59.3197H23.1668ZM72.6095 59.3197C72.6095 58.1516 73.3844 57.192 74.6513 57.192C75.8628 57.192 76.6783 58.1103 76.6783 59.3197C76.6783 60.5291 75.8628 61.4473 74.6513 61.4473C73.3848 61.4473 72.6095 60.4878 72.6095 59.3197ZM78.0592 59.3197V53.3274H76.5947V56.8053C76.1306 56.2069 75.4266 55.8316 74.4693 55.8316C72.5833 55.8316 71.1031 57.2924 71.1031 59.3213C71.1031 61.3502 72.5824 62.811 74.4693 62.811C75.4266 62.811 76.1306 62.4353 76.5947 61.8373V62.6442H78.0592V59.3197ZM41.3281 57.1236C42.2711 57.1236 42.8767 57.7074 43.0313 58.7354H39.5397C39.6959 57.7759 40.2859 57.1236 41.3285 57.1236M41.3577 55.828C39.3856 55.828 38.0059 57.2451 38.0059 59.3177C38.0059 61.4307 39.4409 62.8074 41.4556 62.8074C42.4692 62.8074 43.3974 62.5575 44.2141 61.8761L43.497 60.8052C42.9329 61.2506 42.2146 61.5004 41.5393 61.5004C40.5963 61.5004 39.7377 61.0692 39.5266 59.8728H44.5233C44.5376 59.693 44.5524 59.5116 44.5524 59.3173C44.5376 57.2455 43.2404 55.8276 41.3568 55.8276M59.0237 59.3173C59.0237 58.1492 59.7986 57.1896 61.0651 57.1896C62.2754 57.1896 63.0922 58.1079 63.0922 59.3173C63.0922 60.5266 62.2754 61.4449 61.0651 61.4449C59.7986 61.4449 59.0233 60.4853 59.0233 59.3173M64.4714 59.3173V55.9956H63.0089V56.8053C62.5432 56.2069 61.8408 55.8316 60.8835 55.8316C58.9975 55.8316 57.5174 57.2924 57.5174 59.3213C57.5174 61.3502 58.9967 62.811 60.8835 62.811C61.8408 62.811 62.5432 62.4353 63.0089 61.8373V62.6442H64.4718V59.3197L64.4714 59.3173ZM50.7602 59.3173C50.7602 61.3332 52.1812 62.8069 54.3501 62.8069C55.3637 62.8069 56.0389 62.5843 56.7691 62.0146L56.0664 60.8465C55.517 61.2364 54.9401 61.4449 54.3034 61.4449C53.1353 61.4307 52.2764 60.5967 52.2764 59.3173C52.2764 58.0378 53.1353 57.2042 54.3034 57.1896C54.9385 57.1896 55.5154 57.3981 56.0664 57.788L56.7691 56.6199C56.0377 56.0502 55.3624 55.8276 54.3501 55.8276C52.1812 55.8276 50.7602 57.3009 50.7602 59.3173ZM69.6243 55.8276C68.7801 55.8276 68.2303 56.2175 67.8502 56.8013V55.9956H66.4V62.6405H67.865V58.9156C67.865 57.8159 68.3434 57.205 69.3 57.205C69.6132 57.2005 69.9242 57.2573 70.2151 57.3722L70.6661 56.0102C70.3422 55.8842 69.9199 55.8288 69.6235 55.8288M30.4012 56.524C29.6973 56.0656 28.7272 55.8288 27.6571 55.8288C25.9523 55.8288 24.8547 56.6357 24.8547 57.956C24.8547 59.0395 25.6719 59.708 27.1766 59.9165L27.8678 60.0137C28.6702 60.125 29.049 60.3335 29.049 60.7088C29.049 61.2226 28.516 61.5158 27.5152 61.5158C26.5017 61.5158 25.7703 61.1959 25.277 60.8206L24.5895 61.9474C25.3918 62.5312 26.4054 62.8098 27.5029 62.8098C29.4463 62.8098 30.5726 61.9061 30.5726 60.6408C30.5726 59.4727 29.6862 58.8618 28.2217 58.6532L27.532 58.5544C26.8986 58.4735 26.391 58.3476 26.391 57.9022C26.391 57.4163 26.8695 57.124 27.6723 57.124C28.5312 57.124 29.3627 57.4439 29.7702 57.6937L30.4037 56.5256L30.4012 56.524ZM49.2821 55.83C48.4379 55.83 47.8881 56.2199 47.5097 56.8037V55.9956H46.0595V62.6405H47.5228V58.9156C47.5228 57.8159 48.0013 57.205 48.9578 57.205C49.2711 57.2005 49.5821 57.2573 49.8729 57.3722L50.3239 56.0102C50 55.8842 49.5777 55.8288 49.2813 55.8288M36.7952 55.9956H34.4024V53.9797H32.9231V55.9956H31.5582V57.3163H32.9231V60.3477C32.9231 61.8895 33.5291 62.8078 35.2601 62.8078C35.8952 62.8078 36.6267 62.6134 37.0908 62.294L36.6681 61.0566C36.2314 61.3064 35.753 61.4324 35.3725 61.4324C34.641 61.4324 34.4024 60.987 34.4024 60.3202V57.3175H36.7952V55.9956ZM14.918 62.6422V58.4719C14.918 56.9013 13.9045 55.8446 12.2706 55.8304C11.4117 55.8162 10.5257 56.0802 9.90532 57.0127C9.4412 56.2758 8.70976 55.8304 7.68148 55.8304C6.96275 55.8304 6.26042 56.0389 5.71061 56.8171V55.9956H4.24609V62.6405H5.72209V58.9561C5.72209 57.8026 6.36989 57.1896 7.37029 57.1896C8.34199 57.1896 8.83358 57.8151 8.83358 58.9415V62.6397H10.3129V58.9553C10.3129 57.8018 10.9881 57.1888 11.9594 57.1888C12.9586 57.1888 13.4354 57.8143 13.4354 58.9407V62.6389L14.918 62.6422Z" fill="#231F20"/>
<path d="M81.2187 40.5379V39.5662H80.9624L80.666 40.233L80.3712 39.5662H80.1142V40.5379H80.2962V39.8059L80.5734 40.4375H80.762L81.0391 39.8042V40.5379H81.2195H81.2187ZM79.5931 40.5379V39.7326H79.9211V39.5686H79.083V39.7326H79.411V40.5379H79.5914H79.5931Z" fill="#F79410"/>
<path d="M52.0932 44.7053H29.918V5.35059H52.0936L52.0932 44.7053Z" fill="#FF5F00"/>
<path d="M31.324 25.0283C31.324 17.0452 35.1091 9.93378 41.0033 5.35089C36.5417 1.87677 31.0234 -0.00875145 25.3417 -0.000461059C11.3455 -0.000461059 0 11.2051 0 25.0283C0 38.8514 11.3455 50.057 25.3417 50.057C31.0236 50.0654 36.542 48.1799 41.0037 44.7057C35.1099 40.1236 31.324 33.0118 31.324 25.0283Z" fill="#EB001B"/>
<path d="M82.0101 25.0288C82.0101 38.8519 70.6646 50.0575 56.6684 50.0575C50.986 50.0657 45.4669 48.1802 41.0044 44.7061C46.9002 40.1232 50.6853 33.0123 50.6853 25.0288C50.6853 17.0452 46.9002 9.93427 41.0044 5.35138C45.4668 1.87737 50.9857 -0.00811785 56.668 2.62727e-05C70.6642 2.62727e-05 82.0097 11.2056 82.0097 25.0288" fill="#F79E1B"/>
</g>
<defs>
<clipPath id="clip0_2013_3">
<rect width="82" height="63" fill="white"/>
</clipPath>
</defs>
</svg>
