<svg width="41" height="13" viewBox="0 0 41 13" fill="none" xmlns="http://www.w3.org/2000/svg">
<g id="Group 30">
<path id="Vector" d="M3.96864 12.4461C5.04515 12.4865 6.09515 12.0961 6.8997 11.3564C7.16064 11.0914 7.36686 10.7746 7.5059 10.425C7.64495 10.0754 7.71391 9.70035 7.70867 9.32245C7.71189 8.97006 7.64724 8.62056 7.5184 8.29423C7.3896 7.9679 7.19921 7.67126 6.95834 7.42164C6.38822 6.86723 5.66878 6.5042 4.89489 6.38041L3.44693 6.08987C2.86071 5.96878 2.50899 5.66004 2.50899 5.23632C2.50899 4.67331 3.03658 4.2859 3.8807 4.2859C4.35186 4.26702 4.81118 4.44105 5.15866 4.77019C5.35374 4.98976 5.47684 5.26725 5.51041 5.56321L7.59729 5.07892C7.53074 4.46491 7.25676 3.89477 6.82352 3.46868C6.02751 2.70922 4.97576 2.30085 3.89246 2.33061C2.88287 2.29783 1.89796 2.65629 1.13139 3.3355C0.851865 3.60231 0.629295 3.92639 0.477889 4.28702C0.326485 4.64769 0.249575 5.03695 0.252071 5.43003C0.241641 5.7584 0.29603 6.08549 0.411925 6.3915C0.527822 6.69746 0.702803 6.97587 0.926215 7.20978C1.47572 7.73544 2.15542 8.09374 2.89002 8.24491L4.31453 8.59602C5.0297 8.76555 5.34625 9.03793 5.34625 9.52222C5.34625 10.1276 4.82453 10.4726 3.96278 10.4726C3.69699 10.486 3.43136 10.4429 3.18232 10.3461C2.93327 10.2493 2.7061 10.1007 2.51485 9.90964C2.28633 9.67199 2.15246 9.35442 2.13967 9.01978L0 9.50407C0.0654818 10.154 0.352141 10.7589 0.808972 11.2112C1.22971 11.6203 1.72556 11.9382 2.26723 12.1461C2.80891 12.3541 3.38544 12.4478 3.96278 12.4218L3.96864 12.4461ZM19.7905 12.4218C20.3766 12.4387 20.9601 12.3355 21.5074 12.1184C22.0548 11.9013 22.5551 11.5744 22.9795 11.1567C23.5224 10.6237 23.9136 9.94755 24.1109 9.2014L21.9126 8.44468C21.8099 8.83049 21.6073 9.18003 21.3264 9.45563C20.9133 9.85734 20.3636 10.0748 19.7964 10.061C19.4872 10.0644 19.1804 10.0047 18.8937 9.88522C18.607 9.76573 18.346 9.58889 18.1257 9.36482C17.6639 8.8184 17.4226 8.10992 17.4515 7.38534C17.4197 6.65155 17.6681 5.93424 18.1433 5.38766C18.5867 4.94622 19.1805 4.70267 19.7964 4.70966C20.0705 4.70079 20.3435 4.74991 20.5985 4.85401C20.8536 4.95811 21.0853 5.11499 21.2795 5.315C21.5536 5.60321 21.755 5.95665 21.8657 6.3441L24.0992 5.56928C23.9124 4.84814 23.5513 4.18786 23.0498 3.65028C22.6117 3.22071 22.0955 2.88504 21.5311 2.66269C20.9666 2.44033 20.365 2.3357 19.7612 2.35483C19.1333 2.34713 18.5102 2.46779 17.9277 2.70987C17.3451 2.95194 16.8147 3.31064 16.367 3.7653C15.4752 4.75268 14.9822 6.05445 14.9888 7.40461C14.9953 8.75482 15.5009 10.0515 16.4022 11.0295C17.3105 11.9422 18.5291 12.4508 19.7964 12.4461L19.7905 12.4218ZM12.2167 12.4461C12.9201 12.4756 13.613 12.2627 14.1863 11.8407V9.77043C13.8175 10.0314 13.3789 10.1668 12.9318 10.1578C12.7633 10.1899 12.5898 10.1789 12.4264 10.1258C12.2629 10.0726 12.1146 9.97892 11.9943 9.85293C11.8741 9.72689 11.7855 9.57243 11.7363 9.4029C11.6872 9.23341 11.6791 9.05408 11.7125 8.88053V0H9.24457V2.62118H14.1981V5.09708H9.24457V9.498C9.21081 10.2742 9.474 11.0331 9.97733 11.6107C10.2798 11.8978 10.6346 12.1195 11.0212 12.263C11.4078 12.4064 11.8182 12.4687 12.2284 12.4461" fill="#4F008C"/>
<path id="Vector_2" d="M26.5223 9.18918V2.62262H27.5901V3.14198C27.7594 2.92833 27.9739 2.75839 28.217 2.64549C28.46 2.53259 28.7249 2.47981 28.9908 2.49129C30.2193 2.49129 31.1034 3.51209 31.1034 4.97465C31.1034 6.43719 30.248 7.48786 28.9908 7.48786C28.7239 7.4979 28.4585 7.44328 28.2153 7.3283C27.9722 7.21327 27.7582 7.04105 27.5901 6.82521V9.21308L26.5223 9.18918ZM27.5901 4.41349V5.60742C27.6905 5.8574 27.8594 6.07111 28.0759 6.22188C28.2923 6.37261 28.5466 6.45374 28.8071 6.45511C29.519 6.45511 29.9897 5.89993 29.9897 5.00449C29.9897 4.10905 29.519 3.56582 28.8071 3.56582C28.5462 3.56189 28.2903 3.64021 28.0731 3.79045C27.8559 3.9407 27.6875 4.15584 27.5901 4.40754" fill="#03BB86"/>
<path id="Vector_3" d="M31.8277 5.78261C31.8112 5.42463 31.9419 5.07481 32.1915 4.80917C32.4411 4.54353 32.7894 4.38352 33.1608 4.36388L35.0756 4.13033V3.8968C35.0842 3.8412 35.0796 3.78442 35.0619 3.73083C35.0442 3.67724 35.0141 3.62827 34.9737 3.58768C34.9333 3.54708 34.8838 3.51594 34.829 3.49666C34.7741 3.47738 34.7155 3.47046 34.6575 3.47644H32.2337V2.48975H34.6575C35.627 2.48975 36.1663 2.94514 36.1663 3.76252V7.09627H35.0756V6.51242C34.892 6.74536 34.6516 6.93116 34.3758 7.05337C34.0999 7.17555 33.7971 7.23037 33.4941 7.21302C33.2836 7.23431 33.0708 7.2127 32.8696 7.1496C32.6684 7.08651 32.4832 6.98337 32.326 6.84681C32.1689 6.71026 32.0433 6.54338 31.9575 6.35702C31.8716 6.17067 31.8274 5.96901 31.8277 5.7651V5.78261ZM33.7728 6.34895C34.0438 6.35453 34.3108 6.28485 34.5418 6.14822C34.7728 6.01154 34.9581 5.8137 35.0756 5.57826V4.99445L33.6152 5.19293C33.2093 5.24547 33.0093 5.44982 33.0093 5.77679C33.0093 6.10371 33.2941 6.3606 33.797 6.3606" fill="#03BB86"/>
<path id="Vector_4" d="M37.0737 8.17116H37.7885C37.8993 8.18397 38.0101 8.1475 38.0988 8.06906C38.1874 7.99066 38.2475 7.87608 38.2668 7.74828L38.3982 7.3254L36.8898 2.48975H37.9094L38.8448 5.85446L39.7436 2.48975H40.7475L39.092 8.04247C38.8661 8.80855 38.5664 9.21307 37.8411 9.21307H37.0737V8.17116Z" fill="#03BB86"/>
</g>
</svg>
