<svg width="43" height="15" viewBox="0 0 43 15" fill="none" xmlns="http://www.w3.org/2000/svg">
<path d="M21.2955 0.992566L18.4906 14.0506H15.0961L17.9052 0.992566H21.2955ZM35.5752 9.42379L37.3606 4.51952L38.3899 9.42379H35.5752ZM39.3604 14.0506H42.5L39.7609 0.992566H36.8635C36.8593 0.992566 36.8537 0.992566 36.8495 0.992566C36.2067 0.992566 35.655 1.38429 35.4225 1.94052L35.4183 1.95028L30.328 14.0506H33.8905L34.5991 12.099H38.9529L39.3604 14.0506ZM30.503 9.78764C30.517 6.34015 25.7151 6.15056 25.7487 4.61013C25.7599 4.14173 26.2067 3.64266 27.1869 3.5158C27.369 3.49768 27.579 3.48652 27.7919 3.48652C28.7875 3.48652 29.7314 3.71236 30.5716 4.11664L30.5338 4.09991L31.129 1.32993C30.1865 0.966079 29.0956 0.754182 27.9557 0.75H27.9543C24.599 0.75 22.2394 2.52742 22.2184 5.06877C22.1974 6.94796 23.903 7.99489 25.19 8.62221C26.5133 9.26208 26.9573 9.67333 26.9503 10.2435C26.9419 11.1217 25.8972 11.5065 24.9197 11.5218C24.8749 11.5232 24.8203 11.5232 24.7671 11.5232C23.5473 11.5232 22.399 11.2179 21.3964 10.6784L21.4342 10.6966L20.8194 13.5572C21.9201 13.9963 23.1959 14.25 24.5318 14.25C24.5528 14.25 24.5738 14.25 24.5948 14.25H24.592C28.1574 14.25 30.489 12.4977 30.5016 9.78346L30.503 9.78764ZM16.4461 0.992566L10.9482 14.0506H7.36043L4.65491 3.62732C4.60309 3.11989 4.29081 2.6961 3.8567 2.4842L3.84829 2.48002C2.88484 2.00883 1.76454 1.62546 0.592425 1.38429L0.5 1.36896L0.581222 0.991171H6.35636C7.14337 0.991171 7.79735 1.56413 7.91918 2.31273L7.92058 2.3211L9.35036 9.87825L12.8821 0.989777L16.4461 0.992566Z" fill="black"/>
</svg>
