<svg width="30" height="30" viewBox="0 0 30 30" fill="none" xmlns="http://www.w3.org/2000/svg">
<circle cx="15" cy="15" r="15" fill="white"/>
<circle cx="15" cy="15" r="14.5" stroke="#8758FF" stroke-opacity="0.1"/>
<path d="M21.25 9.53125H19.0008L17.8906 7.86484C17.8477 7.80058 17.7896 7.7479 17.7215 7.71151C17.6533 7.67512 17.5773 7.65614 17.5 7.65625H12.5C12.4227 7.65614 12.3467 7.67512 12.2785 7.71151C12.2104 7.7479 12.1523 7.80058 12.1094 7.86484L10.9984 9.53125H8.75C8.29416 9.53125 7.85699 9.71233 7.53466 10.0347C7.21233 10.357 7.03125 10.7942 7.03125 11.25V20C7.03125 20.4558 7.21233 20.893 7.53466 21.2153C7.85699 21.5377 8.29416 21.7188 8.75 21.7188H21.25C21.7058 21.7188 22.143 21.5377 22.4653 21.2153C22.7877 20.893 22.9688 20.4558 22.9688 20V11.25C22.9688 10.7942 22.7877 10.357 22.4653 10.0347C22.143 9.71233 21.7058 9.53125 21.25 9.53125ZM22.0312 20C22.0312 20.2072 21.9489 20.4059 21.8024 20.5524C21.6559 20.6989 21.4572 20.7812 21.25 20.7812H8.75C8.5428 20.7812 8.34409 20.6989 8.19757 20.5524C8.05106 20.4059 7.96875 20.2072 7.96875 20V11.25C7.96875 11.0428 8.05106 10.8441 8.19757 10.6976C8.34409 10.5511 8.5428 10.4688 8.75 10.4688H11.25C11.3273 10.4689 11.4033 10.4499 11.4715 10.4135C11.5396 10.3771 11.5977 10.3244 11.6406 10.2602L12.7508 8.59375H17.2484L18.3594 10.2602C18.4023 10.3244 18.4604 10.3771 18.5285 10.4135C18.5967 10.4499 18.6727 10.4689 18.75 10.4688H21.25C21.4572 10.4688 21.6559 10.5511 21.8024 10.6976C21.9489 10.8441 22.0312 11.0428 22.0312 11.25V20ZM15 12.0313C14.351 12.0313 13.7166 12.2237 13.177 12.5842C12.6374 12.9448 12.2169 13.4573 11.9685 14.0568C11.7202 14.6564 11.6552 15.3161 11.7818 15.9526C11.9084 16.5891 12.2209 17.1738 12.6798 17.6327C13.1387 18.0916 13.7234 18.4041 14.3599 18.5307C14.9964 18.6573 15.6561 18.5923 16.2557 18.344C16.8553 18.0956 17.3677 17.6751 17.7283 17.1355C18.0888 16.5959 18.2812 15.9615 18.2812 15.3125C18.2812 14.4423 17.9355 13.6077 17.3202 12.9923C16.7048 12.377 15.8702 12.0313 15 12.0313ZM15 17.6562C14.5364 17.6562 14.0833 17.5188 13.6979 17.2613C13.3125 17.0037 13.0121 16.6377 12.8347 16.2094C12.6573 15.7811 12.6109 15.3099 12.7013 14.8553C12.7917 14.4006 13.0149 13.983 13.3427 13.6552C13.6705 13.3274 14.0881 13.1042 14.5428 13.0138C14.9974 12.9234 15.4686 12.9698 15.8969 13.1472C16.3252 13.3246 16.6912 13.625 16.9488 14.0104C17.2063 14.3958 17.3438 14.849 17.3438 15.3125C17.3438 15.9341 17.0968 16.5302 16.6573 16.9698C16.2177 17.4093 15.6216 17.6562 15 17.6562Z" fill="#8758FF"/>
</svg>
