<svg width="13" height="13" viewBox="0 0 13 13" fill="none" xmlns="http://www.w3.org/2000/svg">
<g id="x (2) 2">
<path id="Vector" d="M10.4437 9.86905C10.4814 9.9068 10.5113 9.95161 10.5318 10.0009C10.5522 10.0502 10.5627 10.1031 10.5627 10.1565C10.5627 10.2099 10.5522 10.2627 10.5318 10.312C10.5113 10.3613 10.4814 10.4062 10.4437 10.4439C10.4059 10.4816 10.3611 10.5116 10.3118 10.532C10.2625 10.5524 10.2096 10.563 10.1562 10.563C10.1029 10.563 10.05 10.5524 10.0007 10.532C9.95136 10.5116 9.90655 10.4816 9.86881 10.4439L6.49998 7.07456L3.13115 10.4439C3.05492 10.5201 2.95154 10.563 2.84373 10.563C2.73593 10.563 2.63254 10.5201 2.55631 10.4439C2.48008 10.3677 2.43726 10.2643 2.43726 10.1565C2.43726 10.0487 2.48008 9.94528 2.55631 9.86905L5.92565 6.50023L2.55631 3.1314C2.48008 3.05517 2.43726 2.95178 2.43726 2.84398C2.43726 2.73617 2.48008 2.63278 2.55631 2.55655C2.63254 2.48032 2.73593 2.4375 2.84373 2.4375C2.95154 2.4375 3.05492 2.48032 3.13115 2.55655L6.49998 5.92589L9.86881 2.55655C9.94504 2.48032 10.0484 2.4375 10.1562 2.4375C10.264 2.4375 10.3674 2.48032 10.4437 2.55655C10.5199 2.63278 10.5627 2.73617 10.5627 2.84398C10.5627 2.95178 10.5199 3.05517 10.4437 3.1314L7.07432 6.50023L10.4437 9.86905Z" fill="#FF6600"/>
</g>
</svg>
