<svg width="61" height="61" viewBox="0 0 61 61" fill="none" xmlns="http://www.w3.org/2000/svg">
<path fill-rule="evenodd" clip-rule="evenodd" d="M20.0851 0H40.7439L58.9798 18.2394V53.2643C58.9798 57.5174 55.5006 61 51.2441 61H20.0853C15.8322 61 12.353 57.5174 12.353 53.2643V7.73568C12.353 3.4826 15.8322 0 20.0851 0Z" fill="#6F4CC7"/>
<path fill-rule="evenodd" clip-rule="evenodd" d="M40.7437 0L58.9796 18.2394H42.7098C41.6256 18.2394 40.7437 17.3539 40.7437 16.2697V0Z" fill="#8758FF"/>
<path fill-rule="evenodd" clip-rule="evenodd" d="M3.71777 25.9746H45.7289C46.6632 25.9746 47.4267 26.7381 47.4267 27.6724V43.0844C47.4267 44.0187 46.6632 44.7821 45.7289 44.7821H3.71777C2.78347 44.7821 2.02002 44.0187 2.02002 43.0844V27.6724C2.02002 26.7381 2.78359 25.9746 3.71777 25.9746Z" fill="#8758FF"/>
<path d="M14.0297 29.1182H10.8608C10.3169 29.1182 9.87598 29.5591 9.87598 30.103V35.2973V36.5766V40.6519C9.87598 41.1958 10.3169 41.6367 10.8608 41.6367C11.4047 41.6367 11.8456 41.1958 11.8456 40.6519V37.5614H14.0296C16.3199 37.5614 18.1833 35.6981 18.1833 33.4078V33.2719C18.1834 30.9815 16.3201 29.1182 14.0297 29.1182ZM16.2138 33.4077C16.2138 34.612 15.234 35.5917 14.0297 35.5917H11.8456V35.2972V31.0877H14.0296C15.2339 31.0877 16.2137 32.0675 16.2137 33.2716V33.4077H16.2138ZM24.6275 29.1182H21.4587C20.9148 29.1182 20.4739 29.5591 20.4739 30.103V40.6519C20.4739 41.1958 20.9148 41.6367 21.4587 41.6367H24.6275C26.9179 41.6367 28.7812 39.7734 28.7812 37.4831V33.2719C28.7812 30.9815 26.9179 29.1182 24.6275 29.1182ZM26.8116 37.483C26.8116 38.6873 25.8318 39.667 24.6275 39.667H22.4435V31.0877H24.6275C25.8318 31.0877 26.8116 32.0675 26.8116 33.2716V37.483ZM33.2329 31.0878V33.814H37.798C38.3419 33.814 38.7828 34.2549 38.7828 34.7988C38.7828 35.3427 38.3419 35.7836 37.798 35.7836H33.2329V40.6519C33.2329 41.1958 32.792 41.6367 32.2481 41.6367C31.7042 41.6367 31.2633 41.1958 31.2633 40.6519V30.103C31.2633 29.5591 31.7042 29.1182 32.2481 29.1182H38.5858C39.1296 29.1182 39.5706 29.5591 39.5706 30.103C39.5706 30.6469 39.1296 31.0878 38.5858 31.0878H33.2329Z" fill="white"/>
</svg>
