<svg width="25" height="19" viewBox="0 0 25 19" fill="none" xmlns="http://www.w3.org/2000/svg">
<path d="M7.34375 1.25C7.34375 0.976496 7.4524 0.714193 7.6458 0.520796C7.83919 0.327399 8.1015 0.21875 8.375 0.21875H23.8438C24.1173 0.21875 24.3796 0.327399 24.573 0.520796C24.7664 0.714193 24.875 0.976496 24.875 1.25C24.875 1.5235 24.7664 1.78581 24.573 1.9792C24.3796 2.1726 24.1173 2.28125 23.8438 2.28125H8.375C8.1015 2.28125 7.83919 2.1726 7.6458 1.9792C7.4524 1.78581 7.34375 1.5235 7.34375 1.25ZM23.8438 8.46875H8.375C8.1015 8.46875 7.83919 8.5774 7.6458 8.7708C7.4524 8.96419 7.34375 9.2265 7.34375 9.5C7.34375 9.7735 7.4524 10.0358 7.6458 10.2292C7.83919 10.4226 8.1015 10.5312 8.375 10.5312H23.8438C24.1173 10.5312 24.3796 10.4226 24.573 10.2292C24.7664 10.0358 24.875 9.7735 24.875 9.5C24.875 9.2265 24.7664 8.96419 24.573 8.7708C24.3796 8.5774 24.1173 8.46875 23.8438 8.46875ZM23.8438 16.7188H8.375C8.1015 16.7188 7.83919 16.8274 7.6458 17.0208C7.4524 17.2142 7.34375 17.4765 7.34375 17.75C7.34375 18.0235 7.4524 18.2858 7.6458 18.4792C7.83919 18.6726 8.1015 18.7812 8.375 18.7812H23.8438C24.1173 18.7812 24.3796 18.6726 24.573 18.4792C24.7664 18.2858 24.875 18.0235 24.875 17.75C24.875 17.4765 24.7664 17.2142 24.573 17.0208C24.3796 16.8274 24.1173 16.7188 23.8438 16.7188ZM3.21875 0.21875H1.15625C0.882746 0.21875 0.620443 0.327399 0.427046 0.520796C0.233649 0.714193 0.125 0.976496 0.125 1.25C0.125 1.5235 0.233649 1.78581 0.427046 1.9792C0.620443 2.1726 0.882746 2.28125 1.15625 2.28125H3.21875C3.49225 2.28125 3.75456 2.1726 3.94795 1.9792C4.14135 1.78581 4.25 1.5235 4.25 1.25C4.25 0.976496 4.14135 0.714193 3.94795 0.520796C3.75456 0.327399 3.49225 0.21875 3.21875 0.21875ZM3.21875 8.46875H1.15625C0.882746 8.46875 0.620443 8.5774 0.427046 8.7708C0.233649 8.96419 0.125 9.2265 0.125 9.5C0.125 9.7735 0.233649 10.0358 0.427046 10.2292C0.620443 10.4226 0.882746 10.5312 1.15625 10.5312H3.21875C3.49225 10.5312 3.75456 10.4226 3.94795 10.2292C4.14135 10.0358 4.25 9.7735 4.25 9.5C4.25 9.2265 4.14135 8.96419 3.94795 8.7708C3.75456 8.5774 3.49225 8.46875 3.21875 8.46875ZM3.21875 16.7188H1.15625C0.882746 16.7188 0.620443 16.8274 0.427046 17.0208C0.233649 17.2142 0.125 17.4765 0.125 17.75C0.125 18.0235 0.233649 18.2858 0.427046 18.4792C0.620443 18.6726 0.882746 18.7812 1.15625 18.7812H3.21875C3.49225 18.7812 3.75456 18.6726 3.94795 18.4792C4.14135 18.2858 4.25 18.0235 4.25 17.75C4.25 17.4765 4.14135 17.2142 3.94795 17.0208C3.75456 16.8274 3.49225 16.7188 3.21875 16.7188Z" fill="black"/>
</svg>
