<svg id="Group_29180" data-name="Group 29180" xmlns="http://www.w3.org/2000/svg" width="47" height="46" viewBox="0 0 47 46">
  <rect id="Rectangle_8921" data-name="Rectangle 8921" width="47" height="46" rx="10" fill="rgba(54,69,156,0.15)"/>
  <g id="Layer_26" data-name="Layer 26" transform="translate(11.75 13.239)">
    <path id="Path_56082" data-name="Path 56082" d="M21.525,9.939H16.347l-2.9-2.318a.593.593,0,0,0-.37-.131H4.659A2.159,2.159,0,0,0,2.5,9.649V26.411a.6.6,0,0,0,.534.6H3.1a.6.6,0,0,0,.585-.474l2.441-11.55a.952.952,0,0,1,.956-.741h16a.6.6,0,0,0,.6-.6V12.1a2.159,2.159,0,0,0-2.155-2.159Z" transform="translate(-2.5 -7.49)" fill="#36459c"/>
    <path id="Path_56083" data-name="Path 56083" d="M25.555,22.266a2.155,2.155,0,0,0-1.693-.816H7.1A2.151,2.151,0,0,0,5,23.127L2.555,34.676a.6.6,0,0,0,.566.737h18.75a2.155,2.155,0,0,0,2.1-1.681l1.991-9.63a2.147,2.147,0,0,0-.41-1.836Z" transform="translate(-2.523 -15.89)" fill="#6471b9"/>
  </g>
</svg>
