<svg width="31" height="31" viewBox="0 0 31 31" fill="none" xmlns="http://www.w3.org/2000/svg">
<g id="hand-pointing-fill 1">
<path id="Vector" d="M26.1563 12.5938V18.7611C26.1563 24.3556 21.694 28.9996 16.1055 29.0613C14.7492 29.0796 13.4029 28.8255 12.1466 28.314C10.8902 27.8025 9.74932 27.0441 8.79144 26.0836C6.15038 23.29 3.16663 16.4688 3.16663 16.4688C3.03539 16.2416 2.95164 15.9902 2.92047 15.7297C2.88929 15.4692 2.91134 15.2051 2.98528 14.9534C3.05922 14.7017 3.18351 14.4677 3.3506 14.2654C3.5177 14.0632 3.72413 13.897 3.95738 13.7769C4.88495 13.2925 6.02808 13.6752 6.54878 14.5785L9.09175 18.9912C9.16248 19.1182 9.26919 19.2215 9.39846 19.2881C9.52774 19.3547 9.67381 19.3816 9.81831 19.3654H9.83285C10.0655 19.3253 10.2763 19.2035 10.4273 19.022C10.5782 18.8404 10.6594 18.6109 10.6563 18.3748V3.87505C10.656 3.61257 10.709 3.35277 10.8122 3.11141C10.9153 2.87005 11.0664 2.65217 11.2563 2.47098C11.4462 2.28979 11.671 2.14908 11.9169 2.05738C12.1628 1.96569 12.4249 1.92492 12.687 1.93755C13.7296 1.98599 14.5313 2.8845 14.5313 3.92712V12.5938C14.531 12.7266 14.558 12.858 14.6107 12.98C14.6633 13.1019 14.7405 13.2117 14.8373 13.3025C14.9342 13.3934 15.0487 13.4633 15.1737 13.5081C15.2988 13.5528 15.4317 13.5713 15.5642 13.5625C15.8133 13.5411 16.0451 13.4262 16.2129 13.2409C16.3807 13.0555 16.4721 12.8135 16.4688 12.5635V10.6563C16.4685 10.3938 16.5215 10.134 16.6247 9.89266C16.7278 9.6513 16.8789 9.43342 17.0688 9.25223C17.2587 9.07104 17.4835 8.93033 17.7294 8.83863C17.9753 8.74694 18.2374 8.70617 18.4995 8.7188C19.5421 8.76724 20.3438 9.66575 20.3438 10.7084V13.5625C20.3435 13.6954 20.3705 13.8268 20.4232 13.9487C20.4758 14.0706 20.553 14.1804 20.6498 14.2713C20.7467 14.3621 20.8612 14.4321 20.9862 14.4768C21.1113 14.5216 21.2442 14.5401 21.3767 14.5313C21.6258 14.5099 21.8576 14.395 22.0254 14.2096C22.1932 14.0243 22.2846 13.7823 22.2813 13.5323V12.6507C22.2813 11.6081 23.0829 10.7132 24.1255 10.6611C24.3873 10.6485 24.6489 10.6892 24.8945 10.7806C25.1401 10.872 25.3647 11.0122 25.5545 11.1929C25.7443 11.3736 25.8955 11.5909 25.999 11.8317C26.1024 12.0725 26.1559 12.3317 26.1563 12.5938Z" fill="white"/>
</g>
</svg>
