<svg width="13" height="16" viewBox="0 0 13 16" fill="none" xmlns="http://www.w3.org/2000/svg">
<path d="M6.50005 8.95346C6.75613 8.95346 7.0097 8.89966 7.24628 8.79513C7.48287 8.6906 7.69783 8.53739 7.87891 8.34424C8.05998 8.15109 8.20362 7.9218 8.30161 7.66944C8.39961 7.41708 8.45005 7.14661 8.45005 6.87346C8.45005 6.60031 8.39961 6.32983 8.30161 6.07748C8.20362 5.82512 8.05998 5.59582 7.87891 5.40267C7.69783 5.20953 7.48287 5.05632 7.24628 4.95179C7.0097 4.84726 6.75613 4.79346 6.50005 4.79346C5.98288 4.79346 5.48689 5.0126 5.12119 5.40267C4.75549 5.79275 4.55005 6.32181 4.55005 6.87346C4.55005 7.42511 4.75549 7.95416 5.12119 8.34424C5.48689 8.73432 5.98288 8.95346 6.50005 8.95346Z" stroke="#8758FF" stroke-width="1.5"/>
<path d="M1.26256 5.66016C2.49381 -0.113169 10.5126 -0.106502 11.7376 5.66683C12.4563 9.0535 10.4813 11.9202 8.75006 13.6935C8.14511 14.3159 7.33741 14.6636 6.49694 14.6636C5.65647 14.6636 4.84877 14.3159 4.24381 13.6935C2.51881 11.9202 0.543812 9.04683 1.26256 5.66016Z" stroke="#8758FF" stroke-width="1.5"/>
</svg>
