<svg width="33" height="33" viewBox="0 0 33 33" fill="none" xmlns="http://www.w3.org/2000/svg">
<g clip-path="url(#clip0_1032_6)">
<path d="M1.65 26.95H4.4V30.25C4.40182 31.768 5.63197 32.9982 7.15 33H25.85C27.368 32.9982 28.5982 31.768 28.6 30.25V26.95H31.35C32.2613 26.95 33 26.2113 33 25.3V19.8C33 18.8887 32.2613 18.15 31.35 18.15H28.6V14.85C28.5982 13.332 27.368 12.1018 25.85 12.1V9.35C25.85 4.18614 21.6639 0 16.5 0C11.3361 0 7.15 4.18614 7.15 9.35V12.1C5.63197 12.1018 4.40182 13.332 4.4 14.85V18.15H1.65C0.73873 18.15 0 18.8887 0 19.8V25.3C0 26.2113 0.73873 26.95 1.65 26.95ZM27.5 30.25C27.5 31.1613 26.7613 31.9 25.85 31.9H7.15C6.23873 31.9 5.5 31.1613 5.5 30.25V26.95H27.5V30.25ZM8.25 9.35C8.25 4.79365 11.9437 1.1 16.5 1.1C21.0563 1.1 24.75 4.79365 24.75 9.35V12.1H22.55V9.35C22.55 6.00868 19.8413 3.3 16.5 3.3C13.1587 3.3 10.45 6.00868 10.45 9.35V12.1H8.25V9.35ZM11.55 12.1V9.35C11.55 6.61619 13.7662 4.4 16.5 4.4C19.2338 4.4 21.45 6.61619 21.45 9.35V12.1H11.55ZM5.5 14.85C5.5 13.9387 6.23873 13.2 7.15 13.2H25.85C26.7613 13.2 27.5 13.9387 27.5 14.85V18.15H5.5V14.85ZM1.1 19.8C1.1 19.4962 1.34624 19.25 1.65 19.25H31.35C31.6538 19.25 31.9 19.4962 31.9 19.8V25.3C31.9 25.6038 31.6538 25.85 31.35 25.85H1.65C1.34624 25.85 1.1 25.6038 1.1 25.3V19.8Z" fill="black"/>
<path d="M2.29236 23.9549C2.3733 24.0762 2.49916 24.1605 2.64222 24.1891C2.78529 24.2176 2.93385 24.1882 3.05521 24.1072L3.84996 23.577V24.1996C3.84996 24.5034 4.0962 24.7496 4.39996 24.7496C4.70371 24.7496 4.94996 24.5034 4.94996 24.1996V23.577L5.74471 24.1072C5.90819 24.2163 6.11744 24.2298 6.29362 24.1428C6.46981 24.0557 6.58617 23.8813 6.59887 23.6852C6.61158 23.4891 6.51869 23.3011 6.35521 23.192L5.38996 22.5496L6.35356 21.9072C6.51704 21.7982 6.60993 21.6102 6.59722 21.4141C6.58452 21.2179 6.46816 21.0435 6.29197 20.9565C6.11579 20.8694 5.90654 20.883 5.74306 20.992L4.94996 21.5222V20.8996C4.94996 20.5959 4.70371 20.3496 4.39996 20.3496C4.0962 20.3496 3.84996 20.5959 3.84996 20.8996V21.5222L3.05521 20.992C2.80248 20.8234 2.46094 20.8916 2.29236 21.1444C2.12377 21.3971 2.19198 21.7386 2.44471 21.9072L3.40996 22.5496L2.44471 23.192C2.32333 23.273 2.23908 23.3988 2.21051 23.5419C2.18194 23.6849 2.21138 23.8335 2.29236 23.9549Z" fill="black"/>
<path d="M8.3424 23.9549C8.42335 24.0762 8.5492 24.1605 8.69227 24.1891C8.83534 24.2176 8.9839 24.1882 9.10525 24.1072L9.9 23.577V24.1996C9.9 24.5034 10.1462 24.7496 10.45 24.7496C10.7538 24.7496 11 24.5034 11 24.1996V23.577L11.7948 24.1072C11.9582 24.2163 12.1675 24.2298 12.3437 24.1428C12.5199 24.0557 12.6362 23.8813 12.6489 23.6852C12.6616 23.4891 12.5687 23.3011 12.4053 23.192L11.44 22.5496L12.4036 21.9072C12.5671 21.7982 12.66 21.6102 12.6473 21.4141C12.6346 21.2179 12.5182 21.0435 12.342 20.9565C12.1658 20.8694 11.9566 20.883 11.7931 20.992L11 21.5222V20.8996C11 20.5959 10.7538 20.3496 10.45 20.3496C10.1462 20.3496 9.9 20.5959 9.9 20.8996V21.5222L9.10525 20.992C8.85253 20.8234 8.51099 20.8916 8.3424 21.1444C8.17382 21.3971 8.24203 21.7386 8.49475 21.9072L9.46001 22.5496L8.4964 23.192C8.37476 23.2727 8.29018 23.3984 8.26129 23.5415C8.23241 23.6846 8.26159 23.8333 8.3424 23.9549Z" fill="black"/>
<path d="M20.4424 23.9549C20.5233 24.0762 20.6492 24.1605 20.7922 24.1891C20.9353 24.2176 21.0839 24.1882 21.2052 24.1072L22 23.577V24.1996C22 24.5034 22.2462 24.7496 22.55 24.7496C22.8537 24.7496 23.1 24.5034 23.1 24.1996V23.577L23.8947 24.1072C24.0582 24.2163 24.2675 24.2298 24.4436 24.1428C24.6198 24.0557 24.7362 23.8813 24.7489 23.6852C24.7616 23.4891 24.6687 23.3011 24.5052 23.192L23.54 22.5496L24.5036 21.9072C24.6671 21.7982 24.76 21.6102 24.7472 21.4141C24.7345 21.2179 24.6182 21.0435 24.442 20.9565C24.2658 20.8694 24.0566 20.883 23.8931 20.992L23.1 21.5222V20.8996C23.1 20.5959 22.8537 20.3496 22.55 20.3496C22.2462 20.3496 22 20.5959 22 20.8996V21.5222L21.2052 20.992C20.9525 20.8234 20.611 20.8916 20.4424 21.1444C20.2738 21.3971 20.342 21.7386 20.5947 21.9072L21.56 22.5496L20.5964 23.192C20.4747 23.2727 20.3902 23.3984 20.3613 23.5415C20.3324 23.6846 20.3616 23.8333 20.4424 23.9549Z" fill="black"/>
<path d="M14.3925 23.9549C14.4734 24.0762 14.5993 24.1605 14.7423 24.1891C14.8854 24.2176 15.0339 24.1882 15.1553 24.1072L15.9501 23.577V24.1996C15.9501 24.5034 16.1963 24.7496 16.5001 24.7496C16.8038 24.7496 17.0501 24.5034 17.0501 24.1996V23.577L17.8448 24.1072C18.0083 24.2163 18.2175 24.2298 18.3937 24.1428C18.5699 24.0557 18.6863 23.8813 18.699 23.6852C18.7117 23.4891 18.6188 23.3011 18.4553 23.192L17.4901 22.5496L18.4537 21.9072C18.6171 21.7982 18.71 21.6102 18.6973 21.4141C18.6846 21.2179 18.5683 21.0435 18.3921 20.9565C18.2159 20.8694 18.0066 20.883 17.8432 20.992L17.0501 21.5222V20.8996C17.0501 20.5959 16.8038 20.3496 16.5001 20.3496C16.1963 20.3496 15.9501 20.5959 15.9501 20.8996V21.5222L15.1553 20.992C14.9026 20.8234 14.561 20.8916 14.3925 21.1444C14.2239 21.3971 14.2921 21.7386 14.5448 21.9072L15.5101 22.5496L14.5465 23.192C14.4248 23.2727 14.3402 23.3984 14.3113 23.5415C14.2825 23.6846 14.3116 23.8333 14.3925 23.9549Z" fill="black"/>
<path d="M8.79998 14.2998H7.14998C6.84622 14.2998 6.59998 14.546 6.59998 14.8498V16.4998C6.59998 16.8036 6.84622 17.0498 7.14998 17.0498C7.45373 17.0498 7.69998 16.8036 7.69998 16.4998V15.3998H8.79998C9.10373 15.3998 9.34998 15.1536 9.34998 14.8498C9.34998 14.546 9.10373 14.2998 8.79998 14.2998Z" fill="black"/>
<path d="M26.95 24.7504H30.25C30.5538 24.7504 30.8 24.5041 30.8 24.2004C30.8 23.8966 30.5538 23.6504 30.25 23.6504H26.95C26.6463 23.6504 26.4 23.8966 26.4 24.2004C26.4 24.5041 26.6463 24.7504 26.95 24.7504Z" fill="black"/>
</g>
<defs>
<clipPath id="clip0_1032_6">
<rect width="33" height="33" fill="white"/>
</clipPath>
</defs>
</svg>
