<svg width="14" height="14" viewBox="0 0 14 14" fill="none" xmlns="http://www.w3.org/2000/svg">
<g id="question 1">
<path id="Vector" d="M7.65625 9.84375C7.65625 9.97354 7.61776 10.1004 7.54565 10.2083C7.47354 10.3163 7.37105 10.4004 7.25114 10.45C7.13122 10.4997 6.99927 10.5127 6.87197 10.4874C6.74467 10.4621 6.62774 10.3996 6.53596 10.3078C6.44419 10.216 6.38168 10.0991 6.35636 9.97178C6.33104 9.84448 6.34404 9.71253 6.39371 9.59262C6.44338 9.4727 6.52749 9.37021 6.63541 9.2981C6.74333 9.22599 6.87021 9.1875 7 9.1875C7.17405 9.1875 7.34097 9.25664 7.46404 9.37971C7.58711 9.50278 7.65625 9.6697 7.65625 9.84375ZM7 3.9375C5.7936 3.9375 4.8125 4.8207 4.8125 5.90625V6.125C4.8125 6.24103 4.8586 6.35231 4.94064 6.43436C5.02269 6.51641 5.13397 6.5625 5.25 6.5625C5.36603 6.5625 5.47731 6.51641 5.55936 6.43436C5.64141 6.35231 5.6875 6.24103 5.6875 6.125V5.90625C5.6875 5.30469 6.27649 4.8125 7 4.8125C7.72352 4.8125 8.3125 5.30469 8.3125 5.90625C8.3125 6.50781 7.72352 7 7 7C6.88397 7 6.77269 7.04609 6.69064 7.12814C6.6086 7.21019 6.5625 7.32147 6.5625 7.4375V7.875C6.5625 7.99103 6.6086 8.10231 6.69064 8.18436C6.77269 8.26641 6.88397 8.3125 7 8.3125C7.11603 8.3125 7.22731 8.26641 7.30936 8.18436C7.39141 8.10231 7.4375 7.99103 7.4375 7.875V7.83563C8.435 7.65242 9.1875 6.85672 9.1875 5.90625C9.1875 4.8207 8.20641 3.9375 7 3.9375Z" fill="black" fill-opacity="0.5"/>
</g>
</svg>
