<svg width="510" height="512" viewBox="0 0 510 512" fill="none" xmlns="http://www.w3.org/2000/svg">
<path d="M477 437.5V397.5C477 397.5 477 397.5 477 397.5C477 397.5 477 372.816 477 357C477 342.387 477 319.58 477 319.58V319.58C475.432 319.31 477 319.58 477 319.58V319.58V45C477 20.187 456.813 0 432 0H132C107.187 0 87 20.187 87 45V45C87 57.1503 96.8497 67 109 67H345C378.084 67 405 93.916 405 127V267C405 300.084 378.084 327 345 327H127C104.909 327 87 344.909 87 367V467C87 491.813 107.187 512 132 512H437C459.091 512 477 494.091 477 472V467V437.5Z" fill="url(#paint0_linear_2077_15)"/>
<path d="M399.487 435.818L415.91 435.818L415.91 510.909C415.909 519.796 423.277 527 432.364 527L460.636 527C469.723 527 477.09 519.796 477.09 510.909L477.09 435.818L493.513 435.818C507.571 435.818 515.156 419.693 506.007 409.255L458.994 355.619C452.427 348.127 440.574 348.127 434.006 355.619L386.993 409.255C377.844 419.693 385.429 435.818 399.487 435.818Z" fill="white"/>
<path d="M406.76 431.697L420.468 431.697L420.468 496.182C420.468 503.813 426.617 510 434.202 510L457.798 510C465.383 510 471.532 503.813 471.532 496.182L471.532 431.697L485.24 431.697C496.973 431.697 503.303 417.849 495.667 408.886L456.428 362.825C450.947 356.392 441.054 356.392 435.572 362.825L396.333 408.886C388.697 417.849 395.027 431.697 406.76 431.697Z" fill="#F15642"/>
<path d="M192.012 157H173.708C173.729 169.221 173.762 189.202 173.762 196.889C173.762 206.052 173.82 225.167 173.858 236.951C180.354 236.914 188.381 236.856 192.666 236.781C213.092 236.424 222.395 215.909 222.395 197C222.395 177.663 214.414 157 192.012 157Z" fill="#F15642"/>
<path d="M94.917 157H77.103C77.122 163.62 77.143 171.699 77.143 175.22C77.143 179.372 77.179 187.155 77.211 193.508C83.376 193.475 90.854 193.441 94.917 193.441C105.093 193.441 113.69 185.097 113.69 175.221C113.69 165.345 105.093 157 94.917 157Z" fill="#F15642"/>
<path d="M380 267V127C380 110.431 366.569 97 350 97H30C13.431 97 0 110.431 0 127V267C0 283.569 13.431 297 30 297H350C366.569 297 380 283.569 380 267ZM94.917 213.44C90.836 213.44 83.257 213.475 77.073 213.508V247C77.073 252.523 72.596 257 67.073 257C61.55 257 57.073 252.523 57.073 247V147.032C57.065 144.374 58.115 141.823 59.99 139.941C61.866 138.059 64.415 137.001 67.073 137.001H94.917C116.296 137.001 133.69 154.147 133.69 175.221C133.69 196.295 116.297 213.44 94.917 213.44ZM229.655 238.145C220.644 249.905 207.633 256.522 193.016 256.778C184.964 256.919 164.786 256.997 163.931 257C163.918 257 163.906 257 163.893 257C161.254 257 158.722 255.957 156.848 254.097C154.966 252.228 153.903 249.688 153.893 247.036C153.892 246.673 153.763 210.637 153.763 196.889C153.763 185.487 153.691 147.019 153.691 147.018C153.686 144.363 154.737 141.814 156.613 139.935C158.489 138.056 161.035 137 163.69 137H192.012C222.148 137 242.395 161.112 242.395 197C242.395 212.81 237.871 227.422 229.655 238.145ZM312.926 157H282.395V186.053H309.706C315.229 186.053 319.706 190.53 319.706 196.053C319.706 201.576 315.229 206.053 309.706 206.053H282.395V247C282.395 252.523 277.918 257 272.395 257C266.872 257 262.395 252.523 262.395 247V147C262.395 144.348 263.449 141.804 265.324 139.929C267.199 138.054 269.743 137 272.395 137H312.926C318.449 137 322.926 141.477 322.926 147C322.926 152.523 318.449 157 312.926 157Z" fill="#F15642"/>
<defs>
<linearGradient id="paint0_linear_2077_15" x1="434" y1="35.5" x2="146.5" y2="468" gradientUnits="userSpaceOnUse">
<stop stop-color="#E2E5E7"/>
<stop offset="0.5" stop-color="#D4D8DB" stop-opacity="0.411458"/>
<stop offset="1" stop-color="#B0B7BD" stop-opacity="0.76"/>
</linearGradient>
</defs>
</svg>
