<svg width="21" height="22" viewBox="0 0 21 22" fill="none" xmlns="http://www.w3.org/2000/svg">
<path d="M18.5625 11.8125H15.1875V8.4375H16.875C17.3226 8.4375 17.7518 8.25971 18.0682 7.94324C18.3847 7.62677 18.5625 7.19755 18.5625 6.75V1.6875C18.5625 1.23995 18.3847 0.810725 18.0682 0.494257C17.7518 0.17779 17.3226 0 16.875 0H3.375C2.92745 0 2.49822 0.17779 2.18176 0.494257C1.86529 0.810725 1.6875 1.23995 1.6875 1.6875V6.75C1.6875 7.19755 1.86529 7.62677 2.18176 7.94324C2.49822 8.25971 2.92745 8.4375 3.375 8.4375H5.0625V11.8125H1.6875C1.23995 11.8125 0.810725 11.9903 0.494257 12.3068C0.17779 12.6232 0 13.0524 0 13.5V15.1875C0 15.6351 0.17779 16.0643 0.494257 16.3807C0.810725 16.6972 1.23995 16.875 1.6875 16.875H2.53125V21.0938C2.53125 21.3175 2.62015 21.5321 2.77838 21.6904C2.93661 21.8486 3.15122 21.9375 3.375 21.9375C3.59878 21.9375 3.81339 21.8486 3.97162 21.6904C4.12986 21.5321 4.21875 21.3175 4.21875 21.0938V16.875H16.0312V21.0938C16.0312 21.3175 16.1201 21.5321 16.2784 21.6904C16.4366 21.8486 16.6512 21.9375 16.875 21.9375C17.0988 21.9375 17.3134 21.8486 17.4716 21.6904C17.6299 21.5321 17.7188 21.3175 17.7188 21.0938V16.875H18.5625C19.0101 16.875 19.4393 16.6972 19.7557 16.3807C20.0722 16.0643 20.25 15.6351 20.25 15.1875V13.5C20.25 13.0524 20.0722 12.6232 19.7557 12.3068C19.4393 11.9903 19.0101 11.8125 18.5625 11.8125ZM13.5 11.8125H6.75V8.4375H13.5V11.8125Z" fill="black"/>
</svg>
