<svg width="28" height="20" viewBox="0 0 28 20" fill="none" xmlns="http://www.w3.org/2000/svg">
<path d="M26.3988 7.06C26.8505 6.96808 27.2567 6.72292 27.5484 6.36598C27.8402 6.00905 27.9998 5.56227 28 5.10125V2C28 1.46957 27.7893 0.960859 27.4142 0.585786C27.0391 0.210714 26.5304 0 26 0H2C1.46957 0 0.960863 0.210714 0.58579 0.585786C0.210717 0.960859 3.81093e-06 1.46957 3.81093e-06 2V5.10125C0.000256588 5.56227 0.159773 6.00905 0.451561 6.36598C0.743348 6.72292 1.14949 6.96808 1.60125 7.06C2.27676 7.20009 2.88335 7.56871 3.31883 8.10376C3.75431 8.63882 3.99208 9.30762 3.99208 9.9975C3.99208 10.6874 3.75431 11.3562 3.31883 11.8912C2.88335 12.4263 2.27676 12.7949 1.60125 12.935C1.14865 13.0271 0.741862 13.273 0.449977 13.631C0.158093 13.9889 -0.000897478 14.4369 3.81093e-06 14.8988V18C3.81093e-06 18.5304 0.210717 19.0391 0.58579 19.4142C0.960863 19.7893 1.46957 20 2 20H26C26.5304 20 27.0391 19.7893 27.4142 19.4142C27.7893 19.0391 28 18.5304 28 18V14.8988C27.9998 14.4377 27.8402 13.9909 27.5484 13.634C27.2567 13.2771 26.8505 13.0319 26.3988 12.94C25.7232 12.7999 25.1167 12.4313 24.6812 11.8962C24.2457 11.3612 24.0079 10.6924 24.0079 10.0025C24.0079 9.31262 24.2457 8.64382 24.6812 8.10876C25.1167 7.57371 25.7232 7.20509 26.3988 7.065V7.06ZM2 14.9C3.12962 14.6699 4.14502 14.0565 4.8743 13.1637C5.60358 12.2708 6.00194 11.1534 6.00194 10.0006C6.00194 8.84781 5.60358 7.7304 4.8743 6.83758C4.14502 5.94476 3.12962 5.33137 2 5.10125V2H9V18H2V14.9ZM26 14.9V18H11V2H26V5.1C24.8704 5.33012 23.855 5.94351 23.1257 6.83633C22.3964 7.72915 21.9981 8.84656 21.9981 9.99938C21.9981 11.1522 22.3964 12.2696 23.1257 13.1624C23.855 14.0552 24.8704 14.6686 26 14.8988V14.9Z" fill="black"/>
</svg>
