<svg width="20" height="20" viewBox="0 0 20 20" fill="none" xmlns="http://www.w3.org/2000/svg">
<path d="M14.0375 0H5.402C3.99521 0 2.64606 0.558845 1.65132 1.55359C0.656566 2.54834 0.0976564 3.89753 0.0976564 5.30431V13.9387C0.0975175 14.6353 0.234681 15.3251 0.501197 15.9688C0.767714 16.6124 1.15848 17.1972 1.65106 17.6897C2.14364 18.1823 2.72843 18.573 3.37204 18.8395C4.01565 19.1061 4.70539 19.2432 5.402 19.243H14.0375C15.4443 19.243 16.7934 18.6842 17.7882 17.6894C18.7829 16.6947 19.3418 15.3455 19.3418 13.9387V5.30431C19.3416 3.89761 18.7826 2.54861 17.7879 1.55392C16.7932 0.559228 15.4442 0.000280192 14.0375 0ZM17.7872 13.9165C17.7872 14.9169 17.3898 15.8763 16.6824 16.5836C15.9751 17.291 15.0157 17.6884 14.0153 17.6884H5.42522C4.92986 17.6885 4.4393 17.5911 3.98161 17.4016C3.52392 17.2121 3.10811 16.9342 2.75783 16.584C2.40755 16.2337 2.12967 15.8178 1.94017 15.3601C1.75066 14.9025 1.65324 14.4119 1.65338 13.9165V5.3265C1.65324 4.83113 1.75066 4.34059 1.94017 3.88291C2.12967 3.42522 2.40755 3.00935 2.75783 2.65908C3.10811 2.3088 3.52392 2.03097 3.98161 1.84146C4.4393 1.65196 4.92986 1.55449 5.42522 1.55463H14.0153C15.0157 1.55463 15.9751 1.95202 16.6824 2.65938C17.3898 3.36675 17.7872 4.32614 17.7872 5.3265V13.9165Z" fill="white"/>
<path d="M9.71932 4.55078C8.716 4.55078 7.73521 4.8483 6.90098 5.40571C6.06676 5.96312 5.41662 6.75539 5.03267 7.68234C4.64872 8.60928 4.54821 9.62926 4.74395 10.6133C4.93968 11.5973 5.42277 12.5012 6.13222 13.2107C6.84167 13.9201 7.74565 14.4033 8.72969 14.599C9.71373 14.7947 10.7337 14.6943 11.6607 14.3103C12.5876 13.9264 13.3799 13.2762 13.9373 12.442C14.4947 11.6077 14.7922 10.627 14.7922 9.62364C14.7922 8.95746 14.6609 8.2978 14.406 7.68234C14.151 7.06687 13.7775 6.50766 13.3064 6.0366C12.8354 5.56554 12.2761 5.19187 11.6607 4.93694C11.0452 4.682 10.3855 4.55078 9.71932 4.55078ZM9.71932 12.9305C9.06507 12.9307 8.42543 12.7369 7.88133 12.3736C7.33722 12.0103 6.91314 11.4938 6.66257 10.8894C6.41201 10.2851 6.34627 9.61998 6.4737 8.97827C6.60114 8.33655 6.91597 7.74705 7.37845 7.28428C7.84092 6.82151 8.43019 6.50627 9.07182 6.37842C9.71346 6.25058 10.3787 6.31588 10.9832 6.56605C11.5877 6.81623 12.1045 7.24005 12.4681 7.78392C12.8318 8.32778 13.026 8.96728 13.0262 9.62152C13.0264 10.0559 12.9409 10.4861 12.7748 10.8875C12.6087 11.2889 12.3651 11.6536 12.058 11.9609C11.7509 12.2681 11.3864 12.5119 10.9852 12.6783C10.5839 12.8447 10.1537 12.9304 9.71932 12.9305Z" fill="white"/>
<path d="M16.1007 4.38236C16.1007 4.60748 16.0339 4.82755 15.9088 5.01473C15.7838 5.20191 15.6059 5.3478 15.3979 5.43394C15.19 5.52009 14.9612 5.54263 14.7404 5.49871C14.5196 5.45479 14.3167 5.3464 14.1575 5.18721C13.9983 5.02803 13.89 4.82521 13.8461 4.60441C13.8022 4.38362 13.8247 4.15477 13.9109 3.94679C13.997 3.73881 14.1428 3.56103 14.33 3.43596C14.5172 3.31089 14.7373 3.24414 14.9624 3.24414C15.2643 3.24414 15.5537 3.36406 15.7672 3.57752C15.9806 3.79097 16.1007 4.08048 16.1007 4.38236Z" fill="white"/>
</svg>
