<svg width="23" height="21" viewBox="0 0 23 21" fill="none" xmlns="http://www.w3.org/2000/svg">
<g clip-path="url(#clip0_396_2315)">
<path d="M8.96484 8.28516V19.7695" stroke="white" stroke-width="2" stroke-linecap="round" stroke-linejoin="round"/>
<path d="M3.66992 8.28516V19.7695" stroke="white" stroke-width="2" stroke-linecap="round" stroke-linejoin="round"/>
<path d="M8.96484 13.3096C8.96484 11.977 9.45307 10.699 10.3221 9.75677C11.1912 8.81451 12.3699 8.28516 13.5989 8.28516C14.8279 8.28516 16.0066 8.81451 16.8757 9.75677C17.7447 10.699 18.2329 11.977 18.2329 13.3096V19.7695" stroke="white" stroke-width="2" stroke-linecap="round" stroke-linejoin="round"/>
<path d="M3.66869 4.33691C4.58273 4.33691 5.3237 3.53352 5.3237 2.54248C5.3237 1.55144 4.58273 0.748047 3.66869 0.748047C2.75465 0.748047 2.01367 1.55144 2.01367 2.54248C2.01367 3.53352 2.75465 4.33691 3.66869 4.33691Z" fill="white"/>
</g>
<defs>
<clipPath id="clip0_396_2315">
<rect width="23" height="21" fill="white"/>
</clipPath>
</defs>
</svg>
