<svg width="22" height="19" viewBox="0 0 22 19" fill="none" xmlns="http://www.w3.org/2000/svg">
<mask id="path-1-inside-1_396_2321" fill="white">
<path d="M22 2.24885C21.1765 2.6366 20.303 2.891 19.4085 3.0036C20.3507 2.40431 21.0561 1.46179 21.3935 0.351234C20.5073 0.909864 19.5377 1.30321 18.5266 1.51425C17.9073 0.813029 17.1041 0.325816 16.2211 0.115799C15.3381 -0.0942179 14.416 -0.0173421 13.5746 0.336459C12.7332 0.69026 12.0111 1.30465 11.5023 2.09993C10.9934 2.89522 10.7211 3.83469 10.7208 4.79648C10.7199 5.16448 10.7594 5.53134 10.8383 5.88966C9.04399 5.79419 7.28855 5.29877 5.68605 4.43555C4.08355 3.57233 2.66973 2.36062 1.53634 0.87903C0.959693 1.93418 0.782497 3.18304 1.04063 4.37205C1.29876 5.56105 1.97299 6.60109 2.92631 7.28099C2.21 7.25804 1.50925 7.05263 0.883153 6.68203V6.74246C0.883541 7.8496 1.24425 8.92252 1.90404 9.77923C2.56382 10.636 3.48204 11.2237 4.50306 11.4429C3.83874 11.6366 3.14149 11.665 2.46515 11.5261C2.7532 12.4793 3.31435 13.3129 4.07012 13.9103C4.82589 14.5077 5.7384 14.8391 6.68009 14.8581C4.78739 16.4314 2.38595 17.145 0 16.843C1.93931 18.1646 4.17761 18.9068 6.4799 18.9918C8.78218 19.0768 11.0635 18.5014 13.0844 17.326C15.1053 16.1506 16.7913 14.4186 17.9652 12.3117C19.1391 10.2049 19.7577 7.80105 19.756 5.35247C19.756 5.14566 19.756 4.93749 19.7421 4.73201C20.6261 4.05332 21.3889 3.21242 21.9949 2.24885"/>
</mask>
<path d="M19.4085 3.0036L18.8718 2.15983L19.5334 3.99577L19.4085 3.0036ZM21.3935 0.351234L22.3504 0.641958L23.1306 -1.92578L20.8603 -0.494725L21.3935 0.351234ZM18.5266 1.51425L17.7771 2.17623L18.1619 2.61193L18.7309 2.49315L18.5266 1.51425ZM10.7208 4.79648L11.7208 4.79882L11.7208 4.79687L10.7208 4.79648ZM10.8383 5.88966L10.7852 6.88824L12.0976 6.95807L11.8149 5.67453L10.8383 5.88966ZM1.53634 0.87903L2.33059 0.271442L1.39628 -0.949915L0.658832 0.399468L1.53634 0.87903ZM2.92631 7.28099L2.89428 8.28048L6.19843 8.38637L3.50696 6.46684L2.92631 7.28099ZM0.883153 6.68203L1.39252 5.82148L-0.116847 4.92806V6.68203H0.883153ZM0.883153 6.74246H-0.116847L-0.116847 6.74281L0.883153 6.74246ZM4.50306 11.4429L4.78295 12.4029L4.71291 10.4651L4.50306 11.4429ZM2.46515 11.5261L2.66633 10.5466L1.0224 10.209L1.50791 11.8154L2.46515 11.5261ZM6.68009 14.8581L7.31935 15.6271L9.38219 13.9123L6.70022 13.8583L6.68009 14.8581ZM0 16.843L0.125578 15.8509L-0.56314 17.6693L0 16.843ZM19.756 5.35247H18.756V5.35314L19.756 5.35247ZM19.7421 4.73201L19.1331 3.93884L18.7083 4.26506L18.7444 4.7995L19.7421 4.73201ZM21.574 1.34413C20.8447 1.68751 20.0727 1.9121 19.2836 2.01143L19.5334 3.99577C20.5332 3.86991 21.5083 3.58569 22.426 3.15358L21.574 1.34413ZM19.9452 3.84737C21.0975 3.11444 21.9464 1.97132 22.3504 0.641958L20.4367 0.0605099C20.1658 0.952264 19.6039 1.69418 18.8718 2.15983L19.9452 3.84737ZM20.8603 -0.494725C20.0735 0.00126051 19.215 0.349012 18.3223 0.535345L18.7309 2.49315C19.8603 2.2574 20.9412 1.81847 21.9268 1.19719L20.8603 -0.494725ZM19.2761 0.852268C18.5248 0.00156824 17.5427 -0.597778 16.4525 -0.857064L15.9897 1.08866C16.6656 1.24941 17.2898 1.62449 17.7771 2.17623L19.2761 0.852268ZM16.4525 -0.857064C15.3617 -1.11649 14.2229 -1.02095 13.187 -0.585365L13.9622 1.25828C14.6091 0.986265 15.3145 0.928059 15.9897 1.08866L16.4525 -0.857064ZM13.187 -0.585365C12.152 -0.150173 11.2741 0.601138 10.6599 1.56096L12.3446 2.6389C12.7482 2.00816 13.3143 1.53069 13.9622 1.25828L13.187 -0.585365ZM10.6599 1.56096C10.0462 2.52021 9.7212 3.64719 9.72076 4.79609L11.7208 4.79687C11.7211 4.02219 11.9406 3.27023 12.3446 2.6389L10.6599 1.56096ZM9.72076 4.79414C9.71973 5.23509 9.767 5.67488 9.8617 6.10478L11.8149 5.67453C11.7517 5.3878 11.7201 5.09388 11.7208 4.79882L9.72076 4.79414ZM10.8914 4.89107C9.24645 4.80355 7.6346 4.34932 6.16029 3.55516L5.2118 5.31594C6.94249 6.24822 8.84152 6.78483 10.7852 6.88824L10.8914 4.89107ZM6.16029 3.55516C4.68573 2.76086 3.38005 1.64332 2.33059 0.271442L0.742088 1.48662C1.95941 3.07793 3.48136 4.38381 5.2118 5.31594L6.16029 3.55516ZM0.658832 0.399468C-0.0346792 1.66846 -0.245098 3.16323 0.063391 4.5842L2.01786 4.15989C1.81009 3.20285 1.95407 2.19991 2.41385 1.35859L0.658832 0.399468ZM0.063391 4.5842C0.372014 6.00579 1.18139 7.2648 2.34566 8.09515L3.50696 6.46684C2.76459 5.93739 2.2255 5.11632 2.01786 4.15989L0.063391 4.5842ZM2.95834 6.28151C2.41293 6.26403 1.87602 6.10767 1.39252 5.82148L0.373782 7.54257C1.14249 7.99758 2.00707 8.25205 2.89428 8.28048L2.95834 6.28151ZM-0.116847 6.68203V6.74246H1.88315V6.68203H-0.116847ZM-0.116847 6.74281C-0.116383 8.06491 0.31395 9.35345 1.11176 10.3894L2.69632 9.16908C2.17456 8.49158 1.88347 7.63429 1.88315 6.74211L-0.116847 6.74281ZM1.11176 10.3894C1.91043 11.4265 3.03183 12.1499 4.29321 12.4206L4.71291 10.4651C3.93226 10.2976 3.21721 9.84545 2.69632 9.16908L1.11176 10.3894ZM4.22317 10.4828C3.71486 10.631 3.18275 10.6526 2.66633 10.5466L2.26397 12.5057C3.10023 12.6774 3.96262 12.6421 4.78295 12.4029L4.22317 10.4828ZM1.50791 11.8154C1.85297 12.9572 2.52824 13.9662 3.44999 14.6948L4.69025 13.1258C4.10046 12.6596 3.65343 12.0013 3.42239 11.2368L1.50791 11.8154ZM3.44999 14.6948C4.37269 15.4242 5.49481 15.8344 6.65997 15.8579L6.70022 13.8583C5.98198 13.8438 5.27909 13.5913 4.69025 13.1258L3.44999 14.6948ZM6.04084 14.0891C4.35553 15.49 2.22948 16.1172 0.125578 15.8509L-0.125578 17.8351C2.54241 18.1728 5.21925 17.3728 7.31935 15.6271L6.04084 14.0891ZM-0.56314 17.6693C1.52874 19.0949 3.94885 19.899 6.44301 19.9911L6.51679 17.9925C4.40638 17.9146 2.34989 17.2342 0.56314 16.0166L-0.56314 17.6693ZM6.44301 19.9911C8.93724 20.0832 11.4053 19.4594 13.5872 18.1904L12.5817 16.4615C10.7217 17.5433 8.62712 18.0704 6.51679 17.9925L6.44301 19.9911ZM13.5872 18.1904C15.7684 16.9218 17.5803 15.057 18.8387 12.7985L17.0917 11.825C16.0023 13.7801 14.4422 15.3794 12.5817 16.4615L13.5872 18.1904ZM18.8387 12.7985C20.097 10.5403 20.7578 7.96824 20.756 5.35181L18.756 5.35314C18.7575 7.63387 18.1812 9.86959 17.0917 11.825L18.8387 12.7985ZM20.756 5.35247C20.756 5.1516 20.7564 4.90942 20.7399 4.66452L18.7444 4.7995C18.7557 4.96555 18.756 5.13971 18.756 5.35247H20.756ZM20.3511 5.52518C21.3311 4.77275 22.1737 3.84291 22.8414 2.78122L21.1484 1.71648C20.6041 2.58194 19.921 3.3339 19.1331 3.93884L20.3511 5.52518Z" fill="white" mask="url(#path-1-inside-1_396_2321)"/>
</svg>
