<svg width="500" height="271" viewBox="0 0 500 271" fill="none" xmlns="http://www.w3.org/2000/svg">
<g opacity="0.8">
<path d="M500 225.4H0V225.65H500V225.4Z" fill="#EBEBEB"/>
<path d="M449.9 241.49H416.78V241.74H449.9V241.49Z" fill="#EBEBEB"/>
<path d="M331.22 244.21H322.53V244.46H331.22V244.21Z" fill="#EBEBEB"/>
<path d="M415.78 232.21H396.59V232.46H415.78V232.21Z" fill="#EBEBEB"/>
<path d="M95.65 233.89H52.46V234.14H95.65V233.89Z" fill="#EBEBEB"/>
<path d="M110.89 233.89H104.56V234.14H110.89V233.89Z" fill="#EBEBEB"/>
<path d="M225.15 238.11H131.47V238.36H225.15V238.11Z" fill="#EBEBEB"/>
<path d="M316.9 127.3H287.4L282.43 84.9399H311.94L316.9 127.3Z" fill="#E6E6E6"/>
<path d="M320.09 127.3H288.24L283.27 84.9399H315.12L320.09 127.3Z" fill="#F0F0F0"/>
<path d="M291.84 123.27L287.06 82.6699H313.63L318.41 123.27H291.84Z" fill="#E0E0E0"/>
<path d="M273.01 127.3H243.5L238.54 84.9399H268.05L273.01 127.3Z" fill="#E6E6E6"/>
<path d="M276.19 127.3H244.35L239.38 84.9399H271.23L276.19 127.3Z" fill="#F0F0F0"/>
<path d="M247.95 123.27L243.17 82.6699H269.74L274.52 123.27H247.95Z" fill="#FAFAFA"/>
<path d="M402.23 127.39H395.86V225.4H402.23V127.39Z" fill="#E6E6E6"/>
<path d="M404.23 127.39H399.81V225.4H404.23V127.39Z" fill="#F5F5F5"/>
<path d="M184.66 138.21L405.6 138.21V127.39L184.66 127.39V138.21Z" fill="#F5F5F5"/>
<path d="M181.82 138.21H175.45V225.4H181.82V138.21Z" fill="#E6E6E6"/>
<path d="M183.82 138.21H179.4V225.4H183.82V138.21Z" fill="#F5F5F5"/>
<path d="M166.89 138.21H160.52V225.4H166.89V138.21Z" fill="#E6E6E6"/>
<path d="M168.9 138.21H164.48V225.4H168.9V138.21Z" fill="#F5F5F5"/>
<path d="M387.3 138.21H380.93V225.4H387.3V138.21Z" fill="#E6E6E6"/>
<path d="M389.31 138.21H384.89V225.4H389.31V138.21Z" fill="#F5F5F5"/>
<path d="M184.66 127.39H160.52V138.21H184.66V127.39Z" fill="#E6E6E6"/>
<path d="M91.3399 113.55L87.3999 99.2898C87.5399 181.88 88.1199 186.64 88.1099 200.84H91.2599C91.6999 131.72 92.9199 131.29 91.3399 113.55Z" fill="#E0E0E0" fill-opacity="0.5"/>
<path d="M89.8999 225.45C104.59 225.45 116.99 216.65 120.01 204.77C120.746 201.59 121.798 198.491 123.15 195.52L123.38 195.04H56.3799L56.6099 195.52C57.9666 198.489 59.0187 201.588 59.7499 204.77C62.7999 216.65 75.1999 225.45 89.8999 225.45Z" fill="#FAFAFA"/>
<path d="M56.2801 198H123.52C125.39 198 127.02 196.14 127.52 193.47C128.19 189.65 126.23 185.93 123.52 185.93H56.2801C53.6001 185.93 51.6401 189.65 52.2801 193.47C52.7701 196.16 54.4101 198 56.2801 198Z" fill="#F0F0F0"/>
<path d="M100.24 127.49C103.87 113.08 83.2898 97.6298 58.5898 81.7698C58.7398 124.48 86.5498 181.79 100.24 127.49Z" fill="#E0E0E0" fill-opacity="0.5"/>
<path d="M90.4302 145.62C87.9402 134.18 75.8902 134.62 52.9102 132.06C68.0002 162.13 99.8002 188.72 90.4302 145.62Z" fill="#E0E0E0" fill-opacity="0.5"/>
<path d="M101.1 108C109.59 99.9399 94.52 80.9999 78.75 64.1099C70.56 96.6899 86.47 121.85 101.1 108Z" fill="#E0E0E0" fill-opacity="0.5"/>
<path d="M86.37 129.13C83.21 117.61 87.22 93.2798 120.25 91.5398C114.89 124.55 101 182.66 86.37 129.13Z" fill="#E0E0E0" fill-opacity="0.5"/>
<path d="M85.6098 153.56C86.6098 140 97.0598 123.94 131.24 135.49C116 161.79 83.1998 186.24 85.6098 153.56Z" fill="#E0E0E0" fill-opacity="0.5"/>
<path d="M442.12 144.39L445 134.06C444.9 193.88 444.48 197.33 444.49 207.62H442.21C441.86 157.55 441 157.24 442.12 144.39Z" fill="#F5F5F5"/>
<path d="M443.17 225.45C432.52 225.45 423.54 219.08 421.35 210.45C420.82 208.146 420.059 205.902 419.08 203.75L418.91 203.4H467.42L467.26 203.75C466.278 205.901 465.514 208.146 464.98 210.45C462.8 219.08 453.81 225.45 443.17 225.45Z" fill="#FAFAFA"/>
<path d="M467.52 205.58H418.81C417.46 205.58 416.28 204.23 415.94 202.3C415.46 199.53 416.87 196.84 418.81 196.84H467.52C469.46 196.84 470.88 199.53 470.4 202.3C470.06 204.23 468.88 205.58 467.52 205.58Z" fill="#F0F0F0"/>
<path d="M436 161.66C433.53 151.22 447.56 140.03 464.39 128.54C464.31 159.48 445.35 201 436 161.66Z" fill="#F5F5F5"/>
<path d="M442.71 174.79C444.41 166.5 452.62 166.79 468.28 164.96C458 186.75 436.33 206 442.71 174.79Z" fill="#F5F5F5"/>
<path d="M435.44 147.5C429.66 141.66 439.92 127.96 450.67 115.71C456.25 139.34 445.41 157.57 435.44 147.5Z" fill="#F5F5F5"/>
<path d="M445.48 162.85C447.63 154.5 444.9 136.85 422.39 135.62C426 159.53 435.5 201.62 445.48 162.85Z" fill="#F5F5F5"/>
<path d="M446 180.54C445.32 170.72 438.2 159.08 414.91 167.45C425.26 186.5 447.64 204.21 446 180.54Z" fill="#F5F5F5"/>
</g>
<g opacity="0.8">
<path d="M250 270.56C357.082 270.56 443.89 265.492 443.89 259.24C443.89 252.988 357.082 247.92 250 247.92C142.917 247.92 56.1099 252.988 56.1099 259.24C56.1099 265.492 142.917 270.56 250 270.56Z" fill="#F5F5F5"/>
</g>
<g opacity="0.3">
<path d="M389.56 5.6001H107.09V165.76H389.56V5.6001Z" fill="white"/>
<path d="M389.57 171.36V170.36C390.788 170.357 391.956 169.872 392.816 169.009C393.677 168.147 394.16 166.978 394.16 165.76H395.16C395.16 167.243 394.571 168.666 393.523 169.716C392.475 170.766 391.053 171.357 389.57 171.36ZM207.83 171.36H186.38V170.36H207.83V171.36ZM395.16 18.43H394.16V12.93H395.16V18.43ZM395.16 9.04H394.16V5.6C394.16 4.38173 393.677 3.21322 392.816 2.35084C391.956 1.48846 390.788 1.00265 389.57 1H374.66V0H389.57C391.053 0.00264907 392.475 0.593813 393.523 1.64373C394.571 2.69365 395.16 4.11652 395.16 5.6V9.04Z" fill="#8758FF"/>
<path d="M389.57 167.86H107.09C106.535 167.857 106.003 167.635 105.612 167.241C105.22 166.848 105 166.315 105 165.76V5.6C105 5.04477 105.22 4.51214 105.612 4.1186C106.003 3.72506 106.535 3.50264 107.09 3.5H389.57C390.125 3.50264 390.657 3.72506 391.048 4.1186C391.44 4.51214 391.66 5.04477 391.66 5.6V165.76C391.66 166.315 391.44 166.848 391.048 167.241C390.657 167.635 390.125 167.857 389.57 167.86ZM109.19 163.67H387.47V7.7H109.19V163.67Z" fill="#8758FF"/>
<path d="M286.19 37.45L291.91 136.68L276.68 146.36L216.85 149.81L210.62 41.7999L286.19 37.45Z" fill="#8758FF"/>
<path opacity="0.4" d="M278.17 138.78L276.68 146.36L291.91 136.68L278.17 138.78Z" fill="white"/>
<path d="M262.533 105.893C277.15 99.3577 283.701 82.2111 277.165 67.5948C270.63 52.9785 253.484 46.4274 238.867 52.9625C224.251 59.4977 217.7 76.6443 224.235 91.2605C230.77 105.877 247.917 112.428 262.533 105.893Z" fill="white"/>
<path d="M281.825 115.362L223.931 118.7L225.111 139.176L283.005 135.838L281.825 115.362Z" fill="white"/>
<path d="M278.614 124.924L249.223 126.619L249.327 128.416L278.718 126.721L278.614 124.924Z" fill="#8758FF"/>
<path d="M244.821 126.867L228.209 127.825L228.313 129.622L244.925 128.664L244.821 126.867Z" fill="#8758FF"/>
<path d="M265.685 131.627L228.546 133.768L228.65 135.565L265.788 133.424L265.685 131.627Z" fill="#8758FF"/>
<path d="M270.098 133.183L279.053 132.667L278.95 130.869L269.994 131.386L270.098 133.183Z" fill="#8758FF"/>
<path d="M278.267 118.972L227.871 121.878L227.975 123.675L278.371 120.769L278.267 118.972Z" fill="#8758FF"/>
<path d="M253.11 77.4301C253.11 77.5684 253.138 77.7053 253.193 77.8322C253.248 77.959 253.329 78.0731 253.431 78.1671C253.532 78.261 253.652 78.333 253.783 78.3782C253.914 78.4235 254.052 78.4412 254.19 78.4301L258.65 78.1801C258.81 78.1693 258.97 78.1902 259.122 78.2418C259.274 78.2934 259.413 78.3746 259.533 78.4806C259.653 78.5867 259.751 78.7155 259.821 78.8596C259.891 79.0037 259.931 79.1602 259.94 79.3201L260.07 81.5401C260.087 81.8631 259.975 82.1796 259.76 82.4211C259.545 82.6625 259.243 82.8095 258.92 82.8301L254.46 83.0801C254.325 83.088 254.193 83.1224 254.071 83.1815C253.949 83.2405 253.84 83.323 253.749 83.4242C253.659 83.5254 253.59 83.6434 253.546 83.7714C253.501 83.8993 253.482 84.0348 253.49 84.1701C253.498 84.3054 253.533 84.4377 253.592 84.5597C253.651 84.6816 253.733 84.7908 253.834 84.8808C253.936 84.9709 254.054 85.0402 254.182 85.0847C254.309 85.1291 254.445 85.148 254.58 85.1401L258.68 84.9001C258.874 84.8884 259.067 84.9231 259.245 85.0012C259.422 85.0792 259.579 85.1985 259.701 85.349C259.823 85.4996 259.908 85.6771 259.947 85.8668C259.987 86.0566 259.981 86.2531 259.93 86.4401C259.479 88.0316 258.545 89.444 257.257 90.4827C255.969 91.5215 254.391 92.1354 252.74 92.2401L250.15 92.3901C248.497 92.4757 246.859 92.0466 245.46 91.1618C244.061 90.2771 242.971 88.9803 242.34 87.4501C242.271 87.2699 242.245 87.0759 242.264 86.8837C242.284 86.6916 242.348 86.5067 242.452 86.3441C242.556 86.1815 242.697 86.0457 242.864 85.9477C243.03 85.8497 243.217 85.7923 243.41 85.7801L248.34 85.5001C248.475 85.4929 248.608 85.4591 248.73 85.4006C248.852 85.3422 248.962 85.2603 249.052 85.1595C249.143 85.0588 249.213 84.9412 249.258 84.8134C249.303 84.6857 249.322 84.5504 249.315 84.4151C249.308 84.2798 249.274 84.1473 249.216 84.0251C249.157 83.9029 249.075 83.7934 248.975 83.7029C248.874 83.6123 248.756 83.5425 248.629 83.4974C248.501 83.4524 248.365 83.4329 248.23 83.4401L242.92 83.7501C242.598 83.7665 242.283 83.6547 242.043 83.4392C241.803 83.2237 241.658 82.922 241.64 82.6001L241.51 80.3801C241.501 80.2203 241.523 80.0603 241.576 79.9092C241.629 79.7582 241.711 79.6191 241.818 79.5C241.925 79.381 242.055 79.2843 242.199 79.2157C242.344 79.147 242.5 79.1077 242.66 79.1001L247.96 78.7901C248.232 78.7742 248.486 78.6509 248.667 78.4474C248.848 78.244 248.941 77.9769 248.925 77.7051C248.909 77.4332 248.786 77.1789 248.583 76.9979C248.379 76.8169 248.112 76.7242 247.84 76.7401L242.54 77.0501C242.217 77.0665 241.901 76.9551 241.659 76.7398C241.418 76.5246 241.271 76.2229 241.25 75.9001L241.12 73.6801C241.104 73.3581 241.216 73.0427 241.431 72.8028C241.647 72.563 241.948 72.4182 242.27 72.4001L247.57 72.0901C247.835 72.0742 248.083 71.9536 248.26 71.7548C248.436 71.556 248.526 71.2953 248.51 71.0301C248.494 70.7649 248.374 70.5168 248.175 70.3406C247.976 70.1643 247.715 70.0742 247.45 70.0901L242.52 70.3801C242.327 70.3895 242.135 70.3534 241.959 70.2746C241.782 70.1959 241.627 70.0767 241.505 69.9267C241.383 69.7768 241.299 69.6002 241.258 69.4115C241.217 69.2227 241.221 69.0269 241.27 68.8401C241.72 67.2482 242.651 65.8347 243.937 64.7943C245.223 63.7538 246.8 63.1374 248.45 63.0301L251.05 62.8801C252.701 62.7966 254.338 63.2267 255.735 64.1113C257.132 64.9959 258.22 66.2916 258.85 67.8201C258.922 68.0008 258.949 68.1959 258.931 68.3894C258.912 68.5828 258.848 68.7692 258.744 68.9331C258.639 69.097 258.498 69.2338 258.33 69.3324C258.163 69.431 257.974 69.4884 257.78 69.5001L253.69 69.7301C253.556 69.7373 253.424 69.771 253.302 69.8292C253.181 69.8873 253.072 69.9689 252.982 70.0692C252.891 70.1695 252.822 70.2865 252.777 70.4137C252.732 70.5408 252.713 70.6755 252.72 70.8101C252.727 70.9447 252.761 71.0766 252.819 71.1982C252.877 71.3198 252.959 71.4287 253.059 71.5188C253.16 71.6088 253.277 71.6783 253.404 71.7231C253.531 71.768 253.666 71.7873 253.8 71.7801L258.27 71.5301C258.429 71.5206 258.588 71.5426 258.739 71.5948C258.889 71.6471 259.028 71.7285 259.147 71.8344C259.266 71.9403 259.363 72.0686 259.432 72.212C259.501 72.3554 259.541 72.5111 259.55 72.6701L259.68 74.8901C259.699 75.2121 259.59 75.5287 259.377 75.7705C259.163 76.0122 258.862 76.1595 258.54 76.1801L254.07 76.4301C253.812 76.4404 253.568 76.5503 253.389 76.7368C253.21 76.9232 253.11 77.1717 253.11 77.4301Z" fill="#8758FF"/>
<path d="M249.68 101.18C245.411 101.175 241.305 99.5393 238.201 96.6083C235.097 93.6773 233.23 89.6717 232.98 85.41C232.967 84.8659 233.165 84.3378 233.533 83.937C233.902 83.5362 234.411 83.2941 234.954 83.2617C235.498 83.2293 236.032 83.4091 236.446 83.7632C236.859 84.1173 237.119 84.6181 237.17 85.16C237.366 88.4786 238.87 91.5842 241.352 93.7961C243.833 96.008 247.091 97.1457 250.41 96.96L253.01 96.81C256.324 96.6165 259.427 95.1178 261.638 92.6419C263.85 90.1661 264.99 86.9149 264.81 83.6C264.8 83.0572 265.001 82.5315 265.37 82.1334C265.739 81.7352 266.248 81.4954 266.79 81.4644C267.332 81.4333 267.865 81.6134 268.277 81.9668C268.689 82.3203 268.948 82.8196 269 83.36C269.249 87.7903 267.73 92.1383 264.778 95.4507C261.825 98.7631 257.68 100.77 253.25 101.03L250.65 101.18H249.68Z" fill="#8758FF"/>
<path d="M252.51 112.99C251.971 112.988 251.454 112.78 251.065 112.407C250.677 112.035 250.445 111.528 250.42 110.99L249.74 99.0801C249.724 98.8057 249.762 98.5308 249.853 98.2712C249.943 98.0116 250.084 97.7724 250.267 97.5671C250.45 97.3619 250.672 97.1947 250.919 97.0751C251.167 96.9556 251.435 96.8859 251.71 96.8701C251.984 96.8544 252.259 96.8928 252.519 96.9833C252.778 97.0738 253.018 97.2145 253.223 97.3974C253.428 97.5804 253.595 97.8019 253.715 98.0495C253.834 98.297 253.904 98.5657 253.92 98.8401L254.61 110.75C254.626 111.028 254.587 111.306 254.495 111.568C254.403 111.83 254.26 112.071 254.074 112.278C253.888 112.484 253.662 112.652 253.411 112.771C253.16 112.89 252.887 112.957 252.61 112.97L252.51 112.99Z" fill="#8758FF"/>
<path opacity="0.4" d="M131.259 20.156L122.489 127.98L197.94 134.117L206.71 26.2929L131.259 20.156Z" fill="#8758FF"/>
<path d="M138.63 26.6799L132.125 106.656L191.858 111.514L198.363 31.5383L138.63 26.6799Z" fill="white"/>
<path d="M201.21 40.7501L194.15 34.2301C194.025 34.116 193.874 34.0336 193.71 33.9897C193.547 33.9459 193.375 33.9419 193.209 33.9781C193.044 34.0144 192.889 34.0898 192.759 34.198C192.629 34.3062 192.526 34.4441 192.46 34.6001L190.13 40.1201V40.2101L186.3 49.2801C186.23 49.2001 186.18 49.1201 186.1 49.0401C185.094 48.0889 183.85 47.4257 182.5 47.1201C179.3 46.3501 176.39 47.4401 175.86 49.6201C175.33 51.8001 177.42 54.1001 180.62 54.8801C181.216 55.0268 181.826 55.1073 182.44 55.1201C184.77 55.1801 186.68 54.2001 187.2 52.5601L191.5 42.3801L197.45 47.8801C197.576 47.9931 197.726 48.0747 197.89 48.1181C198.053 48.1616 198.225 48.1657 198.39 48.1301C198.557 48.0992 198.714 48.026 198.845 47.9175C198.977 47.809 199.078 47.6688 199.14 47.5101L201.49 41.9501C201.574 41.7459 201.592 41.5204 201.542 41.3053C201.492 41.0901 201.376 40.896 201.21 40.7501ZM197.76 45.2901L192.35 40.2901L193.82 36.8001L199.23 41.8001L197.76 45.2901Z" fill="#8758FF"/>
<path d="M179.1 107.26L184.18 82.49L186.62 70.6C186.713 70.1646 186.666 69.7109 186.487 69.3035C186.307 68.896 186.004 68.5554 185.62 68.33L159.87 53.33C159.578 53.1595 159.25 53.0611 158.912 53.0427C158.574 53.0243 158.237 53.0866 157.929 53.2244C157.62 53.3622 157.348 53.5715 157.136 53.8351C156.924 54.0986 156.778 54.4088 156.71 54.74L150.27 86.14C147.819 84.4154 144.907 83.4677 141.91 83.42C135.29 83.15 129.96 86.42 129.78 90.97C129.68 93.28 131 95.52 133.39 97.12C133.72 97.34 134.07 97.54 134.39 97.74C136.507 98.8172 138.836 99.4114 141.21 99.48C143.982 99.6328 146.743 99.0424 149.21 97.77C150.259 97.2564 151.169 96.499 151.865 95.5612C152.561 94.6235 153.022 93.5326 153.21 92.38C153.231 92.3452 153.247 92.3083 153.26 92.27L157.74 70.41L179.61 83.2L175.92 101.2C175.75 101.07 175.62 100.93 175.44 100.81C173.078 99.3279 170.358 98.5124 167.57 98.45C160.95 98.18 155.57 101.45 155.43 105.99C155.32 108.75 157.16 111.21 160.12 112.77C162.227 113.845 164.546 114.439 166.91 114.51C169.683 114.666 172.446 114.071 174.91 112.79C175.959 112.279 176.869 111.523 177.565 110.587C178.261 109.651 178.723 108.561 178.91 107.41C178.91 107.41 179.09 107.3 179.1 107.26ZM158.73 65.94L160.27 58.43L182.15 71.21L180.61 78.73L158.73 65.94Z" fill="#8758FF"/>
<path d="M166.96 42.74L170.96 35.98L172.89 32.73C172.958 32.6097 172.988 32.4716 172.975 32.334C172.963 32.1965 172.909 32.066 172.82 31.96L166.82 24.96C166.753 24.8784 166.667 24.8147 166.569 24.7746C166.471 24.7344 166.365 24.7191 166.26 24.73C166.156 24.7406 166.056 24.7749 165.968 24.8304C165.879 24.8859 165.805 24.961 165.75 25.05L160.63 33.6C160.081 32.8502 159.323 32.2796 158.45 31.96C156.53 31.21 154.63 31.64 154.12 32.96C153.999 33.3304 153.976 33.7258 154.053 34.1078C154.131 34.4898 154.305 34.8453 154.56 35.14C154.634 35.2414 154.714 35.3383 154.8 35.43C155.316 35.9509 155.941 36.3505 156.63 36.6C157.433 36.9332 158.311 37.0404 159.17 36.91C159.53 36.8678 159.874 36.7394 160.174 36.5357C160.473 36.332 160.719 36.059 160.89 35.74L164.43 29.74L169.56 35.74L166.66 40.6C166.633 40.5431 166.599 40.4895 166.56 40.4399C166.017 39.7635 165.302 39.2454 164.49 38.9399C162.57 38.1899 160.67 38.62 160.16 39.9399C160.027 40.3746 160.022 40.8381 160.144 41.2758C160.266 41.7135 160.511 42.1071 160.85 42.41C161.361 42.9371 161.982 43.3437 162.67 43.6C163.473 43.9312 164.35 44.0417 165.21 43.92C165.57 43.8743 165.914 43.7434 166.213 43.5382C166.512 43.3329 166.758 43.0593 166.93 42.74H166.96ZM165.16 28.54L166.38 26.54L171.51 32.54L170.29 34.54L165.16 28.54Z" fill="#8758FF"/>
<path d="M135.822 115.208L135.606 117.859L186.608 122.008L186.823 119.356L135.822 115.208Z" fill="white"/>
<path d="M135.377 120.722L135.161 123.374L186.163 127.522L186.378 124.871L135.377 120.722Z" fill="white"/>
<path opacity="0.7" d="M302.425 23.7023L297.423 131.767L373.042 135.267L378.044 27.2022L302.425 23.7023Z" fill="#8758FF"/>
<path d="M308.663 59.2881L305.552 126.516L365.418 129.287L368.529 62.0589L308.663 59.2881Z" fill="white"/>
<path d="M352.192 108.098C361.298 99.7977 361.951 85.6869 353.65 76.5808C345.35 67.4747 331.239 66.8216 322.133 75.1221C313.027 83.4225 312.374 97.5333 320.674 106.639C328.975 115.746 343.086 116.399 352.192 108.098Z" fill="white"/>
<path d="M338.21 68.95C333.729 68.7427 329.288 69.8693 325.447 72.1872C321.607 74.5052 318.541 77.9102 316.637 81.9715C314.732 86.0327 314.076 90.5677 314.75 95.0023C315.424 99.4369 317.398 103.572 320.423 106.884C323.448 110.196 327.388 112.536 331.743 113.609C336.099 114.681 340.674 114.437 344.891 112.908C349.108 111.378 352.776 108.632 355.432 105.018C358.088 101.403 359.611 97.0812 359.81 92.6C360.068 86.6031 357.94 80.7481 353.892 76.3159C349.844 71.8838 344.206 69.2353 338.21 68.95ZM331.09 111.54L328.79 103.17L332.25 98.84L341.31 99.26L344.31 103.89L341.33 112.01L331.09 111.54ZM350.33 88.28C350.325 88.3131 350.325 88.3469 350.33 88.38L344.6 89.95L337.8 84.52L338.08 78.38L345.44 73.54L353.44 79.96L350.33 88.28ZM330.64 72.86L337.51 78.36L337.23 84.49L329.96 89.27L324.33 87.18C324.33 87.18 324.33 87.11 324.33 87.08L321.97 78.51L330.64 72.86ZM323.99 87.6L329.55 89.7C329.55 89.7 329.55 89.76 329.55 89.8L331.9 98.34L328.44 102.67L319.56 102.26L316.84 92.35L323.99 87.6ZM353.74 103.83L344.86 103.42L341.86 98.79L344.98 90.5C344.98 90.5 344.98 90.43 344.98 90.4L350.71 88.83L357.43 94.2L353.74 103.83ZM355.53 79.6L353.86 79.52L345.72 73.01L345.22 71.16C349.444 72.8434 353.045 75.7913 355.53 79.6ZM331.03 70.5L330.35 72.3L321.65 78.03L319.97 77.96C322.804 74.4045 326.667 71.8099 331.03 70.53V70.5ZM316.21 92.42L318.97 102.42L318.65 103.27C316.414 99.7727 315.221 95.7109 315.21 91.56L316.21 92.42ZM336.14 113.48C334.204 113.4 332.287 113.064 330.44 112.48L330.99 112.12L341.39 112.6L341.9 113.01C340.011 113.433 338.074 113.601 336.14 113.51V113.48ZM354.49 104.99L354.25 104.12L357.93 94.38L359 93.68C358.609 97.8127 357.044 101.747 354.49 105.02V104.99Z" fill="#8758FF"/>
<path d="M310.008 30.2248L308.956 52.9504L368.822 55.7213L369.874 32.9956L310.008 30.2248Z" fill="white"/>
<path opacity="0.7" d="M358.02 40.95C358.004 41.2931 357.854 41.6161 357.601 41.8484C357.348 42.0808 357.013 42.2036 356.67 42.19L322.33 40.6C321.986 40.5819 321.663 40.429 321.431 40.1744C321.199 39.9199 321.076 39.5842 321.09 39.24C321.108 38.8969 321.261 38.5749 321.516 38.3444C321.771 38.1139 322.107 37.9937 322.45 38.01L356.79 39.6C356.959 39.6077 357.126 39.6488 357.279 39.7208C357.433 39.7929 357.571 39.8945 357.685 40.0199C357.799 40.1453 357.888 40.292 357.945 40.4516C358.003 40.6112 358.028 40.7806 358.02 40.95Z" fill="#8758FF"/>
<path opacity="0.7" d="M357.75 46.7C357.744 46.8703 357.704 47.0377 357.632 47.1924C357.561 47.3472 357.459 47.4862 357.334 47.6015C357.208 47.7168 357.061 47.8061 356.901 47.8642C356.74 47.9223 356.57 47.948 356.4 47.94L322.02 46.35C321.677 46.3319 321.355 46.1787 321.124 45.9238C320.894 45.669 320.774 45.3332 320.79 44.99C320.798 44.8205 320.839 44.6543 320.911 44.5007C320.983 44.3471 321.085 44.2092 321.21 44.095C321.335 43.9807 321.482 43.8923 321.642 43.8348C321.801 43.7774 321.971 43.7519 322.14 43.76L356.52 45.35C356.69 45.3577 356.856 45.3987 357.009 45.4708C357.163 45.5428 357.301 45.6445 357.415 45.7699C357.529 45.8953 357.618 46.042 357.675 46.2016C357.733 46.3612 357.758 46.5306 357.75 46.7Z" fill="#8758FF"/>
<path opacity="0.1" d="M142.646 15.6835L124.653 28.1331L127.612 32.4092L145.605 19.9597L142.646 15.6835Z" fill="#263238"/>
<path opacity="0.1" d="M313.976 19.8654L295.983 32.3149L298.942 36.5911L316.935 24.1416L313.976 19.8654Z" fill="#263238"/>
<path opacity="0.1" d="M201.969 122.317L183.976 134.767L186.935 139.043L204.928 126.593L201.969 122.317Z" fill="#263238"/>
<path opacity="0.1" d="M376.008 122.651L358.015 135.101L360.973 139.377L378.966 126.927L376.008 122.651Z" fill="#263238"/>
<path opacity="0.1" d="M291.47 45.5313L271.801 33.2649L269.05 37.6771L288.718 49.9435L291.47 45.5313Z" fill="#263238"/>
<path opacity="0.1" d="M231.901 148.943L212.233 136.676L209.481 141.089L229.15 153.355L231.901 148.943Z" fill="#263238"/>
<path opacity="0.1" d="M383.851 35.3828L364.183 23.1165L361.431 27.5287L381.099 39.7951L383.851 35.3828Z" fill="#263238"/>
<path d="M208.426 43.2889L113.352 90.8359L122.629 109.386L217.702 61.8385L208.426 43.2889Z" fill="#8758FF"/>
<path opacity="0.2" d="M208.426 43.2889L113.352 90.8359L122.629 109.386L217.702 61.8385L208.426 43.2889Z" fill="black"/>
<path d="M301.966 112.258L197.353 93.397L193.673 113.808L298.286 132.669L301.966 112.258Z" fill="#8758FF"/>
<path opacity="0.2" d="M301.966 112.258L197.353 93.397L193.673 113.808L298.286 132.669L301.966 112.258Z" fill="black"/>
<path d="M386.268 94.8673L286.903 57.1021L279.535 76.489L378.9 114.254L386.268 94.8673Z" fill="#8758FF"/>
<path opacity="0.2" d="M386.268 94.8673L286.903 57.1021L279.535 76.489L378.9 114.254L386.268 94.8673Z" fill="black"/>
<path d="M145.141 81.1412L146.591 80.4333L150.592 88.6287L149.059 89.3775L142.713 85.7098L145.416 91.1558L143.966 91.8637L139.965 83.6683L141.403 82.9663L147.903 86.7368L145.141 81.1412ZM154.645 86.7686C152.716 87.7104 151.163 86.7774 150.297 85.0042C149.431 83.2309 149.651 81.4321 151.58 80.4903C153.509 79.5485 155.062 80.4815 155.928 82.2547C156.794 84.028 156.574 85.8268 154.645 86.7686ZM152.089 81.5327C151.082 82.0241 151.065 83.1748 151.639 84.349C152.212 85.5232 153.13 86.2176 154.136 85.7262C155.143 85.2348 155.136 84.0958 154.562 82.9216C153.989 81.7474 153.095 81.0413 152.089 81.5327ZM162.962 74.0873L159.08 75.9826L160.051 77.9716L163.394 76.3395L164.032 77.6455L160.689 79.2776L161.8 81.554L165.742 79.6295L166.386 80.9474L160.862 83.6442L156.861 75.4488L162.325 72.7813L162.962 74.0873ZM169.149 79.5684L164.015 74.5228L165.645 73.7272L167.96 76.0687L169.358 77.7159L169.37 77.71L168.943 75.5891L168.532 72.3174L170.09 71.5569L170.899 78.7143L169.149 79.5684ZM173.929 73.674C174.521 74.7649 175.387 75.2024 176.741 74.5414C177.328 74.2547 177.76 73.9547 178.194 73.5056L179.039 74.3246C178.279 75.1999 177.632 75.5456 177.045 75.8323C174.876 76.8911 173.232 76.1063 172.272 74.1413C171.319 72.1883 171.76 70.3559 173.545 69.4842C175.306 68.6243 176.973 69.5763 177.691 71.8371L173.929 73.674ZM176 71.5647C175.526 70.5942 174.773 70.1458 174.018 70.5144C173.227 70.9005 173.07 71.7934 173.496 72.7873L176 71.5647ZM181.925 73.3307L180.476 74.0385L177.539 68.0238L178.989 67.316L179.258 67.8671C179.731 67.0427 180.14 66.6053 180.895 66.2368C182.093 65.6518 183.044 66.0484 183.658 67.3065L185.7 71.488L184.25 72.1959L182.442 68.4936C182.121 67.8346 181.64 67.6094 180.957 67.9428C180.406 68.2119 180.054 68.7989 179.884 69.1492L181.925 73.3307ZM186.267 65.291L187.846 68.526C188.057 68.9573 188.396 69.0142 188.756 68.8387C188.911 68.7626 189.187 68.5983 189.265 68.5155L189.774 69.5579C189.504 69.7641 188.947 70.0808 188.695 70.2037C187.581 70.7477 186.94 70.3481 186.461 69.3656L184.817 65.9988L184.05 66.3732L183.709 65.1893L184.285 64.9085L183.571 63.4467L184.845 62.3794L185.734 64.2006L186.956 63.604L187.297 64.7879L186.267 65.291ZM192.854 68.2472C192.075 68.6275 191.208 68.8578 190.218 68.8961L189.692 67.8178C190.55 67.814 191.495 67.5605 192.022 67.3031C192.921 66.8644 192.95 66.3161 192.804 66.0165C192.57 65.5373 191.907 65.6383 191.131 65.7205C190.14 65.8482 188.934 65.9621 188.349 64.7639C187.752 63.5418 188.289 62.3304 189.99 61.4997C190.781 61.1136 191.563 60.9839 192.279 60.9906L192.799 62.057C191.959 62.0073 191.343 62.1744 190.9 62.3909C189.953 62.853 189.769 63.4774 189.944 63.8368C190.19 64.34 190.93 64.2159 191.778 64.1285C192.763 64.0185 193.89 63.9576 194.417 65.036C195.031 66.294 194.316 67.5335 192.854 68.2472Z" fill="white"/>
<path d="M225.301 102.892L226.885 103.196L225.163 112.152L223.487 111.83L220.616 105.086L219.507 111.065L217.923 110.76L219.644 101.804L221.216 102.106L224.149 109.024L225.301 102.892ZM229.521 113.099C227.413 112.693 226.731 111.014 227.104 109.077C227.476 107.139 228.732 105.832 230.84 106.238C232.948 106.643 233.63 108.322 233.258 110.26C232.885 112.198 231.629 113.504 229.521 113.099ZM230.621 107.377C229.521 107.165 228.817 108.075 228.57 109.359C228.323 110.642 228.64 111.748 229.74 111.96C230.84 112.171 231.518 111.256 231.765 109.973C232.012 108.69 231.721 107.588 230.621 107.377ZM243.787 107.953L239.545 107.137L239.127 109.311L242.78 110.013L242.505 111.44L238.852 110.738L238.374 113.226L242.682 114.054L242.405 115.494L236.369 114.334L238.091 105.378L244.061 106.526L243.787 107.953ZM245.443 116.051L244.367 108.934L246.148 109.276L246.593 112.539L246.722 114.695L246.735 114.698L247.667 112.745L249.304 109.883L251.006 110.21L247.354 116.419L245.443 116.051ZM252.804 114.208C252.622 115.436 253.052 116.306 254.532 116.59C255.174 116.714 255.699 116.733 256.316 116.635L256.5 117.797C255.366 118.041 254.641 117.929 254 117.805C251.63 117.35 250.786 115.735 251.199 113.587C251.609 111.453 253.062 110.252 255.013 110.627C256.938 110.997 257.699 112.76 256.915 114.999L252.804 114.208ZM255.727 113.765C255.931 112.705 255.598 111.894 254.773 111.735C253.909 111.569 253.247 112.189 252.99 113.239L255.727 113.765ZM259.404 118.736L257.82 118.431L259.084 111.858L260.668 112.163L260.552 112.765C261.426 112.39 262.016 112.286 262.841 112.445C264.15 112.696 264.672 113.584 264.408 114.959L263.529 119.529L261.945 119.224L262.723 115.178C262.861 114.458 262.612 113.989 261.865 113.846C261.263 113.73 260.63 113.988 260.283 114.166L259.404 118.736ZM267.704 114.914L267.024 118.449C266.933 118.921 267.171 119.17 267.563 119.245C267.734 119.278 268.053 119.312 268.165 119.293L267.946 120.432C267.606 120.435 266.97 120.353 266.695 120.3C265.478 120.066 265.206 119.362 265.412 118.289L266.119 114.609L265.281 114.448L265.72 113.297L266.349 113.418L266.656 111.82L268.316 111.732L267.933 113.722L269.268 113.979L268.83 115.13L267.704 114.914ZM271.196 121.234C270.345 121.07 269.513 120.734 268.698 120.17L268.925 118.991C269.614 119.504 270.521 119.868 271.098 119.979C272.08 120.168 272.432 119.747 272.495 119.42C272.596 118.896 272.005 118.579 271.335 118.178C270.466 117.685 269.434 117.052 269.685 115.743C269.942 114.408 271.098 113.761 272.958 114.118C273.822 114.284 274.525 114.651 275.093 115.086L274.869 116.251C274.227 115.707 273.635 115.47 273.15 115.377C272.116 115.178 271.593 115.567 271.517 115.96C271.412 116.509 272.078 116.855 272.809 117.294C273.662 117.798 274.601 118.426 274.374 119.604C274.11 120.979 272.793 121.541 271.196 121.234Z" fill="white"/>
<path d="M310.893 72.2809L312.404 72.8468L309.206 81.3875L307.608 80.7889L305.907 73.6595L303.812 79.3673L302.301 78.8015L305.499 70.2608L306.998 70.8219L308.73 78.1339L310.893 72.2809ZM313.343 83.0509C311.333 82.2981 310.942 80.5286 311.634 78.6806C312.326 76.8326 313.783 75.7552 315.794 76.5081C317.804 77.2609 318.195 79.0304 317.503 80.8784C316.811 82.7264 315.354 83.8038 313.343 83.0509ZM315.387 77.5944C314.338 77.2016 313.491 77.9807 313.033 79.2043C312.574 80.428 312.701 81.5718 313.75 81.9646C314.799 82.3574 315.621 81.569 316.079 80.3453C316.538 79.1217 316.436 77.9872 315.387 77.5944ZM328.27 80.3689L324.224 78.8538L323.448 80.9265L326.932 82.2312L326.422 83.5922L322.938 82.2875L322.05 84.6599L326.158 86.1984L325.643 87.5719L319.887 85.4162L323.086 76.8755L328.779 79.0079L328.27 80.3689ZM328.545 88.6302L328.678 81.4329L330.376 82.0689L330.268 85.3601L330.033 87.5075L330.046 87.5122L331.292 85.7435L333.385 83.1958L335.008 83.8037L330.368 89.3129L328.545 88.6302ZM336.111 88.0467C335.726 89.2266 336.004 90.1566 337.415 90.685C338.027 90.9142 338.542 91.0216 339.166 91.0276L339.153 92.2043C337.995 92.2547 337.299 92.0225 336.687 91.7933C334.427 90.9469 333.866 89.2134 334.633 87.1656C335.395 85.1303 337.029 84.1902 338.889 84.887C340.725 85.5744 341.179 87.439 340.032 89.515L336.111 88.0467ZM339.067 88.1C339.446 87.0886 339.253 86.2336 338.467 85.9389C337.642 85.6303 336.886 86.13 336.457 87.1227L339.067 88.1ZM341.859 93.6165L340.348 93.0507L342.696 86.7825L344.207 87.3484L343.992 87.9227C344.915 87.6992 345.515 87.6958 346.301 87.9904C347.55 88.458 347.916 89.4207 347.425 90.7318L345.793 95.0896L344.282 94.5237L345.727 90.6654C345.984 89.9787 345.817 89.4747 345.105 89.2082C344.531 88.993 343.863 89.1416 343.491 89.2588L341.859 93.6165ZM350.682 91.2398L349.419 94.6111C349.251 95.0606 349.443 95.3461 349.817 95.4864C349.98 95.5472 350.289 95.6344 350.403 95.6344L349.996 96.7207C349.66 96.6662 349.047 96.4792 348.785 96.381C347.624 95.9461 347.473 95.2065 347.857 94.1826L349.171 90.6739L348.372 90.3747L348.997 89.3132L349.596 89.5377L350.167 88.0143L351.818 88.2056L351.107 90.1035L352.381 90.5805L351.756 91.6419L350.682 91.2398ZM353.065 98.0553C352.254 97.7514 351.49 97.2804 350.782 96.5878L351.202 95.464C351.796 96.0849 352.629 96.5964 353.179 96.8021C354.115 97.1529 354.533 96.7969 354.65 96.4847C354.837 95.9853 354.308 95.5735 353.715 95.0666C352.94 94.4349 352.029 93.6379 352.496 92.3892C352.973 91.1156 354.222 90.6719 355.995 91.3359C356.819 91.6445 357.451 92.1233 357.938 92.6475L357.522 93.7588C356.98 93.1145 356.435 92.7823 355.973 92.6093C354.987 92.2399 354.407 92.5351 354.266 92.9097C354.07 93.4341 354.669 93.8864 355.316 94.4417C356.073 95.0812 356.892 95.858 356.472 96.9818C355.981 98.2928 354.589 98.6258 353.065 98.0553Z" fill="white"/>
</g>
</svg>
