<svg width="117" height="51" viewBox="0 0 117 51" fill="none" xmlns="http://www.w3.org/2000/svg">
<mask id="mask0_599_176" style="mask-type:luminance" maskUnits="userSpaceOnUse" x="0" y="0" width="117" height="51">
<path d="M0 0.949707H117V50.0503H0V0.949707Z" fill="white"/>
</mask>
<g mask="url(#mask0_599_176)">
<mask id="mask1_599_176" style="mask-type:luminance" maskUnits="userSpaceOnUse" x="6" y="5" width="111" height="36">
<path d="M6.38867 5.09155H116.979V40.6153H6.38867V5.09155Z" fill="white"/>
</mask>
<g mask="url(#mask1_599_176)">
<mask id="mask2_599_176" style="mask-type:luminance" maskUnits="userSpaceOnUse" x="6" y="5" width="111" height="36">
<path d="M16.7705 5.09155H106.598C109.352 5.09155 111.991 6.185 113.939 8.13233C115.886 10.0797 116.979 12.7192 116.979 15.4734V30.2334C116.979 32.9876 115.886 35.6272 113.939 37.5745C111.991 39.5218 109.352 40.6153 106.598 40.6153H16.7705C14.0163 40.6153 11.3768 39.5218 9.42945 37.5745C7.48212 35.6272 6.38867 32.9876 6.38867 30.2334V15.4734C6.38867 12.7192 7.48212 10.0797 9.42945 8.13233C11.3768 6.185 14.0163 5.09155 16.7705 5.09155Z" fill="white"/>
</mask>
<g mask="url(#mask2_599_176)">
<path d="M6.38867 5.09155H116.979V40.6153H6.38867V5.09155Z" fill="white"/>
</g>
</g>
<mask id="mask3_599_176" style="mask-type:luminance" maskUnits="userSpaceOnUse" x="6" y="5" width="111" height="36">
<path d="M6.39307 5.09155H116.935V40.7255H6.39307V5.09155Z" fill="white"/>
</mask>
<g mask="url(#mask3_599_176)">
<mask id="mask4_599_176" style="mask-type:luminance" maskUnits="userSpaceOnUse" x="6" y="5" width="111" height="36">
<path d="M16.7734 5.09155H106.59C109.344 5.09155 111.984 6.185 113.931 8.13233C115.877 10.0782 116.971 12.7192 116.971 15.4719V30.2305C116.971 32.9832 115.877 35.6242 113.931 37.5701C111.984 39.5174 109.344 40.6109 106.59 40.6109H16.7734C14.0207 40.6109 11.3797 39.5174 9.43384 37.5701C7.48651 35.6242 6.39307 32.9832 6.39307 30.2305V15.4719C6.39307 12.7192 7.48651 10.0782 9.43384 8.13233C11.3797 6.185 14.0207 5.09155 16.7734 5.09155Z" fill="white"/>
</mask>
<g mask="url(#mask4_599_176)">
<path d="M16.7734 5.09155H106.59C109.344 5.09155 111.984 6.185 113.931 8.13233C115.877 10.0782 116.971 12.7192 116.971 15.4719V30.2305C116.971 32.9832 115.877 35.6242 113.931 37.5701C111.984 39.5174 109.344 40.6109 106.59 40.6109H16.7734C14.0207 40.6109 11.3797 39.5174 9.43384 37.5701C7.48651 35.6242 6.39307 32.9832 6.39307 30.2305V15.4719C6.39307 12.7192 7.48651 10.0782 9.43384 8.13233C11.3797 6.185 14.0207 5.09155 16.7734 5.09155Z" stroke="#5E17EB" stroke-width="1.94"/>
</g>
</g>
<mask id="mask5_599_176" style="mask-type:luminance" maskUnits="userSpaceOnUse" x="90" y="9" width="22" height="24">
<path d="M90.0461 9.22681H111.37V32.9299H90.0461V9.22681Z" fill="white"/>
</mask>
<g mask="url(#mask5_599_176)">
<path d="M96.73 30.0481L90.3266 32.789L92.03 26.3063C90.7425 24.4897 90.0459 22.3205 90.0459 20.0719C90.0459 14.1182 94.8753 9.28882 100.829 9.28882C106.783 9.28882 111.612 14.1182 111.612 20.0719C111.612 26.0256 106.783 30.8549 100.829 30.8549C99.4195 30.8549 98.0263 30.5816 96.73 30.0481ZM91.1702 31.8146L96.8006 29.4029L96.974 29.4734C98.1982 29.9775 99.5077 30.2333 100.829 30.2333C106.434 30.2333 110.979 25.689 110.979 20.0836C110.979 14.4783 106.434 9.93401 100.829 9.93401C95.2236 9.93401 90.6793 14.4783 90.6793 20.0836C90.6793 22.1897 91.326 24.234 92.5473 25.9491L92.6649 26.1167L91.1702 31.8146ZM100.829 11.2009C105.73 11.2009 109.698 15.1749 109.698 20.0719C109.698 24.9718 105.726 28.9414 100.829 28.9414C99.3607 28.9414 97.9763 28.5843 96.7594 27.9553L93.1719 29.4911L94.1199 25.8742C92.7736 24.3178 91.9594 22.2911 91.9594 20.0719C91.9594 15.1705 95.9334 11.2009 100.829 11.2009ZM102.772 22.7776C100.795 22.9289 98.4495 20.1674 98.1277 18.9843C97.7617 17.6543 98.5598 18.0202 98.9198 17.1178C99.6047 15.3924 97.2253 14.0036 96.3141 15.1661C94.2124 17.835 96.9402 24.4104 102.1 25.1393C103.455 25.3333 106.187 25.1393 106.061 23.458C105.973 22.2411 104.136 20.7215 102.776 22.7776H102.772Z" fill="#5E17EB"/>
</g>
<path d="M19.4504 32.7794C17.7059 32.7794 16.3788 32.365 15.4705 31.5331C14.5652 30.7028 14.1125 29.4741 14.1125 27.8472C14.1125 26.739 14.3389 25.7117 14.7945 24.7667C15.253 23.8232 15.8894 23.0839 16.7051 22.5504C17.5237 22.014 18.4584 21.745 19.5092 21.745C20.4807 21.745 21.364 22.0037 22.1605 22.521C22.9556 23.0384 23.6023 23.782 24.1005 24.7491C24.5973 25.7132 24.8471 26.7464 24.8471 27.8472C24.8471 29.5446 24.3915 30.7909 23.4832 31.586C22.5779 32.3826 21.2332 32.7794 19.4504 32.7794ZM19.4269 30.1693C20.1794 30.1693 20.7349 29.9694 21.0965 29.5696C21.4566 29.1699 21.6373 28.5614 21.6373 27.7413C21.6373 26.8213 21.4169 26.0218 20.9789 25.3428C20.5439 24.6609 20.0207 24.3199 19.4093 24.3199C18.7935 24.3199 18.2703 24.6521 17.8397 25.3134C17.412 25.9763 17.1989 26.786 17.1989 27.7413C17.1989 28.5644 17.3811 29.1758 17.7456 29.5755C18.113 29.9723 18.6744 30.1693 19.4269 30.1693ZM17.3694 20.1107C16.9299 20.1107 16.5816 19.9741 16.323 19.6992C16.0643 19.4259 15.935 19.0511 15.935 18.5764C15.935 18.0943 16.0613 17.7166 16.3171 17.4418C16.5713 17.164 16.9226 17.0244 17.3694 17.0244C17.8073 17.0244 18.1527 17.1626 18.404 17.4359C18.6539 17.7063 18.7803 18.087 18.7803 18.5764C18.7803 19.0629 18.6509 19.4406 18.3923 19.711C18.1336 19.9785 17.7926 20.1107 17.3694 20.1107ZM21.0083 20.1107C20.5689 20.1107 20.2206 19.9741 19.9619 19.6992C19.7032 19.4259 19.5739 19.0511 19.5739 18.5764C19.5739 18.0943 19.7003 17.7166 19.956 17.4418C20.2103 17.164 20.5615 17.0244 21.0083 17.0244C21.4551 17.0244 21.8034 17.164 22.0547 17.4418C22.3046 17.7166 22.431 18.0943 22.431 18.5764C22.431 19.0511 22.2987 19.4259 22.0371 19.6992C21.7784 19.9741 21.4345 20.1107 21.0083 20.1107Z" fill="#5E17EB"/>
<path d="M36.5903 29.9933C36.6564 29.9933 36.6902 30.0212 36.6902 30.0756V32.4623C36.6902 32.5329 36.6564 32.5681 36.5903 32.5681H33.8037V32.915C33.8037 34.3847 33.3952 35.5516 32.581 36.4187C31.7697 37.2844 30.6836 37.7179 29.3241 37.7179C28.5908 37.7179 27.9191 37.6297 27.3077 37.4534C26.6993 37.2799 26.0585 36.9669 25.3795 36.5128L26.667 34.4317C27.0432 34.6668 27.3753 34.8285 27.6663 34.9196C27.9559 35.0137 28.3027 35.0607 28.7069 35.0607C29.2786 35.0607 29.7386 34.8403 30.0884 34.4023C30.4367 33.9673 30.6116 33.4176 30.6116 32.7563V21.957H33.8037V29.9933H36.5903Z" fill="#5E17EB"/>
<path d="M40.2497 29.9932C40.3232 29.9932 40.3614 30.0211 40.3614 30.0755V32.4622C40.3614 32.5328 40.3232 32.568 40.2497 32.568H36.3756C36.305 32.568 36.2698 32.5328 36.2698 32.4622V30.0755C36.2698 30.0211 36.305 29.9932 36.3756 29.9932H40.2497Z" fill="#5E17EB"/>
<path d="M43.9118 29.9932C43.9853 29.9932 44.0235 30.0211 44.0235 30.0755V32.4622C44.0235 32.5328 43.9853 32.568 43.9118 32.568H40.0377C39.9672 32.568 39.9319 32.5328 39.9319 32.4622V30.0755C39.9319 30.0211 39.9672 29.9932 40.0377 29.9932H43.9118Z" fill="#5E17EB"/>
<path d="M47.5743 29.9932C47.6477 29.9932 47.686 30.0211 47.686 30.0755V32.4622C47.686 32.5328 47.6477 32.568 47.5743 32.568H43.7002C43.6296 32.568 43.5944 32.5328 43.5944 32.4622V30.0755C43.5944 30.0211 43.6296 29.9932 43.7002 29.9932H47.5743Z" fill="#5E17EB"/>
<path d="M51.236 29.9932C51.3095 29.9932 51.3477 30.0211 51.3477 30.0755V32.4622C51.3477 32.5328 51.3095 32.568 51.236 32.568H47.3619C47.2914 32.568 47.2561 32.5328 47.2561 32.4622V30.0755C47.2561 30.0211 47.2914 29.9932 47.3619 29.9932H51.236Z" fill="#5E17EB"/>
<path d="M54.8984 29.9932C54.9718 29.9932 55.0101 30.0211 55.0101 30.0755V32.4622C55.0101 32.5328 54.9718 32.568 54.8984 32.568H51.0243C50.9537 32.568 50.9185 32.5328 50.9185 32.4622V30.0755C50.9185 30.0211 50.9537 29.9932 51.0243 29.9932H54.8984Z" fill="#5E17EB"/>
<path d="M58.5603 29.9932C58.6338 29.9932 58.672 30.0211 58.672 30.0755V32.4622C58.672 32.5328 58.6338 32.568 58.5603 32.568H54.6863C54.6157 32.568 54.5804 32.5328 54.5804 32.4622V30.0755C54.5804 30.0211 54.6157 29.9932 54.6863 29.9932H58.5603Z" fill="#5E17EB"/>
<path d="M62.2226 29.9932C62.2961 29.9932 62.3343 30.0211 62.3343 30.0755V32.4622C62.3343 32.5328 62.2961 32.568 62.2226 32.568H58.3485C58.2779 32.568 58.2427 32.5328 58.2427 32.4622V30.0755C58.2427 30.0211 58.2779 29.9932 58.3485 29.9932H62.2226Z" fill="#5E17EB"/>
<path d="M64.4269 29.9933C64.0462 29.1159 63.8566 28.1326 63.8566 27.0421C63.8566 26.4234 63.9595 25.7547 64.1682 25.0375C64.3754 24.3173 64.6341 23.6971 64.9442 23.1798C65.6335 22.7845 66.3669 22.4832 67.1429 22.2745C67.9218 22.0628 68.6037 21.957 69.1887 21.957C70.1675 21.957 71.0552 22.1672 71.8517 22.5861C72.6512 23.002 73.27 23.5913 73.7094 24.3556C74.1518 25.1198 74.3737 26.0075 74.3737 27.0186C74.3737 27.8034 74.24 28.5397 73.9739 29.229C74.2326 29.5083 74.5265 29.7052 74.8558 29.8228C75.1879 29.9374 75.6053 29.9933 76.1079 29.9933H76.2255C76.296 29.9933 76.3313 30.0212 76.3313 30.0756V32.4623C76.3313 32.5329 76.296 32.5681 76.2255 32.5681H76.1079C75.3554 32.5681 74.7 32.4623 74.1444 32.2507C73.5918 32.0361 73.0657 31.6628 72.5689 31.1337C72.0281 31.6084 71.4049 31.967 70.6995 32.2095C69.994 32.4491 69.268 32.5681 68.5244 32.5681H62.0107C61.9402 32.5681 61.9049 32.5329 61.9049 32.4623V30.0756C61.9049 30.0212 61.9402 29.9933 62.0107 29.9933H64.4269ZM66.8136 27.4948C66.8136 28.2208 66.9783 29.0527 67.3075 29.9933H68.1128C68.9785 29.9933 69.7016 29.7052 70.2821 29.1291C70.8656 28.55 71.158 27.8461 71.158 27.0186C71.158 26.2588 70.9714 25.6548 70.5996 25.208C70.2307 24.7582 69.7413 24.5319 69.1299 24.5319C68.4861 24.5319 67.8204 24.7303 67.1311 25.1257C66.9195 25.8781 66.8136 26.6688 66.8136 27.4948Z" fill="#5E17EB"/>
<path d="M76.0003 32.5678C75.9298 32.5678 75.8945 32.5325 75.8945 32.462V30.0752C75.8945 30.0208 75.9298 29.9929 76.0003 29.9929H78.6811V21.9567H81.8732V32.5678H76.0003ZM80.2507 20.1107C79.8039 20.1107 79.4512 19.9741 79.1925 19.6992C78.9338 19.4259 78.8045 19.0511 78.8045 18.5764C78.8045 18.0943 78.9309 17.7166 79.1866 17.4418C79.4409 17.164 79.7951 17.0244 80.2507 17.0244C80.6813 17.0244 81.0237 17.1626 81.2794 17.4359C81.5337 17.7063 81.6616 18.087 81.6616 18.5764C81.6616 19.0511 81.5293 19.4259 81.2677 19.6992C81.009 19.9741 80.6695 20.1107 80.2507 20.1107Z" fill="#5E17EB"/>
</g>
</svg>
