<svg width="380" height="179" viewBox="0 0 380 179" fill="none" xmlns="http://www.w3.org/2000/svg">
<path d="M173.889 57.0166L151.445 43C151.445 43 141.945 53.986 140.223 62.3202C138.5 70.6544 139.102 117.629 139.102 117.629C139.102 117.629 198.103 165.994 203.813 169.528C210.545 173.695 234.565 149.072 237.103 141.874C242.714 125.963 241.967 97.5512 241.967 97.5512L215.035 82.0192C215.035 82.0192 216.53 122.175 213.165 131.646C208.961 143.474 196.845 148.805 184.736 146.041C174.357 143.672 166.98 137.034 165.66 126.342C163.788 111.189 164.537 87.3228 165.66 69.5179C166.029 63.6624 173.889 57.0166 173.889 57.0166Z" fill="black" stroke="black"/>
<path d="M60.0526 62.041L38.5789 44.571L1 122.046V145.973H62.3534V168H89.5789V145.973H103V122.046H89.5789V87.1066H62.3534V122.046H31.6767L60.0526 62.041Z" fill="black"/>
<path d="M68.4887 62.041L47.782 44.571L55.0677 29H84.9774L68.4887 62.041Z" fill="black"/>
<path d="M60.0526 62.041L38.5789 44.571L1 122.046V145.973H62.3534V168H89.5789V145.973H103V122.046H89.5789V87.1066H62.3534V122.046H31.6767L60.0526 62.041Z" stroke="black"/>
<path d="M68.4887 62.041L47.782 44.571L55.0677 29H84.9774L68.4887 62.041Z" stroke="black"/>
<path d="M282 115.306L324.008 28H353.413L309.496 122.198H340.047V86.9697H366.78V122.198H379V146.705H366.78V167L340.047 150.534V146.705H333.937L282 115.306Z" fill="black" stroke="black"/>
<path d="M270 121.854L273.724 116L324 148H270V121.854Z" fill="black" stroke="black"/>
<path d="M330 169V151L358 166.75V169H330Z" fill="black" stroke="black"/>
<path d="M203 175.955L138.69 124C138.69 124 133.017 147.512 154.2 166.095C175.383 184.677 203 175.955 203 175.955Z" fill="black" stroke="black"/>
<path d="M157.256 36.9872C164.032 27.7917 174.417 21.7644 186.386 20.0809C198.355 18.3975 211.048 21.1785 221.991 27.8816C232.934 34.5848 241.342 44.7293 245.574 56.3366C249.806 67.944 249.559 80.1817 244.882 90.6629L217.888 77.1606C219.822 72.8258 219.924 67.7645 218.174 62.9639C216.423 58.1634 212.946 53.9678 208.42 51.1955C203.895 48.4233 198.645 47.2731 193.695 47.9693C188.745 48.6656 184.45 51.1583 181.647 54.9614L157.256 36.9872Z" fill="black"/>
</svg>
