<svg width="17" height="50" viewBox="0 0 17 50" fill="none" xmlns="http://www.w3.org/2000/svg">
<g clip-path="url(#clip0_499_3684)">
<rect width="17" height="50" fill="white"/>
<mask id="path-1-inside-1_499_3684" fill="white">
<path d="M29 -4C25.1917 -4 21.4206 -3.24989 17.9022 -1.79251C14.3837 -0.335121 11.1868 1.80101 8.4939 4.4939C5.801 7.1868 3.66488 10.3837 2.20749 13.9022C0.750107 17.4206 0 21.1917 0 25C0 28.8083 0.750107 32.5794 2.20749 36.0978C3.66488 39.6163 5.80101 42.8132 8.4939 45.5061C11.1868 48.199 14.3837 50.3351 17.9022 51.7925C21.4206 53.2499 25.1917 54 29 54L29 25L29 -4Z"/>
</mask>
<g filter="url(#filter0_i_499_3684)">
<path d="M29 -4C25.1917 -4 21.4206 -3.24989 17.9022 -1.79251C14.3837 -0.335121 11.1868 1.80101 8.4939 4.4939C5.801 7.1868 3.66488 10.3837 2.20749 13.9022C0.750107 17.4206 0 21.1917 0 25C0 28.8083 0.750107 32.5794 2.20749 36.0978C3.66488 39.6163 5.80101 42.8132 8.4939 45.5061C11.1868 48.199 14.3837 50.3351 17.9022 51.7925C21.4206 53.2499 25.1917 54 29 54L29 25L29 -4Z" fill="white"/>
</g>
<path d="M29 -4C25.1917 -4 21.4206 -3.24989 17.9022 -1.79251C14.3837 -0.335121 11.1868 1.80101 8.4939 4.4939C5.801 7.1868 3.66488 10.3837 2.20749 13.9022C0.750107 17.4206 0 21.1917 0 25C0 28.8083 0.750107 32.5794 2.20749 36.0978C3.66488 39.6163 5.80101 42.8132 8.4939 45.5061C11.1868 48.199 14.3837 50.3351 17.9022 51.7925C21.4206 53.2499 25.1917 54 29 54L29 25L29 -4Z" stroke="white" stroke-width="2" mask="url(#path-1-inside-1_499_3684)"/>
</g>
<defs>
<filter id="filter0_i_499_3684" x="0" y="-4" width="29" height="59" filterUnits="userSpaceOnUse" color-interpolation-filters="sRGB">
<feFlood flood-opacity="0" result="BackgroundImageFix"/>
<feBlend mode="normal" in="SourceGraphic" in2="BackgroundImageFix" result="shape"/>
<feColorMatrix in="SourceAlpha" type="matrix" values="0 0 0 0 0 0 0 0 0 0 0 0 0 0 0 0 0 0 127 0" result="hardAlpha"/>
<feMorphology radius="3" operator="erode" in="SourceAlpha" result="effect1_innerShadow_499_3684"/>
<feOffset dy="1"/>
<feGaussianBlur stdDeviation="4"/>
<feComposite in2="hardAlpha" operator="arithmetic" k2="-1" k3="1"/>
<feColorMatrix type="matrix" values="0 0 0 0 0 0 0 0 0 0 0 0 0 0 0 0 0 0 0.08 0"/>
<feBlend mode="normal" in2="shape" result="effect1_innerShadow_499_3684"/>
</filter>
<clipPath id="clip0_499_3684">
<rect width="17" height="50" fill="white"/>
</clipPath>
</defs>
</svg>
