<svg width="252" height="285" viewBox="0 0 252 285" fill="none" xmlns="http://www.w3.org/2000/svg">
<path d="M248 190H31V222H248V190Z" fill="white"/>
<path d="M248 222H31V189H248V222ZM31.7338 221.331H247.266V189.723H31.7338V221.331Z" fill="#DBDBDB"/>
<path d="M50.5 198C51.0751 199.218 51.4663 200.479 51.6667 201.76C51.8883 203.002 51.9996 204.254 52 205.507C51.9966 206.759 51.8915 208.01 51.6852 209.253C51.4757 210.53 51.0784 211.786 50.5 213C49.9216 211.786 49.5242 210.53 49.3148 209.253C49.1085 208.01 49.0034 206.759 49 205.507C49.0004 204.254 49.1117 203.002 49.3333 201.76C49.5337 200.479 49.9249 199.218 50.5 198Z" fill="#37474F"/>
<path d="M58 206C56.7846 206.382 55.5273 206.642 54.25 206.778C53.006 206.919 51.7538 206.994 50.5 207C49.246 207 47.9934 206.925 46.75 206.778C45.4727 206.642 44.2154 206.382 43 206C44.2149 205.614 45.4723 205.349 46.75 205.21C49.2405 204.93 51.7595 204.93 54.25 205.21C55.5277 205.349 56.7851 205.614 58 206Z" fill="#37474F"/>
<path d="M56 200C55.4655 201.198 54.8183 202.331 54.069 203.38C53.3472 204.411 52.5655 205.39 51.7289 206.31C50.8952 207.228 50.0112 208.089 49.0818 208.887C48.1277 209.713 47.0942 210.422 46 211C46.5298 209.799 47.1773 208.666 47.931 207.62C48.6525 206.593 49.4342 205.619 50.2711 204.704C51.0996 203.775 51.9886 202.913 52.931 202.127C53.8785 201.294 54.908 200.58 56 200Z" fill="#37474F"/>
<path d="M56 211C54.9083 210.425 53.8789 209.716 52.931 208.887C51.9948 208.092 51.1063 207.231 50.2711 206.31C49.431 205.394 48.6491 204.415 47.931 203.38C47.1773 202.334 46.5298 201.201 46 200C47.0942 200.578 48.1277 201.287 49.0818 202.113C50.01 202.913 50.89 203.778 51.7161 204.704C52.5495 205.622 53.331 206.596 54.0562 207.62C54.8071 208.671 55.4584 209.803 56 211Z" fill="#37474F"/>
<path d="M79.9943 198C80.3835 199.218 80.65 200.479 80.7889 201.76C81.0704 204.248 81.0704 206.765 80.7889 209.253C80.6546 210.531 80.388 211.788 79.9943 213C79.6104 211.786 79.3481 210.529 79.212 209.253C79.0613 208.011 78.9908 206.76 79.001 205.507C78.997 204.254 79.0675 203.003 79.212 201.76C79.3526 200.48 79.6148 199.22 79.9943 198Z" fill="#37474F"/>
<path d="M87 205.975C85.8636 206.357 84.6879 206.618 83.4936 206.753C82.3393 206.902 81.177 206.984 80.0127 207C78.8402 207 77.6689 206.926 76.5063 206.778C75.312 206.642 74.1364 206.382 73 206C74.136 205.614 75.3116 205.349 76.5063 205.21C78.8393 204.93 81.1988 204.93 83.5317 205.21C84.7126 205.344 85.8753 205.601 87 205.975Z" fill="#37474F"/>
<path d="M84 200C83.4735 201.2 82.8295 202.334 82.0794 203.38C80.6308 205.443 78.9483 207.294 77.073 208.887C76.1216 209.712 75.0912 210.421 74 211C74.5265 209.8 75.1705 208.666 75.9206 207.62C76.6468 206.596 77.4293 205.622 78.2637 204.704C79.0933 203.775 79.9834 202.913 80.927 202.127C81.8778 201.297 82.9082 200.584 84 200Z" fill="#37474F"/>
<path d="M84 211C82.9088 210.421 81.8784 209.712 80.927 208.887C79.0517 207.294 77.3692 205.443 75.9206 203.38C75.1705 202.334 74.5265 201.2 74 200C75.0912 200.579 76.1216 201.288 77.073 202.113C78.0136 202.909 78.9034 203.774 79.7362 204.704C80.5707 205.622 81.3532 206.596 82.0794 207.62C82.8271 208.668 83.471 209.801 84 211Z" fill="#37474F"/>
<path d="M109.505 198C110.078 199.218 110.468 200.479 110.668 201.76C110.889 203.002 111 204.254 111 205.507C110.997 206.759 110.892 208.01 110.686 209.253C110.477 210.53 110.081 211.786 109.505 213C108.928 211.786 108.532 210.53 108.323 209.253C107.892 206.766 107.892 204.248 108.323 201.76C108.52 200.478 108.917 199.216 109.505 198Z" fill="#37474F"/>
<path d="M116 206C114.785 206.382 113.527 206.642 112.25 206.778C111.006 206.919 109.754 206.994 108.5 207C107.246 207 105.993 206.925 104.75 206.778C103.473 206.642 102.215 206.382 101 206C102.215 205.614 103.472 205.349 104.75 205.21C107.241 204.93 109.759 204.93 112.25 205.21C113.528 205.349 114.785 205.614 116 206Z" fill="#37474F"/>
<path d="M114 200C113.466 201.198 112.818 202.331 112.069 203.38C111.347 204.411 110.565 205.39 109.729 206.31C108.895 207.228 108.011 208.089 107.082 208.887C106.128 209.713 105.094 210.422 104 211C104.53 209.799 105.177 208.666 105.931 207.62C106.652 206.593 107.434 205.619 108.271 204.704C109.098 203.779 109.983 202.917 110.918 202.127C111.872 201.297 112.906 200.583 114 200Z" fill="#37474F"/>
<path d="M114 211C112.906 210.422 111.872 209.713 110.918 208.887C109.989 208.089 109.105 207.228 108.271 206.31C107.431 205.394 106.649 204.415 105.931 203.38C105.177 202.334 104.53 201.201 104 200C105.094 200.578 106.128 201.287 107.082 202.113C108.014 202.912 108.899 203.778 109.729 204.704C110.562 205.622 111.344 206.596 112.069 207.62C112.815 208.671 113.462 209.804 114 211Z" fill="#37474F"/>
<path d="M137.994 198C138.384 199.218 138.65 200.479 138.789 201.76C139.07 204.248 139.07 206.765 138.789 209.253C138.655 210.531 138.388 211.788 137.994 213C137.61 211.786 137.348 210.529 137.212 209.253C137.061 208.011 136.991 206.76 137.001 205.507C136.997 204.254 137.067 203.003 137.212 201.76C137.353 200.48 137.615 199.22 137.994 198Z" fill="#37474F"/>
<path d="M146 205.975C144.79 206.357 143.538 206.618 142.267 206.753C141.007 206.905 139.737 206.987 138.466 207C137.218 207 135.971 206.926 134.733 206.778C133.462 206.642 132.21 206.382 131 206C132.209 205.614 133.461 205.349 134.733 205.21C137.217 204.93 139.729 204.93 142.213 205.21C143.502 205.338 144.772 205.595 146 205.975Z" fill="#37474F"/>
<path d="M143 200C142.474 201.2 141.83 202.334 141.079 203.38C139.631 205.443 137.948 207.294 136.073 208.887C135.122 209.712 134.091 210.421 133 211C133.526 209.8 134.17 208.666 134.921 207.62C135.647 206.596 136.429 205.622 137.264 204.704C138.093 203.775 138.983 202.913 139.927 202.127C140.878 201.297 141.908 200.584 143 200Z" fill="#37474F"/>
<path d="M143 211C141.909 210.421 140.878 209.712 139.927 208.887C138.052 207.294 136.369 205.443 134.921 203.38C134.17 202.334 133.526 201.2 133 200C134.091 200.579 135.122 201.288 136.073 202.113C137.014 202.909 137.903 203.774 138.736 204.704C139.571 205.622 140.353 206.596 141.079 207.62C141.827 208.668 142.471 209.801 143 211Z" fill="#37474F"/>
<path d="M167.5 198C168.075 199.218 168.466 200.479 168.667 201.76C169.111 204.247 169.111 206.766 168.667 209.253C168.473 210.531 168.081 211.788 167.5 213C166.922 211.786 166.524 210.53 166.315 209.253C166.1 208.011 165.994 206.759 166 205.507C166.004 204.254 166.109 203.003 166.315 201.76C166.522 200.479 166.92 199.218 167.5 198Z" fill="#37474F"/>
<path d="M175 206C173.705 206.382 172.365 206.642 171.004 206.778C169.678 206.919 168.343 206.994 167.007 207C165.671 207 164.336 206.925 163.011 206.778C161.645 206.641 160.301 206.38 159 206C160.3 205.616 161.645 205.351 163.011 205.21C165.665 204.93 168.349 204.93 171.004 205.21C172.365 205.349 173.705 205.614 175 206Z" fill="#37474F"/>
<path d="M173 200C172.421 201.2 171.712 202.334 170.887 203.38C170.092 204.411 169.231 205.39 168.31 206.31C167.392 207.228 166.418 208.089 165.394 208.887C164.343 209.713 163.205 210.422 162 211C162.584 209.799 163.297 208.666 164.127 207.62C165.725 205.57 167.57 203.725 169.62 202.127C170.668 201.3 171.801 200.587 173 200Z" fill="#37474F"/>
<path d="M173 211C171.801 210.418 170.668 209.71 169.62 208.887C168.596 208.089 167.622 207.228 166.704 206.31C165.775 205.397 164.913 204.418 164.127 203.38C163.297 202.334 162.584 201.201 162 200C163.205 200.578 164.343 201.287 165.394 202.113C166.421 202.912 167.395 203.778 168.31 204.704C169.228 205.622 170.089 206.596 170.887 207.62C171.71 208.668 172.418 209.801 173 211Z" fill="#37474F"/>
<path d="M196.5 198C196.694 199.218 196.826 200.479 196.895 201.76C197.035 204.248 197.035 206.765 196.895 209.253C196.825 210.53 196.693 211.786 196.5 213C196.309 211.786 196.179 210.529 196.111 209.253C196.037 208.011 196 206.76 196 205.507C196.003 204.254 196.04 203.003 196.111 201.76C196.178 200.479 196.308 199.218 196.5 198Z" fill="#37474F"/>
<path d="M204 206C202.786 206.382 201.529 206.642 200.253 206.778C199.006 206.919 197.75 206.993 196.493 207C195.24 207 193.989 206.926 192.747 206.778C191.471 206.642 190.214 206.382 189 206C190.214 205.615 191.47 205.35 192.747 205.21C193.989 205.066 195.241 204.996 196.493 205C197.75 204.997 199.006 205.067 200.253 205.21C201.53 205.35 202.786 205.615 204 206Z" fill="#37474F"/>
<path d="M202 200C201.416 201.201 200.703 202.334 199.873 203.38C199.087 204.418 198.225 205.397 197.296 206.31C196.378 207.228 195.404 208.089 194.38 208.887C193.334 209.712 192.2 210.421 191 211C191.579 209.8 192.288 208.666 193.113 207.62C193.911 206.596 194.772 205.622 195.69 204.704C196.603 203.775 197.582 202.913 198.62 202.127C199.666 201.297 200.799 200.584 202 200Z" fill="#37474F"/>
<path d="M202 211C200.8 210.421 199.666 209.712 198.62 208.887C196.557 207.294 194.706 205.443 193.113 203.38C192.288 202.334 191.579 201.2 191 200C192.2 200.579 193.334 201.288 194.38 202.113C195.407 202.912 196.381 203.778 197.296 204.704C198.221 205.615 199.083 206.589 199.873 207.62C200.7 208.668 201.413 209.801 202 211Z" fill="#37474F"/>
<path d="M152.537 161.477C143.041 167.197 131.978 169.762 120.936 168.803C109.893 167.845 99.437 163.412 91.0678 156.14C82.6986 148.869 76.8458 139.132 74.3488 128.327C71.8518 117.522 72.8388 106.203 77.1684 95.9935C81.4979 85.7842 88.9475 77.2089 98.4489 71.4975C107.95 65.786 119.015 63.2317 130.057 64.2009C141.099 65.1701 151.551 69.613 159.913 76.8925C168.275 84.172 174.119 93.914 176.606 104.722C179.153 115.513 178.193 126.837 173.864 137.044C169.535 147.252 162.064 155.811 152.537 161.477Z" fill="white"/>
<path d="M141.999 110.683C141.963 113.947 140.959 117.126 139.116 119.82C137.272 122.513 134.671 124.599 131.642 125.814C128.613 127.029 125.291 127.318 122.097 126.645C118.904 125.972 115.981 124.367 113.7 122.033C111.419 119.699 109.881 116.74 109.281 113.532C108.681 110.324 109.046 107.01 110.33 104.009C111.615 101.008 113.76 98.4556 116.495 96.6742C119.229 94.8928 122.431 93.9626 125.695 94.0012C130.069 94.0528 134.243 95.839 137.3 98.9671C140.357 102.095 142.048 106.309 141.999 110.683Z" fill="white"/>
<path d="M151.998 154.908L151.931 161.502C143.614 166.521 134.071 169.116 124.37 168.996C114.668 168.876 105.192 166.047 97 160.825L97.0809 154.258C97.1667 146.943 100.142 139.962 105.352 134.851C110.562 129.739 117.581 126.916 124.863 127.002C132.145 127.088 139.096 130.077 144.184 135.31C149.273 140.544 152.084 147.593 151.998 154.908Z" fill="white"/>
<path d="M40.9655 101.749C38.4391 100.325 35.6929 99.2165 33.0429 98.0424C30.3928 96.8684 27.8114 95.7339 25.1889 94.5994C19.875 92.3172 14.5887 89.8899 9.13756 88.0034C9.11319 87.9973 9.08736 87.9994 9.06443 88.0094C9.04151 88.0194 9.02285 88.0367 9.01159 88.0583C9.00033 88.08 8.99716 88.1047 9.00259 88.1283C9.00801 88.1519 9.02173 88.173 9.04143 88.1881C14.1356 90.9848 19.5455 93.2802 24.8868 95.6151C27.5505 96.776 30.2372 97.9105 32.9467 99.0186C35.5363 100.155 38.1905 101.151 40.8969 102C40.9655 101.974 41.0479 101.802 40.9655 101.749Z" fill="white"/>
<path d="M73.968 116.81L79.1071 118.098L75.4787 133.414L79.8625 134.508L81.7644 126.518L86.8765 127.806L85.0016 135.782L88.8863 136.752L91.8672 124.136L97.0064 125.41L94.0254 138.039L99.5422 139.41L103.535 122.543L108.674 123.831L104.681 140.698L109.888 142L115 120.439L69.0986 109L64 130.548L70.3396 132.14L73.968 116.81Z" fill="#8758FF"/>
<path d="M170.629 142.54C170.814 168.747 168.377 194.906 163.355 220.628C160.855 233.503 157.047 246.089 151.99 258.19C149.459 264.259 146.141 269.968 142.12 275.17C140.096 277.791 137.679 280.083 134.956 281.968C132.238 283.939 128.967 285 125.61 285C122.252 285 118.981 283.939 116.263 281.968C113.527 280.085 111.097 277.792 109.058 275.17C105.018 269.973 101.677 264.269 99.1204 258.204C94.024 246.106 90.1749 233.521 87.6328 220.642C82.5107 194.912 79.9875 168.733 80.1013 142.499C79.9885 116.261 82.5117 90.0773 87.6328 64.3432C90.1749 51.4645 94.024 38.8786 99.1204 26.781C101.681 20.7215 105.021 15.0224 109.058 9.82838C111.092 7.20695 113.518 4.91431 116.25 3.03102C118.97 1.06078 122.244 0 125.603 0C128.962 0 132.235 1.06078 134.956 3.03102C137.679 4.916 140.095 7.2086 142.12 9.82838C146.144 15.0241 149.462 20.7289 151.99 26.7946C157.047 38.896 160.855 51.482 163.355 64.3568C168.39 90.1089 170.826 116.301 170.629 142.54ZM170.629 142.54C170.734 116.339 168.215 90.1924 163.111 64.4928C160.572 51.6499 156.728 39.1002 151.637 27.0393C149.102 21.0134 145.789 15.346 141.781 10.1818C139.772 7.62164 137.384 5.38428 134.698 3.54762C132.061 1.63005 128.884 0.597155 125.623 0.597155C122.363 0.597155 119.186 1.63005 116.549 3.54762C113.875 5.39018 111.5 7.63223 109.507 10.1954C105.521 15.3647 102.226 21.0316 99.7049 27.0529C94.6661 39.1244 90.8716 51.6784 88.3805 64.52C83.3574 90.2094 80.9209 116.338 81.1074 142.513C80.9215 168.688 83.3581 194.816 88.3805 220.506C90.8697 233.343 94.6643 245.893 99.7049 257.959C102.22 263.983 105.515 269.651 109.507 274.817C111.503 277.381 113.878 279.627 116.549 281.478C119.186 283.396 122.363 284.429 125.623 284.429C128.884 284.429 132.061 283.396 134.698 281.478C137.384 279.637 139.773 277.395 141.781 274.83C145.794 269.675 149.108 264.011 151.637 257.986C156.726 245.925 160.57 233.375 163.111 220.533C168.212 194.851 170.73 168.723 170.629 142.54Z" fill="#8758FF"/>
<path d="M148.129 103.551C170.92 116.495 192.357 131.688 212.12 148.903C222.014 157.485 231.011 167.05 238.969 177.452C242.958 182.696 246.24 188.441 248.73 194.541C249.972 197.601 250.738 200.833 251.001 204.125C251.278 207.458 250.574 210.799 248.975 213.737C247.232 216.599 244.696 218.894 241.675 220.344C238.693 221.77 235.512 222.732 232.24 223.198C225.721 224.102 219.112 224.143 212.582 223.321C199.554 221.692 186.726 218.736 174.299 214.498C149.462 206.054 125.53 195.152 102.859 181.952C80.0927 168.923 58.6877 153.648 38.9638 136.355C29.0892 127.709 20.1203 118.079 12.1958 107.616C8.22074 102.371 4.95266 96.6252 2.47555 90.5276C1.23667 87.4579 0.475589 84.2164 0.218821 80.9161C-0.122152 77.5751 0.601335 74.2117 2.28595 71.3063C3.97057 68.401 6.53014 66.1023 9.59917 64.7384C12.5795 63.3151 15.762 62.3612 19.0339 61.9107C25.5491 61.048 32.1495 61.048 38.6647 61.9107C51.6637 63.5788 64.459 66.567 76.8523 70.8289C101.644 79.3298 125.522 90.292 148.129 103.551ZM148.129 103.551C125.487 90.3625 101.582 79.4732 76.7707 71.0464C64.3819 66.8276 51.5959 63.8805 38.6103 62.2506C32.1262 61.4279 25.5616 61.469 19.0883 62.3729C15.869 62.8297 12.7381 63.774 9.80308 65.1734C6.82823 66.5057 4.35069 68.7443 2.72456 71.5693C1.09843 74.3943 0.406956 77.661 0.748993 80.9025C1.01267 84.1432 1.76906 87.3247 2.99211 90.3373C5.4699 96.3769 8.73362 102.063 12.6988 107.249C20.6255 117.653 29.5947 127.219 39.4668 135.798C59.2015 152.99 80.6065 168.165 103.362 181.096C125.942 194.344 149.793 205.297 174.558 213.791C186.909 218.051 199.664 221.035 212.623 222.695C219.092 223.559 225.648 223.559 232.118 222.695C235.333 222.265 238.464 221.348 241.403 219.977C244.384 218.657 246.871 216.427 248.505 213.605C250.139 210.784 250.837 207.517 250.498 204.275C250.249 201.03 249.501 197.843 248.282 194.826C245.824 188.771 242.578 183.067 238.63 177.86C230.728 167.424 221.781 157.822 211.929 149.202C192.239 131.895 170.866 116.602 148.129 103.551Z" fill="#8758FF"/>
<path d="M103.104 103.551C125.712 90.2943 149.59 79.3322 174.381 70.8286C186.79 66.5493 199.604 63.5474 212.623 61.8697C219.138 61.007 225.738 61.007 232.254 61.8697C235.523 62.3329 238.703 63.2862 241.688 64.6974C244.757 66.0612 247.317 68.36 249.002 71.2653C250.686 74.1707 251.41 77.5341 251.069 80.8751C250.812 84.1754 250.051 87.4169 248.812 90.4866C246.335 96.5842 243.067 102.33 239.092 107.575C231.171 118.037 222.201 127.662 212.324 136.301C192.598 153.595 171.193 168.874 148.429 181.911C125.765 195.124 101.831 206.027 76.9883 214.457C64.5326 218.72 51.6728 221.694 38.6104 223.334C32.0808 224.157 25.4713 224.116 18.9524 223.212C15.6806 222.746 12.4991 221.783 9.51767 220.357C6.49627 218.907 3.96032 216.612 2.21731 213.75C0.618296 210.813 -0.0858935 207.471 0.191672 204.138C0.454682 200.847 1.22035 197.614 2.46201 194.554C4.95399 188.472 8.23585 182.745 12.223 177.52C20.1818 167.118 29.1779 157.552 39.0726 148.971C58.8453 131.73 80.2962 116.514 103.104 103.551ZM103.104 103.551C80.3626 116.566 58.9804 131.822 39.2765 149.093C29.4246 157.713 20.4782 167.315 12.5765 177.751C8.6277 182.958 5.38234 188.662 2.92422 194.717C1.70485 197.734 0.957431 200.921 0.708278 204.166C0.369077 207.408 1.0667 210.675 2.70085 213.496C4.33501 216.318 6.82157 218.548 9.80315 219.868C12.7425 221.239 15.8734 222.156 19.0884 222.587C25.558 223.45 32.1136 223.45 38.5832 222.587C51.544 220.928 64.2996 217.939 76.6484 213.668C101.408 205.202 125.255 194.271 147.83 181.041C170.583 168.11 191.987 152.94 211.726 135.757C221.605 127.181 230.579 117.614 238.507 107.208C242.466 102.02 245.725 96.3343 248.2 90.2963C249.423 87.2837 250.18 84.1022 250.443 80.8615C250.785 77.62 250.094 74.3532 248.468 71.5283C246.842 68.7033 244.364 66.4647 241.389 65.1324C238.457 63.727 235.325 62.7824 232.104 62.3319C225.631 61.428 219.066 61.3869 212.582 62.2096C199.592 63.8386 186.801 66.7857 174.408 71.0054C149.612 79.4428 125.724 90.346 103.104 103.551Z" fill="#8758FF"/>
<path d="M214.077 93.9387C214.077 93.9387 201.162 187.552 179.914 208.61C154.424 233.964 135.921 230.199 125.617 243.222C115.325 230.171 96.823 233.883 71.3057 208.597C50.0571 187.566 37.1558 93.9387 37.1558 93.9387C93.1116 69.373 125.617 41.8301 125.617 41.8301C126.623 42.6865 158.978 69.7672 214.077 93.9387Z" fill="#8758FF"/>
<path opacity="0.1" d="M125.617 41.8437V243.222C115.325 230.171 96.823 233.883 71.3057 208.597C50.0571 187.566 37.1558 93.9387 37.1558 93.9387C93.1116 69.373 125.617 41.8301 125.617 41.8301V41.8437Z" fill="white"/>
<path d="M200.388 101.498C200.388 101.498 189.512 180.565 171.54 198.374C149.978 219.745 134.344 216.605 125.644 227.616C116.943 216.605 101.309 219.745 79.7481 198.374C61.7215 180.565 50.8457 101.498 50.8457 101.498C98.1146 80.7253 125.617 57.4512 125.617 57.4512C125.617 57.4512 153.078 80.7253 200.388 101.498Z" fill="#8758FF"/>
<path opacity="0.1" d="M200.388 101.497C200.388 101.497 189.512 180.564 171.54 198.373C150.006 219.731 134.372 216.617 125.671 227.588V57.4775C126.46 58.1845 153.812 81.0508 200.388 101.497Z" fill="white"/>
<path d="M132.466 136.281L139.386 169.126H110.008L116.928 136.281C114.217 134.593 112.131 132.068 110.983 129.089C109.836 126.109 109.69 122.837 110.568 119.767C111.445 116.697 113.299 113.996 115.849 112.074C118.398 110.151 121.504 109.111 124.697 109.111C127.89 109.111 130.996 110.151 133.546 112.074C136.095 113.996 137.949 116.697 138.827 119.767C139.705 122.837 139.559 126.109 138.411 129.089C137.264 132.068 135.177 134.593 132.466 136.281Z" fill="white"/>
<ellipse cx="120.609" cy="123.886" rx="10.608" ry="12.5023" fill="white"/>
</svg>
