<svg width="162" height="27" viewBox="0 0 162 27" fill="none" xmlns="http://www.w3.org/2000/svg">
<path d="M153.694 11.9241V15.4531H156.053V18.9544C156.059 19.2226 156.048 19.5088 156.013 19.7551L155.993 19.8747C155.989 19.9014 155.984 19.9288 155.979 19.9569L155.96 20.043C155.956 20.0576 155.952 20.0724 155.948 20.0873L155.921 20.1781C155.709 20.8228 155.07 21.6398 153.635 21.6398C152.107 21.6398 151.493 20.702 151.325 20.043L151.306 19.9569L151.291 19.8747C151.249 19.6047 151.231 19.2673 151.231 18.9544V7.89555C151.231 7.54783 151.251 7.17091 151.31 6.86384L151.351 6.67724C151.354 6.66432 151.357 6.65118 151.36 6.63786L151.382 6.55567C151.387 6.54163 151.391 6.52742 151.395 6.51306L151.425 6.42521C151.643 5.8142 152.22 5.00041 153.623 5.00041C154.706 5.00041 155.289 5.46447 155.601 5.9441L155.656 6.03411C155.673 6.0641 155.69 6.09404 155.705 6.12382L155.749 6.21258L155.787 6.29974L155.82 6.38463L155.849 6.4666L155.873 6.545L155.893 6.61916L155.91 6.68843L155.923 6.75216C155.929 6.78385 155.934 6.81749 155.939 6.85247L155.953 6.96079C155.955 6.97931 155.957 6.998 155.959 7.0168L155.973 7.18666L155.983 7.34956L155.991 7.57168L155.993 7.68551V9.02837H161.788L161.789 8.19244L161.793 7.89348L161.792 7.66173L161.787 7.3919L161.782 7.24662L161.772 7.02019L161.757 6.78824L161.744 6.63316C161.352 2.548 158.432 0.976262 154.879 0.702767L154.641 0.686444L154.402 0.673887C154.281 0.668537 154.161 0.66457 154.039 0.66194L153.796 0.65845C153.755 0.658018 153.715 0.658018 153.674 0.658018L153.429 0.65977C153.389 0.660356 153.348 0.661091 153.308 0.661975L153.066 0.669092L152.825 0.679882L152.587 0.694425L152.35 0.712797C152.272 0.719568 152.194 0.726991 152.116 0.735078L151.884 0.761345C151.845 0.766059 151.807 0.770943 151.769 0.775998L151.54 0.80839C151.009 0.888821 150.498 1.0034 150.014 1.15659L149.808 1.22462C147.563 1.99925 145.931 3.64619 145.596 6.63316L145.561 6.96472L145.538 7.22144L145.516 7.49059L145.497 7.75835C145.487 7.93334 145.48 8.0982 145.48 8.23452L145.48 18.5381L145.482 18.6659L145.487 18.8603L145.493 18.9966L145.501 19.1421L145.511 19.3004L145.524 19.4747L145.55 19.7739L145.572 20.0034C145.897 23.7995 148.633 25.4883 151.981 25.8867L152.216 25.9124C152.609 25.9518 153.009 25.974 153.414 25.9803L153.657 25.9822L153.903 25.9803C154.31 25.974 154.712 25.9518 155.106 25.9124L155.341 25.8867C158.7 25.4883 161.419 23.7995 161.75 20.0034L161.777 19.6686L161.796 19.3853L161.814 19.068L161.825 18.7946L161.834 18.4076V11.9241H153.694ZM113.735 1.30894H107.915V19.2095C107.924 19.5215 107.915 19.8719 107.864 20.1289L107.847 20.2068L107.826 20.2897C107.818 20.3181 107.809 20.3472 107.8 20.3769L107.769 20.4677C107.55 21.0831 106.991 21.8862 105.653 21.8862C104.398 21.8862 103.825 21.1614 103.585 20.5613L103.55 20.4677C103.544 20.4523 103.539 20.437 103.534 20.4219L103.507 20.3328L103.484 20.2476C103.481 20.2338 103.477 20.2202 103.474 20.2068L103.458 20.1289C103.4 19.8719 103.393 19.5215 103.4 19.2095V1.30894H97.5821V18.654L97.581 18.7934L97.5831 19.0372L97.5912 19.396L97.6071 19.832L97.6183 20.0516L97.6258 20.1681L97.6332 20.2538C97.9183 23.4628 99.7087 25.1332 102.237 25.8321L102.453 25.8889C102.923 26.007 103.418 26.093 103.931 26.1504L104.17 26.1749L104.411 26.1954L104.655 26.2121C104.777 26.2194 104.9 26.2253 105.025 26.2298L105.274 26.237L105.526 26.2406C105.568 26.241 105.61 26.241 105.653 26.241L105.906 26.2393C105.948 26.2387 105.99 26.2379 106.032 26.237L106.282 26.2298C106.406 26.2253 106.53 26.2194 106.652 26.2121L106.896 26.1954L107.138 26.1749L107.377 26.1504C110.781 25.7703 113.334 24.1408 113.686 20.2538L113.69 20.2151L113.7 20.1133L113.714 19.9102L113.726 19.6645L113.733 19.4868L113.74 19.2143L113.742 19.0372L113.742 18.8708L113.738 18.7209C113.737 18.6976 113.736 18.6753 113.735 18.654V1.30894ZM60.2615 1.30894L57.3584 20.2233L54.457 1.30894H45.0693L44.5714 25.5059H50.3226L50.4784 3.10605L54.4355 25.5059H60.2706L64.2313 3.10605L64.3876 25.5059H70.1533L69.6386 1.30894H60.2615ZM25.5036 1.30894L21.241 25.5059H27.457L30.6692 3.10605L33.8043 25.5059H39.9772L35.7323 1.30894H25.5036ZM134.074 20.7904L128.655 1.30894H120.116V25.2536H125.765L125.437 5.14893L131.256 25.2536H139.446V1.30894H133.76L134.074 20.7904ZM81.8216 7.60628C81.7194 7.12842 81.7489 6.62073 81.8018 6.35539C81.8168 6.28497 81.8345 6.21398 81.8554 6.14309L81.8891 6.03692C82.1187 5.36611 82.6558 4.736 83.8873 4.736C85.2164 4.736 85.9956 5.60721 85.9956 6.91466V8.39423H91.6689V6.70773C91.6689 2.90179 89.3 1.43774 86.7688 0.924603L86.5604 0.88454L86.3516 0.848588L86.1426 0.816575L85.9337 0.78833L85.7251 0.763682L85.5172 0.742457C85.448 0.735934 85.379 0.729953 85.3102 0.724486L85.1043 0.709596L84.8999 0.697615L84.6972 0.688372L84.4965 0.681696L84.2981 0.677414L84.0052 0.675106L83.8761 0.675585L83.6195 0.679436C83.5769 0.680402 83.5344 0.681531 83.492 0.682824L83.2386 0.692569C83.1546 0.696481 83.0709 0.701062 82.9877 0.706322L82.7392 0.724149C79.2781 1.00254 76.5772 2.49744 76.037 6.00305C75.8771 7.07063 75.8375 8.01828 76.0919 9.22753C76.4924 11.2147 78.0667 12.6287 79.8738 13.8148L80.1535 13.9955C80.2004 14.0253 80.2474 14.055 80.2945 14.0846L80.5783 14.2604L80.8639 14.4334L81.1505 14.6037L81.5806 14.8549L82.7108 15.5061L82.9853 15.6662L83.2552 15.8258L83.5196 15.9851L83.7778 16.1444C85.0095 16.9152 85.9963 17.6968 86.3514 18.6313C86.5479 19.1864 86.5049 19.8863 86.4099 20.3328L86.3936 20.4048C86.3701 20.5121 86.3406 20.6195 86.3035 20.7251L86.2638 20.83C86.0024 21.4721 85.4311 22.0195 84.1757 22.0195C82.7438 22.0195 81.8819 21.1539 81.8819 19.8492L81.8801 17.527H75.7737V19.3729C75.7737 23.7054 78.3878 25.5874 81.6617 26.1462L81.9054 26.1852C82.0686 26.2096 82.2333 26.2308 82.3993 26.249L82.6492 26.2741C82.9417 26.3007 83.2378 26.3183 83.536 26.3276L83.7922 26.3335C83.835 26.3342 83.8778 26.3347 83.9206 26.335L84.0493 26.3355C84.1349 26.3355 84.2202 26.3349 84.3052 26.3336L84.5591 26.3277C84.6013 26.3264 84.6433 26.325 84.6853 26.3233L84.9361 26.3115C85.0193 26.3069 85.1021 26.3017 85.1846 26.2957L85.4306 26.2758C85.5939 26.2611 85.7555 26.2436 85.9152 26.2233L86.1535 26.1907L86.3889 26.1538C86.4669 26.1408 86.5444 26.127 86.6213 26.1125L86.8507 26.0668C89.6221 25.4829 91.6841 23.8996 92.0982 20.8556C92.1552 20.4016 92.1903 19.9823 92.2092 19.599L92.2194 19.3489C92.2208 19.3081 92.2219 19.2677 92.2229 19.2278L92.2267 18.9938V18.7707L92.2231 18.5585L92.2166 18.3573L92.2073 18.1673C92.2055 18.1366 92.2037 18.1063 92.2018 18.0765L92.1892 17.9033L92.1748 17.7415L92.1591 17.591L92.1339 17.3869L92.1077 17.209L92.0736 17.0129L92.0577 16.9327C91.6581 14.8256 89.9038 13.3372 87.9548 12.1121L87.6751 11.9389L87.3936 11.769L87.1109 11.6022L86.6864 11.3573L86.1234 11.0396L85.1633 10.5027L84.7682 10.2779C84.725 10.253 84.6821 10.2282 84.6394 10.2035L84.3866 10.0552L84.1409 9.90755C82.9316 9.17029 82.0176 8.44639 81.8216 7.60628ZM6.98397 7.54694C6.87954 7.08962 6.89587 6.60855 6.94944 6.329L6.97162 6.22434L6.99679 6.12077C7.18845 5.39419 7.71246 4.64528 9.06683 4.64528C10.4127 4.64528 11.2052 5.52488 11.2052 6.84288V8.34048H16.945V6.64061C16.945 3.00871 14.7962 1.48342 12.3952 0.886766L12.1858 0.837195C12.0109 0.797789 11.8349 0.763079 11.6586 0.732618L11.447 0.698076L11.2353 0.667441L11.0239 0.64054L10.813 0.617201C10.7428 0.609996 10.6728 0.603356 10.6029 0.597253L10.3939 0.580523L10.1863 0.566839L9.98031 0.556029L9.77622 0.547921L9.57433 0.542342L9.2762 0.538086H9.17822C9.09217 0.538086 9.00645 0.538718 8.92109 0.539993L8.66604 0.545756C8.49674 0.550897 8.32891 0.558649 8.1627 0.569095L7.91463 0.586793C7.87349 0.590083 7.83246 0.593543 7.79153 0.597176L7.54731 0.62105C7.46635 0.629703 7.38584 0.639055 7.3058 0.649117L7.0671 0.681439C6.8694 0.710164 6.67474 0.743386 6.48343 0.781264L6.25548 0.828962L6.03085 0.881193L5.80965 0.938016C5.7365 0.95773 5.66394 0.978219 5.59199 0.999494L5.37798 1.06569C3.15044 1.7857 1.54515 3.29577 1.13993 5.91605C0.972684 7.00072 0.944023 7.95489 1.18573 9.17751C1.61126 11.2903 3.34679 12.7617 5.28843 13.998L5.57392 14.1773C5.6217 14.2069 5.66958 14.2364 5.71752 14.2658L6.00598 14.4405L6.44035 14.6979L7.01858 15.0333L7.87149 15.5248L8.28583 15.7673L8.68862 16.0089L8.94945 16.17C8.99236 16.1969 9.03497 16.2238 9.07727 16.2507L9.32724 16.4124C10.3932 17.1144 11.2281 17.8376 11.5504 18.6854C11.7614 19.2367 11.7121 19.9363 11.6123 20.3973L11.5953 20.4719C11.5706 20.578 11.5404 20.6842 11.503 20.7887L11.4632 20.8926C11.195 21.5461 10.6196 22.1065 9.34783 22.1065C7.91031 22.1065 7.05046 21.226 7.05046 19.9033L7.04248 17.5749H0.867493V19.4251C0.867493 24.6187 4.59142 26.3258 8.71553 26.454L8.97378 26.46L9.23289 26.462L9.4891 26.46C9.61672 26.4581 9.74358 26.4548 9.86962 26.4499L10.1206 26.4383C10.2455 26.4314 10.3696 26.4231 10.4928 26.4133L10.7378 26.3915L10.9803 26.3656C11.0607 26.3563 11.1407 26.3463 11.2202 26.3355L11.4572 26.3012C11.5357 26.289 11.6138 26.2762 11.6913 26.2626L11.9225 26.2196C14.7924 25.6545 16.9312 24.0537 17.3619 20.9227C17.4212 20.4754 17.4583 20.0616 17.479 19.6824L17.4905 19.4348L17.4975 19.1974C17.4991 19.12 17.5001 19.0444 17.5004 18.9705L17.4996 18.754L17.4956 18.548L17.4886 18.3527L17.4791 18.1681L17.4675 17.9943L17.4542 17.8313L17.4317 17.6073L17.4076 17.4081L17.3749 17.1815L17.3377 16.9619C16.9395 14.8797 15.2374 13.3984 13.3225 12.18L13.0409 12.0036C12.9938 11.9745 12.9465 11.9455 12.8992 11.9167L12.6144 11.7454L12.3285 11.5773L12.0423 11.4121L11.7564 11.2497L10.4949 10.5455L10.0915 10.3182L9.82951 10.168L9.57399 10.0186L9.3257 9.86981C9.28496 9.84505 9.24455 9.8203 9.20449 9.79555L8.96845 9.64717C7.92619 8.97959 7.16085 8.31168 6.98397 7.54694Z" fill="#1428A0"/>
</svg>
