<svg width="92" height="91" viewBox="0 0 92 91" fill="none" xmlns="http://www.w3.org/2000/svg">
<path d="M86.8564 45.4998C86.8564 41.5754 92.1825 37.0047 91.2155 33.3855C90.2147 29.6406 83.2878 28.3489 81.391 25.0706C79.4668 21.7448 81.7912 15.1062 79.092 12.407C76.3928 9.70784 69.7542 12.0322 66.4291 10.108C63.1508 8.21118 61.8591 1.28431 58.1142 0.283512C54.4949 -0.684103 49.9243 4.64266 45.9998 4.64266C42.0754 4.64266 37.5047 -0.683453 33.8855 0.283512C30.1406 1.28431 28.8489 8.21119 25.5706 10.1087C22.2448 12.0328 15.6062 9.70849 12.907 12.4077C10.2078 15.1068 12.5322 21.7454 10.608 25.0713C8.71119 28.3496 1.78431 29.6412 0.783512 33.3861C-0.184103 37.0054 5.14266 41.576 5.14266 45.5005C5.14266 49.425 -0.183453 53.9956 0.783512 57.6149C1.78431 61.3597 8.71119 62.6514 10.608 65.9297C12.5322 69.2555 10.2078 75.8941 12.907 78.5933C15.6062 81.2925 22.2448 78.9681 25.5699 80.8917C28.8483 82.7885 30.1399 89.7154 33.8848 90.7162C37.5041 91.6838 42.0747 86.357 45.9992 86.357C49.9237 86.357 54.4943 91.6831 58.1136 90.7162C61.8584 89.7154 63.1501 82.7885 66.4284 80.891C69.7542 78.9668 76.3928 81.2912 79.092 78.592C81.7912 75.8928 79.4668 69.2542 81.391 65.9284C83.2878 62.6501 90.2147 61.3584 91.2155 57.6136C92.1831 53.9949 86.8564 49.4237 86.8564 45.4998Z" fill="#5E17EB"/>
<path d="M45.4318 61.8743L27.8065 43.1806C26.9619 42.2852 27.0035 40.8744 27.8989 40.0304C28.7949 39.1865 30.2057 39.2275 31.049 40.1228L44.8923 54.8056L62.3992 29.4205C63.0981 28.4067 64.4861 28.1529 65.4992 28.8511C66.5124 29.55 66.7675 30.938 66.0686 31.9512L45.4318 61.8743Z" fill="white"/>
</svg>
