<svg width="336" height="310" viewBox="0 0 336 310" fill="none" xmlns="http://www.w3.org/2000/svg">
<g filter="url(#filter0_d_691_5801)">
<rect x="8" y="7" width="320" height="294" rx="8" fill="#FFD720"/>
</g>
<path d="M141.366 141.301C146.687 145.61 155.315 145.61 160.636 141.301C165.956 136.994 165.956 130.006 160.636 125.699L119.374 92.2865C114.053 87.9779 105.425 87.9772 100.105 92.2865C94.7828 96.5944 94.7837 103.581 100.105 107.891L124.512 127.606L141.366 141.301Z" fill="white"/>
<path d="M160.636 58.8557C155.315 54.5464 146.687 54.5471 141.366 58.8557L100.105 92.2671C94.8947 96.4857 94.5684 103.088 99.5611 107.414L99.7719 107.596L100.046 107.818C100.067 107.834 100.084 107.853 100.104 107.87C100.126 107.889 100.15 107.903 100.173 107.921L124.512 127.606C111.407 116.994 129.002 100.075 129.002 100.075H128.999L160.636 74.4586C165.956 70.1507 165.957 63.1643 160.636 58.8557Z" fill="white"/>
<path d="M194.126 100.028C188.803 95.7183 180.176 95.7183 174.855 100.028C169.535 104.336 169.535 111.323 174.855 115.63L216.116 149.043C221.438 153.351 230.067 153.352 235.386 149.043C240.708 144.734 240.707 137.748 235.386 133.438L210.978 113.723L194.126 100.028Z" fill="white"/>
<path d="M174.855 182.474C180.176 186.782 188.803 186.781 194.126 182.474L235.386 149.063C240.596 144.844 240.923 138.241 235.93 133.916L235.719 133.733L235.444 133.511C235.424 133.494 235.407 133.476 235.386 133.459C235.365 133.441 235.339 133.426 235.317 133.408L210.978 113.722C224.084 124.334 206.489 141.254 206.489 141.254L206.491 141.252L174.855 166.87C169.535 171.179 169.535 178.166 174.855 182.474Z" fill="white"/>
<path d="M159.309 178.075C157.134 183.706 149.735 186.843 142.78 185.081C135.828 183.321 131.954 177.328 134.127 171.698L176.806 63.0694C178.982 57.4386 186.383 54.3008 193.336 56.0622C200.288 57.8222 204.162 63.8158 201.989 69.4465L159.309 178.075Z" fill="#5E17EB"/>
<path d="M275.072 238.724L271.922 239.616C271.723 239.091 271.431 238.581 271.045 238.085C270.668 237.58 270.153 237.164 269.499 236.837C268.845 236.51 268.008 236.346 266.987 236.346C265.59 236.346 264.426 236.668 263.495 237.312C262.573 237.946 262.113 238.754 262.113 239.735C262.113 240.607 262.43 241.295 263.064 241.801C263.698 242.306 264.689 242.727 266.036 243.064L269.425 243.896C271.466 244.392 272.987 245.15 273.987 246.17C274.988 247.181 275.488 248.484 275.488 250.079C275.488 251.387 275.112 252.556 274.359 253.586C273.616 254.617 272.576 255.429 271.238 256.024C269.9 256.618 268.345 256.915 266.571 256.915C264.243 256.915 262.316 256.41 260.79 255.399C259.264 254.389 258.298 252.913 257.892 250.971L261.221 250.138C261.538 251.367 262.137 252.288 263.019 252.903C263.911 253.517 265.075 253.824 266.512 253.824C268.147 253.824 269.445 253.477 270.406 252.784C271.377 252.08 271.862 251.238 271.862 250.257C271.862 249.465 271.585 248.801 271.03 248.266C270.475 247.721 269.623 247.314 268.474 247.047L264.669 246.155C262.578 245.66 261.043 244.892 260.062 243.852C259.091 242.801 258.605 241.489 258.605 239.913C258.605 238.625 258.967 237.486 259.69 236.495C260.423 235.504 261.419 234.726 262.677 234.162C263.946 233.597 265.382 233.314 266.987 233.314C269.246 233.314 271.02 233.81 272.308 234.801C273.606 235.791 274.527 237.099 275.072 238.724Z" fill="#5E17EB"/>
<path d="M243.334 256.439V233.611H246.723V237.059H246.96C247.376 235.929 248.129 235.013 249.219 234.309C250.309 233.606 251.538 233.254 252.905 233.254C253.163 233.254 253.485 233.259 253.871 233.269C254.258 233.279 254.55 233.294 254.748 233.313V236.88C254.629 236.851 254.357 236.806 253.931 236.746C253.514 236.677 253.074 236.642 252.608 236.642C251.498 236.642 250.507 236.875 249.635 237.341C248.773 237.797 248.09 238.431 247.585 239.243C247.089 240.046 246.841 240.962 246.841 241.993V256.439H243.334Z" fill="#5E17EB"/>
<path d="M228.545 256.915C226.345 256.915 224.448 256.43 222.852 255.459C221.267 254.478 220.043 253.111 219.181 251.357C218.329 249.593 217.903 247.542 217.903 245.204C217.903 242.866 218.329 240.805 219.181 239.021C220.043 237.228 221.242 235.831 222.778 234.83C224.324 233.82 226.127 233.314 228.188 233.314C229.377 233.314 230.551 233.513 231.71 233.909C232.869 234.305 233.925 234.949 234.876 235.841C235.827 236.723 236.585 237.892 237.15 239.348C237.714 240.805 237.997 242.598 237.997 244.728V246.215H220.4V243.183H234.43C234.43 241.895 234.172 240.745 233.657 239.735C233.152 238.724 232.428 237.927 231.487 237.342C230.556 236.757 229.456 236.465 228.188 236.465C226.791 236.465 225.582 236.812 224.562 237.506C223.551 238.189 222.773 239.081 222.228 240.181C221.683 241.281 221.411 242.46 221.411 243.718V245.739C221.411 247.463 221.708 248.925 222.302 250.123C222.907 251.312 223.744 252.219 224.814 252.843C225.884 253.457 227.128 253.765 228.545 253.765C229.466 253.765 230.298 253.636 231.041 253.378C231.794 253.111 232.443 252.714 232.988 252.189C233.533 251.654 233.954 250.99 234.252 250.198L237.64 251.149C237.283 252.298 236.684 253.309 235.842 254.181C235 255.043 233.959 255.716 232.721 256.202C231.482 256.678 230.09 256.915 228.545 256.915Z" fill="#5E17EB"/>
<path d="M193.47 265V233.612H196.858V237.238H197.274C197.532 236.842 197.889 236.336 198.344 235.722C198.81 235.098 199.474 234.543 200.336 234.058C201.208 233.562 202.387 233.314 203.873 233.314C205.795 233.314 207.49 233.795 208.956 234.756C210.422 235.717 211.567 237.08 212.389 238.843C213.211 240.607 213.623 242.687 213.623 245.085C213.623 247.503 213.211 249.598 212.389 251.372C211.567 253.135 210.427 254.503 208.971 255.474C207.514 256.435 205.835 256.915 203.933 256.915C202.466 256.915 201.292 256.673 200.41 256.187C199.528 255.692 198.85 255.132 198.374 254.508C197.899 253.874 197.532 253.348 197.274 252.932H196.977V265H193.47ZM196.918 245.026C196.918 246.75 197.17 248.271 197.676 249.588C198.181 250.896 198.919 251.922 199.89 252.665C200.861 253.398 202.05 253.765 203.457 253.765C204.923 253.765 206.147 253.378 207.128 252.605C208.119 251.823 208.862 250.772 209.357 249.455C209.863 248.127 210.115 246.651 210.115 245.026C210.115 243.421 209.867 241.974 209.372 240.686C208.887 239.388 208.148 238.363 207.158 237.61C206.177 236.847 204.943 236.465 203.457 236.465C202.03 236.465 200.831 236.827 199.86 237.55C198.889 238.264 198.156 239.264 197.661 240.552C197.165 241.83 196.918 243.322 196.918 245.026Z" fill="#5E17EB"/>
<path d="M177.77 256.915C175.709 256.915 173.901 256.425 172.346 255.444C170.8 254.463 169.591 253.091 168.719 251.327C167.857 249.564 167.426 247.503 167.426 245.145C167.426 242.767 167.857 240.691 168.719 238.917C169.591 237.144 170.8 235.767 172.346 234.786C173.901 233.805 175.709 233.314 177.77 233.314C179.831 233.314 181.634 233.805 183.18 234.786C184.736 235.767 185.944 237.144 186.806 238.917C187.678 240.691 188.114 242.767 188.114 245.145C188.114 247.503 187.678 249.564 186.806 251.327C185.944 253.091 184.736 254.463 183.18 255.444C181.634 256.425 179.831 256.915 177.77 256.915ZM177.77 253.765C179.336 253.765 180.624 253.363 181.634 252.561C182.645 251.758 183.393 250.703 183.879 249.395C184.364 248.087 184.607 246.67 184.607 245.145C184.607 243.619 184.364 242.197 183.879 240.879C183.393 239.561 182.645 238.496 181.634 237.684C180.624 236.871 179.336 236.465 177.77 236.465C176.205 236.465 174.917 236.871 173.906 237.684C172.895 238.496 172.147 239.561 171.662 240.879C171.176 242.197 170.934 243.619 170.934 245.145C170.934 246.67 171.176 248.087 171.662 249.395C172.147 250.703 172.895 251.758 173.906 252.561C174.917 253.363 176.205 253.765 177.77 253.765Z" fill="#5E17EB"/>
<path d="M162.074 226V256.437H158.567V226H162.074Z" fill="#5E17EB"/>
<path d="M143.778 256.915C141.578 256.915 139.681 256.43 138.086 255.459C136.5 254.478 135.277 253.111 134.415 251.357C133.563 249.593 133.137 247.542 133.137 245.204C133.137 242.866 133.563 240.805 134.415 239.021C135.277 237.228 136.476 235.831 138.011 234.83C139.557 233.82 141.36 233.314 143.421 233.314C144.61 233.314 145.784 233.513 146.944 233.909C148.103 234.305 149.158 234.949 150.109 235.841C151.06 236.723 151.818 237.892 152.383 239.348C152.948 240.805 153.23 242.598 153.23 244.728V246.215H135.634V243.183H149.663C149.663 241.895 149.406 240.745 148.89 239.735C148.385 238.724 147.662 237.927 146.721 237.342C145.789 236.757 144.689 236.465 143.421 236.465C142.024 236.465 140.815 236.812 139.795 237.506C138.784 238.189 138.007 239.081 137.462 240.181C136.917 241.281 136.644 242.46 136.644 243.718V245.739C136.644 247.463 136.941 248.925 137.536 250.123C138.14 251.312 138.977 252.219 140.048 252.843C141.118 253.457 142.361 253.765 143.778 253.765C144.699 253.765 145.532 253.636 146.275 253.378C147.028 253.111 147.677 252.714 148.222 252.189C148.767 251.654 149.188 250.99 149.485 250.198L152.873 251.149C152.517 252.298 151.917 253.309 151.075 254.181C150.233 255.043 149.193 255.716 147.954 256.202C146.716 256.678 145.324 256.915 143.778 256.915Z" fill="#5E17EB"/>
<path d="M130.397 233.61L121.955 256.438H118.388L109.946 233.61H113.751L120.053 251.801H120.29L126.592 233.61H130.397Z" fill="#5E17EB"/>
<path d="M97.6361 256.915C95.4365 256.915 93.5391 256.43 91.9439 255.459C90.3586 254.478 89.135 253.111 88.273 251.357C87.4209 249.593 86.9949 247.542 86.9949 245.204C86.9949 242.866 87.4209 240.805 88.273 239.021C89.135 237.228 90.3339 235.831 91.8696 234.83C93.4153 233.82 95.2185 233.314 97.2794 233.314C98.4684 233.314 99.6425 233.513 100.802 233.909C101.961 234.305 103.016 234.949 103.967 235.841C104.918 236.723 105.676 237.892 106.241 239.348C106.806 240.805 107.088 242.598 107.088 244.728V246.215H89.4917V243.183H103.521C103.521 241.895 103.264 240.745 102.749 239.735C102.243 238.724 101.52 237.927 100.579 237.342C99.6474 236.757 98.5476 236.465 97.2794 236.465C95.8824 236.465 94.6736 236.812 93.6531 237.506C92.6424 238.189 91.8647 239.081 91.3197 240.181C90.7748 241.281 90.5023 242.46 90.5023 243.718V245.739C90.5023 247.463 90.7996 248.925 91.394 250.123C91.9984 251.312 92.8357 252.219 93.9057 252.843C94.9758 253.457 96.2192 253.765 97.6361 253.765C98.5575 253.765 99.3898 253.636 100.133 253.378C100.886 253.111 101.535 252.714 102.08 252.189C102.625 251.654 103.046 250.99 103.343 250.198L106.732 251.149C106.375 252.298 105.776 253.309 104.933 254.181C104.091 255.043 103.051 255.716 101.812 256.202C100.574 256.678 99.1817 256.915 97.6361 256.915Z" fill="#5E17EB"/>
<path d="M70.69 256.913C68.7877 256.913 67.1083 256.432 65.6518 255.471C64.1953 254.5 63.0559 253.133 62.2335 251.369C61.4112 249.596 61 247.5 61 245.083C61 242.685 61.4112 240.604 62.2335 238.841C63.0559 237.077 64.2003 235.715 65.6667 234.754C67.1331 233.793 68.8273 233.312 70.7495 233.312C72.2357 233.312 73.4098 233.56 74.2718 234.055C75.1437 234.541 75.8075 235.096 76.2633 235.72C76.729 236.334 77.0906 236.839 77.3482 237.236H77.6455V226H81.1529V256.437H77.7644V252.93H77.3482C77.0906 253.346 76.724 253.871 76.2484 254.505C75.7729 255.13 75.0942 255.689 74.2123 256.185C73.3305 256.67 72.1564 256.913 70.69 256.913ZM71.1656 253.762C72.5726 253.762 73.7615 253.396 74.7325 252.662C75.7035 251.919 76.4417 250.894 76.947 249.586C77.4523 248.268 77.7049 246.747 77.7049 245.023C77.7049 243.319 77.4572 241.828 76.9618 240.55C76.4664 239.262 75.7332 238.261 74.7622 237.548C73.7913 236.825 72.5924 236.463 71.1656 236.463C69.6794 236.463 68.4409 236.844 67.4501 237.607C66.4692 238.36 65.7311 239.386 65.2357 240.684C64.7502 241.972 64.5074 243.418 64.5074 245.023C64.5074 246.648 64.7551 248.125 65.2505 249.452C65.7559 250.77 66.499 251.82 67.4798 252.603C68.4706 253.376 69.6992 253.762 71.1656 253.762Z" fill="#5E17EB"/>
<defs>
<filter id="filter0_d_691_5801" x="0" y="0" width="336" height="310" filterUnits="userSpaceOnUse" color-interpolation-filters="sRGB">
<feFlood flood-opacity="0" result="BackgroundImageFix"/>
<feColorMatrix in="SourceAlpha" type="matrix" values="0 0 0 0 0 0 0 0 0 0 0 0 0 0 0 0 0 0 127 0" result="hardAlpha"/>
<feOffset dy="1"/>
<feGaussianBlur stdDeviation="4"/>
<feComposite in2="hardAlpha" operator="out"/>
<feColorMatrix type="matrix" values="0 0 0 0 0.129412 0 0 0 0 0.0313726 0 0 0 0 0.321569 0 0 0 0.08 0"/>
<feBlend mode="normal" in2="BackgroundImageFix" result="effect1_dropShadow_691_5801"/>
<feBlend mode="normal" in="SourceGraphic" in2="effect1_dropShadow_691_5801" result="shape"/>
</filter>
</defs>
</svg>
