<svg width="417" height="342" viewBox="0 0 417 342" fill="none" xmlns="http://www.w3.org/2000/svg">
<path opacity="0.17" d="M356.601 239.342L379.223 90.0986L80.3169 65.8516L72.1309 239.342L101.438 248.252L208.918 280.927L207.891 285.004L205.57 294.215L193.687 341.386L255.981 304.252L265.998 298.281L280.505 247.887L282.978 239.342H356.601Z" fill="#262625"/>
<g opacity="0.17">
<path d="M158.152 4.12598L144.705 7.06598L153.975 17.242L158.152 4.12598Z" fill="#262625"/>
<path d="M382.996 142.043L386.558 155.339L396.291 145.605L382.996 142.043Z" fill="#262625"/>
<path d="M316.94 30.5234L318.998 38.2034L324.62 32.5814L316.94 30.5234Z" fill="#262625"/>
<path d="M177.639 44.0881L184.99 41.0571L178.69 36.2061L177.639 44.0881Z" fill="#262625"/>
<path d="M2.13574 202.907L4.19374 210.587L9.81574 204.965L2.13574 202.907Z" fill="#262625"/>
<path d="M76.9365 256.529L78.9945 264.209L84.6165 258.587L76.9365 256.529Z" fill="#262625"/>
<path d="M408.662 105.812L410.72 113.493L416.342 107.87L408.662 105.812Z" fill="#262625"/>
<path d="M17.8281 110.247L19.8861 117.927L25.5081 112.305L17.8281 110.247Z" fill="#262625"/>
<path d="M384.939 215.127L391.239 219.978L392.29 212.097L384.939 215.127Z" fill="#262625"/>
<path d="M280.585 47.9832L286.885 52.8341L287.936 44.9521L280.585 47.9832Z" fill="#262625"/>
<path d="M241.661 61.2126L247.961 66.0636L249.012 58.1816L241.661 61.2126Z" fill="#262625"/>
<path d="M159.166 307.525L161.224 315.206L166.846 309.583L159.166 307.525Z" fill="#262625"/>
<path d="M294.714 267.121L296.772 274.801L302.394 269.179L294.714 267.121Z" fill="#262625"/>
<path d="M408.067 280.364L410.125 288.044L415.747 282.422L408.067 280.364Z" fill="#262625"/>
<path d="M27.3655 245.275L23.1875 258.391L36.6355 255.451L27.3655 245.275Z" fill="#262625"/>
<path d="M98.7805 293.965L94.6035 307.08L108.051 304.14L98.7805 293.965Z" fill="#262625"/>
<path d="M35.0628 170.971L32.5638 157.435L22.0908 166.367L35.0628 170.971Z" fill="#262625"/>
<path d="M245.288 30.381L236.751 19.583L231.669 32.375L245.288 30.381Z" fill="#262625"/>
<path d="M92.8847 44.4259L84.3476 33.6279L79.2646 46.4209L92.8847 44.4259Z" fill="#262625"/>
<path d="M344.866 254.073L332.14 259.319L343.046 267.717L344.866 254.073Z" fill="#262625"/>
<path d="M365.428 48.4785L352.702 53.7245L363.608 62.1225L365.428 48.4785Z" fill="#262625"/>
<path d="M312.695 314.635L299.969 319.881L310.876 328.279L312.695 314.635Z" fill="#262625"/>
</g>
<path d="M156.016 0L142.569 2.93999L151.839 13.116L156.016 0Z" fill="white"/>
<path d="M380.86 137.917L384.422 151.213L394.155 141.48L380.86 137.917Z" fill="white"/>
<path d="M314.805 26.3984L316.863 34.0794L322.485 28.4564L314.805 26.3984Z" fill="white"/>
<path d="M175.503 39.9621L182.854 36.9311L176.554 32.0801L175.503 39.9621Z" fill="white"/>
<path d="M0 198.781L2.058 206.461L7.68 200.839L0 198.781Z" fill="white"/>
<path d="M74.8008 252.404L76.8588 260.084L82.4808 254.461L74.8008 252.404Z" fill="white"/>
<path d="M406.526 101.688L408.584 109.367L414.206 103.745L406.526 101.688Z" fill="white"/>
<path d="M15.6924 106.121L17.7494 113.801L23.3724 108.179L15.6924 106.121Z" fill="white"/>
<path d="M382.803 211.001L389.104 215.852L390.155 207.971L382.803 211.001Z" fill="white"/>
<path d="M278.449 43.8569L284.749 48.7079L285.8 40.8269L278.449 43.8569Z" fill="white"/>
<path d="M239.525 57.0867L245.825 61.9377L246.876 54.0557L239.525 57.0867Z" fill="white"/>
<path d="M157.03 303.4L159.088 311.08L164.71 305.458L157.03 303.4Z" fill="white"/>
<path d="M292.578 262.995L294.636 270.675L300.258 265.053L292.578 262.995Z" fill="white"/>
<path d="M405.932 276.238L407.99 283.918L413.612 278.296L405.932 276.238Z" fill="white"/>
<path d="M25.2297 241.15L21.0527 254.265L34.4997 251.325L25.2297 241.15Z" fill="white"/>
<path d="M96.6448 289.839L92.4678 302.955L105.915 300.015L96.6448 289.839Z" fill="white"/>
<path d="M32.9271 166.845L30.4281 153.309L19.9551 162.241L32.9271 166.845Z" fill="white"/>
<path d="M243.152 26.255L234.615 15.457L229.533 28.249L243.152 26.255Z" fill="white"/>
<path d="M90.7489 40.3009L82.2119 29.5029L77.1289 42.2949L90.7489 40.3009Z" fill="white"/>
<path d="M342.73 249.947L330.004 255.193L340.91 263.591L342.73 249.947Z" fill="white"/>
<path d="M363.292 44.3535L350.566 49.5995L361.472 57.9975L363.292 44.3535Z" fill="white"/>
<path d="M310.559 310.509L297.833 315.756L308.74 324.153L310.559 310.509Z" fill="white"/>
<path d="M201.267 263.993L258.548 281.909L255.809 291.424L183.498 334.529L201.267 263.993Z" fill="#CCAA05"/>
<path d="M61.9424 232.486L255.809 291.424L276.396 219.907L90.9784 208.886L61.9424 232.486Z" fill="#E2C205"/>
<path d="M70.1284 58.9951L61.9424 232.486H346.411L369.034 83.2421L70.1284 58.9951Z" fill="#FEDE00"/>
<path opacity="0.13" d="M198.729 274.071L255.81 291.424L245.793 297.395L195.382 287.358L198.729 274.071Z" fill="#262625"/>
<path opacity="0.13" d="M61.9424 232.487L272.791 232.478L268.094 248.706L91.2484 241.396L61.9424 232.487Z" fill="#262625"/>
<path d="M89.5619 139.14V102.362H102.42C104.982 102.362 107.095 102.805 108.759 103.691C110.423 104.565 111.662 105.744 112.476 107.229C113.29 108.701 113.697 110.335 113.697 112.131C113.697 113.712 113.416 115.016 112.853 116.046C112.302 117.076 111.572 117.89 110.662 118.488C109.764 119.087 108.789 119.53 107.735 119.817V120.176C108.86 120.248 109.992 120.643 111.129 121.362C112.266 122.08 113.218 123.109 113.984 124.45C114.751 125.791 115.134 127.431 115.134 129.371C115.134 131.214 114.715 132.872 113.877 134.345C113.039 135.817 111.716 136.985 109.908 137.847C108.1 138.709 105.748 139.14 102.851 139.14H89.5619ZM94.0154 135.189H102.851C105.76 135.189 107.825 134.626 109.046 133.501C110.279 132.364 110.896 130.987 110.896 129.371C110.896 128.126 110.578 126.976 109.944 125.923C109.309 124.857 108.406 124.007 107.232 123.373C106.059 122.726 104.67 122.403 103.066 122.403H94.0154V135.189ZM94.0154 118.524H102.276C103.617 118.524 104.826 118.261 105.903 117.734C106.993 117.207 107.855 116.465 108.489 115.507C109.136 114.55 109.459 113.424 109.459 112.131C109.459 110.515 108.896 109.144 107.771 108.019C106.646 106.882 104.862 106.313 102.42 106.313H94.0154V118.524ZM126.905 102.362V139.14H122.451V102.362H126.905ZM160.975 113.855C160.58 112.646 160.059 111.563 159.413 110.605C158.778 109.635 158.018 108.809 157.132 108.127C156.258 107.444 155.265 106.924 154.151 106.564C153.038 106.205 151.817 106.026 150.488 106.026C148.309 106.026 146.328 106.588 144.544 107.714C142.76 108.839 141.341 110.497 140.288 112.688C139.234 114.879 138.708 117.566 138.708 120.751C138.708 123.935 139.24 126.623 140.306 128.814C141.371 131.005 142.814 132.663 144.634 133.788C146.453 134.914 148.501 135.476 150.775 135.476C152.882 135.476 154.738 135.027 156.342 134.129C157.958 133.22 159.215 131.939 160.113 130.286C161.023 128.622 161.478 126.665 161.478 124.414L162.843 124.702H151.781V120.751H165.788V124.702C165.788 127.731 165.141 130.364 163.848 132.603C162.567 134.842 160.796 136.578 158.533 137.811C156.282 139.032 153.696 139.642 150.775 139.642C147.519 139.642 144.658 138.876 142.191 137.344C139.737 135.811 137.822 133.633 136.445 130.807C135.08 127.982 134.398 124.63 134.398 120.751C134.398 117.842 134.787 115.226 135.565 112.903C136.355 110.569 137.469 108.582 138.905 106.941C140.342 105.301 142.042 104.044 144.005 103.17C145.969 102.296 148.129 101.859 150.488 101.859C152.427 101.859 154.235 102.153 155.911 102.739C157.599 103.314 159.102 104.134 160.419 105.2C161.747 106.253 162.855 107.516 163.741 108.989C164.627 110.449 165.237 112.071 165.572 113.855H160.975ZM207.751 111.557C207.535 109.737 206.661 108.324 205.129 107.319C203.596 106.313 201.717 105.81 199.49 105.81C197.862 105.81 196.437 106.074 195.216 106.6C194.007 107.127 193.061 107.851 192.379 108.773C191.708 109.695 191.373 110.743 191.373 111.916C191.373 112.897 191.607 113.741 192.073 114.448C192.552 115.142 193.163 115.723 193.905 116.19C194.647 116.645 195.426 117.022 196.24 117.321C197.054 117.608 197.802 117.842 198.484 118.021L202.22 119.027C203.177 119.278 204.243 119.626 205.416 120.069C206.601 120.512 207.733 121.116 208.81 121.882C209.899 122.637 210.797 123.606 211.504 124.791C212.21 125.977 212.563 127.431 212.563 129.155C212.563 131.142 212.042 132.938 211.001 134.542C209.971 136.147 208.463 137.422 206.476 138.367C204.5 139.313 202.1 139.786 199.275 139.786C196.641 139.786 194.36 139.361 192.433 138.511C190.517 137.661 189.009 136.476 187.907 134.956C186.818 133.435 186.201 131.669 186.058 129.658H190.655C190.775 131.047 191.241 132.196 192.056 133.106C192.882 134.004 193.923 134.674 195.18 135.117C196.449 135.548 197.814 135.764 199.275 135.764C200.975 135.764 202.501 135.488 203.854 134.938C205.207 134.375 206.278 133.597 207.068 132.603C207.858 131.597 208.253 130.424 208.253 129.083C208.253 127.862 207.912 126.869 207.23 126.102C206.547 125.336 205.65 124.714 204.536 124.235C203.423 123.756 202.22 123.337 200.927 122.978L196.401 121.685C193.528 120.859 191.253 119.679 189.577 118.147C187.901 116.615 187.063 114.609 187.063 112.131C187.063 110.072 187.62 108.276 188.733 106.744C189.859 105.2 191.367 104.002 193.259 103.152C195.162 102.29 197.287 101.859 199.634 101.859C202.004 101.859 204.111 102.284 205.955 103.134C207.798 103.972 209.259 105.122 210.336 106.582C211.426 108.043 212.001 109.701 212.06 111.557H207.751ZM221.394 139.14H216.725L230.229 102.362H234.826L248.33 139.14H243.661L232.671 108.181H232.384L221.394 139.14ZM223.118 124.773H241.938V128.724H223.118V124.773ZM254.059 139.14V102.362H258.512V135.189H275.608V139.14H254.059ZM282.504 139.14V102.362H304.7V106.313H286.957V118.74H303.55V122.69H286.957V135.189H304.987V139.14H282.504Z" fill="white"/>
<path d="M96.3718 168.894V166.561H112.66V168.894H105.831V188.278H103.201V168.894H96.3718ZM116.718 188.278V166.561H119.348V176.232H130.928V166.561H133.557V188.278H130.928V178.565H119.348V188.278H116.718ZM141.452 166.561V188.278H138.822V166.561H141.452ZM158.601 171.991C158.474 170.916 157.958 170.082 157.053 169.488C156.148 168.894 155.039 168.597 153.724 168.597C152.762 168.597 151.921 168.753 151.2 169.064C150.486 169.375 149.927 169.803 149.524 170.347C149.129 170.891 148.931 171.51 148.931 172.203C148.931 172.782 149.068 173.281 149.344 173.698C149.627 174.108 149.987 174.451 150.426 174.726C150.864 174.995 151.324 175.218 151.804 175.394C152.285 175.564 152.727 175.702 153.13 175.808L155.335 176.402C155.901 176.55 156.53 176.755 157.223 177.017C157.923 177.278 158.591 177.635 159.227 178.088C159.87 178.533 160.401 179.106 160.818 179.806C161.235 180.506 161.443 181.365 161.443 182.382C161.443 183.556 161.136 184.616 160.521 185.564C159.913 186.511 159.022 187.264 157.849 187.822C156.682 188.381 155.265 188.66 153.596 188.66C152.041 188.66 150.694 188.409 149.556 187.907C148.425 187.405 147.534 186.705 146.884 185.808C146.241 184.91 145.877 183.867 145.792 182.679H148.506C148.577 183.499 148.853 184.178 149.334 184.715C149.821 185.246 150.436 185.641 151.179 185.903C151.928 186.158 152.734 186.285 153.596 186.285C154.6 186.285 155.502 186.122 156.3 185.797C157.099 185.465 157.732 185.005 158.199 184.418C158.665 183.825 158.898 183.132 158.898 182.34C158.898 181.619 158.697 181.032 158.294 180.58C157.891 180.127 157.361 179.76 156.703 179.477C156.046 179.194 155.335 178.947 154.572 178.735L151.9 177.971C150.203 177.483 148.86 176.787 147.87 175.882C146.881 174.977 146.386 173.793 146.386 172.33C146.386 171.114 146.714 170.054 147.372 169.149C148.036 168.237 148.927 167.53 150.044 167.028C151.168 166.519 152.423 166.264 153.808 166.264C155.208 166.264 156.452 166.515 157.541 167.017C158.63 167.512 159.492 168.191 160.128 169.053C160.772 169.916 161.111 170.895 161.146 171.991H158.601ZM178.11 188.278L172.172 166.561H174.844L179.383 184.249H179.595L184.218 166.561H187.187L191.811 184.249H192.023L196.561 166.561H199.233L193.295 188.278H190.581L185.788 170.973H185.618L180.825 188.278H178.11ZM202.51 188.278V166.561H215.617V168.894H205.14V176.232H214.938V178.565H205.14V185.945H215.786V188.278H202.51ZM220.357 188.278V166.561H233.463V168.894H222.986V176.232H232.785V178.565H222.986V185.945H233.633V188.278H220.357ZM238.203 188.278V166.561H240.833V177.335H241.087L250.843 166.561H254.279L245.159 176.359L254.279 188.278H251.098L243.548 178.183L240.833 181.237V188.278H238.203ZM284.405 177.42C284.405 179.71 283.991 181.69 283.164 183.358C282.337 185.026 281.202 186.313 279.76 187.218C278.318 188.123 276.671 188.575 274.819 188.575C272.967 188.575 271.319 188.123 269.877 187.218C268.435 186.313 267.301 185.026 266.473 183.358C265.646 181.69 265.233 179.71 265.233 177.42C265.233 175.129 265.646 173.15 266.473 171.482C267.301 169.813 268.435 168.527 269.877 167.622C271.319 166.717 272.967 166.264 274.819 166.264C276.671 166.264 278.318 166.717 279.76 167.622C281.202 168.527 282.337 169.813 283.164 171.482C283.991 173.15 284.405 175.129 284.405 177.42ZM281.86 177.42C281.86 175.539 281.545 173.952 280.916 172.659C280.294 171.365 279.449 170.386 278.382 169.721C277.321 169.057 276.134 168.725 274.819 168.725C273.504 168.725 272.313 169.057 271.245 169.721C270.185 170.386 269.34 171.365 268.711 172.659C268.089 173.952 267.778 175.539 267.778 177.42C267.778 179.3 268.089 180.887 268.711 182.181C269.34 183.475 270.185 184.454 271.245 185.118C272.313 185.783 273.504 186.115 274.819 186.115C276.134 186.115 277.321 185.783 278.382 185.118C279.449 184.454 280.294 183.475 280.916 182.181C281.545 180.887 281.86 179.3 281.86 177.42ZM306.048 166.561V188.278H303.503L291.669 171.227H291.457V188.278H288.827V166.561H291.372L303.248 183.655H303.46V166.561H306.048ZM311.31 188.278V166.561H313.94V185.945H324.035V188.278H311.31ZM325.22 166.561H328.231L334.254 176.699H334.509L340.532 166.561H343.543L335.696 179.329V188.278H333.067V179.329L325.22 166.561Z" fill="black"/>
<path d="M87.8848 152.892H329.664" stroke="white" stroke-width="2.939" stroke-miterlimit="10" stroke-linecap="round" stroke-linejoin="round"/>
<path d="M243.845 219.538H173.701C167.817 219.538 163.047 214.768 163.047 208.884C163.047 203 167.817 198.23 173.701 198.23H243.845C249.729 198.23 254.499 203 254.499 208.884C254.499 214.769 249.73 219.538 243.845 219.538Z" fill="#5E17EB"/>
<path d="M179.965 205.872C179.909 205.391 179.678 205.018 179.273 204.752C178.868 204.487 178.372 204.354 177.784 204.354C177.354 204.354 176.978 204.424 176.655 204.563C176.336 204.702 176.086 204.893 175.906 205.136C175.729 205.38 175.64 205.657 175.64 205.966C175.64 206.226 175.702 206.449 175.825 206.635C175.952 206.819 176.113 206.972 176.309 207.095C176.505 207.215 176.71 207.315 176.925 207.394C177.14 207.47 177.338 207.532 177.518 207.579L178.505 207.845C178.758 207.911 179.039 208.003 179.349 208.12C179.662 208.237 179.961 208.396 180.245 208.599C180.533 208.798 180.77 209.054 180.957 209.367C181.143 209.68 181.236 210.064 181.236 210.519C181.236 211.044 181.099 211.518 180.824 211.942C180.552 212.366 180.154 212.703 179.629 212.952C179.107 213.202 178.473 213.327 177.727 213.327C177.031 213.327 176.429 213.215 175.92 212.99C175.414 212.766 175.016 212.453 174.725 212.051C174.437 211.65 174.274 211.183 174.236 210.652H175.45C175.482 211.019 175.605 211.322 175.82 211.563C176.039 211.8 176.314 211.977 176.646 212.094C176.981 212.208 177.341 212.265 177.727 212.265C178.176 212.265 178.579 212.192 178.936 212.046C179.294 211.898 179.577 211.692 179.785 211.43C179.994 211.164 180.098 210.855 180.098 210.5C180.098 210.178 180.008 209.915 179.828 209.713C179.648 209.511 179.411 209.346 179.117 209.22C178.822 209.093 178.505 208.983 178.163 208.888L176.968 208.546C176.209 208.328 175.609 208.017 175.166 207.612C174.723 207.207 174.502 206.678 174.502 206.023C174.502 205.48 174.649 205.005 174.943 204.601C175.24 204.193 175.639 203.877 176.138 203.652C176.641 203.424 177.202 203.311 177.822 203.311C178.448 203.311 179.004 203.423 179.491 203.647C179.978 203.869 180.364 204.172 180.648 204.558C180.936 204.944 181.088 205.382 181.104 205.872H179.965ZM183.17 213.156V203.443H184.346V207.769H189.525V203.443H190.702V213.156H189.525V208.812H184.346V213.156H183.17ZM201.251 208.3C201.251 209.324 201.067 210.21 200.697 210.956C200.327 211.702 199.819 212.277 199.174 212.682C198.529 213.087 197.793 213.289 196.964 213.289C196.136 213.289 195.399 213.087 194.754 212.682C194.109 212.277 193.602 211.702 193.232 210.956C192.862 210.21 192.677 209.324 192.677 208.3C192.677 207.275 192.862 206.39 193.232 205.644C193.602 204.898 194.109 204.322 194.754 203.918C195.399 203.513 196.136 203.311 196.964 203.311C197.793 203.311 198.529 203.513 199.174 203.918C199.819 204.322 200.327 204.898 200.697 205.644C201.067 206.39 201.251 207.275 201.251 208.3ZM200.113 208.3C200.113 207.459 199.973 206.749 199.691 206.17C199.413 205.592 199.035 205.154 198.558 204.857C198.083 204.559 197.552 204.411 196.964 204.411C196.376 204.411 195.843 204.559 195.366 204.857C194.892 205.154 194.514 205.592 194.232 206.17C193.954 206.749 193.815 207.459 193.815 208.3C193.815 209.141 193.954 209.851 194.232 210.429C194.514 211.008 194.892 211.446 195.366 211.743C195.843 212.04 196.376 212.189 196.964 212.189C197.552 212.189 198.083 212.04 198.558 211.743C199.035 211.446 199.413 211.008 199.691 210.429C199.973 209.851 200.113 209.141 200.113 208.3ZM203.229 213.156V203.443H206.511C207.273 203.443 207.896 203.581 208.38 203.856C208.867 204.128 209.227 204.496 209.461 204.961C209.695 205.426 209.812 205.944 209.812 206.517C209.812 207.089 209.695 207.609 209.461 208.077C209.23 208.545 208.873 208.918 208.389 209.196C207.905 209.471 207.286 209.609 206.53 209.609H204.178V208.565H206.492C207.014 208.565 207.433 208.475 207.749 208.295C208.065 208.115 208.294 207.871 208.437 207.565C208.582 207.255 208.655 206.905 208.655 206.517C208.655 206.128 208.582 205.78 208.437 205.473C208.294 205.167 208.063 204.926 207.744 204.752C207.425 204.575 207.001 204.487 206.473 204.487H204.405V213.156H203.229ZM223.165 203.443V213.156H222.026L216.734 205.53H216.639V213.156H215.463V203.443H216.601L221.913 211.088H222.008V203.443H223.165ZM233.713 208.3C233.713 209.324 233.529 210.21 233.159 210.956C232.789 211.702 232.281 212.277 231.636 212.682C230.991 213.087 230.255 213.289 229.426 213.289C228.598 213.289 227.861 213.087 227.216 212.682C226.571 212.277 226.064 211.702 225.694 210.956C225.324 210.21 225.139 209.324 225.139 208.3C225.139 207.275 225.324 206.39 225.694 205.644C226.064 204.898 226.571 204.322 227.216 203.918C227.861 203.513 228.598 203.311 229.426 203.311C230.255 203.311 230.991 203.513 231.636 203.918C232.281 204.322 232.789 204.898 233.159 205.644C233.529 206.39 233.713 207.275 233.713 208.3ZM232.575 208.3C232.575 207.459 232.435 206.749 232.153 206.17C231.875 205.592 231.497 205.154 231.02 204.857C230.545 204.559 230.014 204.411 229.426 204.411C228.838 204.411 228.305 204.559 227.828 204.857C227.354 205.154 226.976 205.592 226.694 206.17C226.416 206.749 226.277 207.459 226.277 208.3C226.277 209.141 226.416 209.851 226.694 210.429C226.976 211.008 227.354 211.446 227.828 211.743C228.305 212.04 228.838 212.189 229.426 212.189C230.014 212.189 230.545 212.04 231.02 211.743C231.497 211.446 231.875 211.008 232.153 210.429C232.435 209.851 232.575 209.141 232.575 208.3ZM237.455 213.156L234.8 203.443H235.995L238.025 211.354H238.119L240.187 203.443H241.515L243.583 211.354H243.678L245.708 203.443H246.903L244.247 213.156H243.033L240.889 205.416H240.813L238.67 213.156H237.455Z" fill="white"/>
<path d="M70.6113 104.984C96.7288 104.984 117.901 83.8118 117.901 57.6943C117.901 31.5767 96.7288 10.4043 70.6113 10.4043C44.4937 10.4043 23.3213 31.5767 23.3213 57.6943C23.3213 83.8118 44.4937 104.984 70.6113 104.984Z" fill="#210852"/>
<path d="M46.4534 44.8526L46.4823 38.7297C46.4823 35.2557 46.3714 32.3125 46.1494 29.9C46.1205 29.5912 46.1977 29.3644 46.381 29.2197C46.5644 29.0653 46.7718 28.9881 47.0034 28.9881C47.2447 28.9881 47.4618 29.0653 47.6548 29.2197C47.8478 29.3644 47.9346 29.6925 47.9153 30.204C47.896 30.7058 47.8719 31.3475 47.843 32.1291C47.8237 32.9011 47.8044 33.7214 47.7851 34.5899C47.7465 36.3269 47.7272 37.8998 47.7272 39.3087C47.7272 40.7176 47.7272 41.6826 47.7272 42.2037C47.7368 42.7151 47.7465 43.2121 47.7561 43.6946C47.8044 46.2615 47.9491 47.8875 48.1904 48.5726C48.4316 49.2578 48.7115 49.7837 49.0299 50.1504C49.6668 50.8838 50.487 51.2505 51.4906 51.2505C52.5232 51.2505 53.3772 50.8693 54.0527 50.107C54.7475 49.3157 55.1528 48.2108 55.2686 46.7922C55.3747 45.0552 55.4278 43.6608 55.4278 42.609C55.4278 41.5571 55.423 40.65 55.4133 39.8877C55.4133 39.1157 55.4037 38.252 55.3844 37.2967C55.3072 34.5175 55.23 32.023 55.1528 29.8132C55.1431 29.5044 55.2252 29.2776 55.3989 29.1328C55.5726 28.9881 55.7704 28.9157 55.9923 28.9157C56.2143 28.9157 56.4169 28.9881 56.6003 29.1328C56.7836 29.2776 56.8705 29.5044 56.8608 29.8132C56.8222 31.251 56.7981 32.6695 56.7885 34.0688C56.7885 35.468 56.7836 36.8576 56.774 38.2376C56.7547 41.5861 56.692 43.9937 56.5858 45.4605C56.4797 46.9177 56.3156 48.0178 56.0937 48.7608C55.8814 49.5039 55.5726 50.1649 55.1673 50.7439C54.2602 52.037 53.0395 52.6835 51.5051 52.6835C48.9672 52.6835 47.3846 51.2794 46.7573 48.4713C46.5547 47.5932 46.4534 46.6137 46.4534 45.5329V44.8526ZM62.9692 45.9672C63.0464 48.2928 63.1043 50.0829 63.1429 51.3373C63.1526 51.6654 63.0706 51.9115 62.8969 52.0756C62.7328 52.23 62.5495 52.3072 62.3468 52.3072C62.1538 52.3072 61.9801 52.2348 61.8257 52.09C61.6713 51.9356 61.5941 51.6944 61.5941 51.3663V48.095L61.5797 43.6077V39.5837C61.5797 36.9589 61.5555 35.2895 61.5073 34.5754C61.4687 33.8613 61.4397 33.3209 61.4204 32.9542C61.4011 32.5875 61.377 32.216 61.3481 31.8396C61.3191 31.4537 61.2902 31.0773 61.2612 30.7106C61.2419 30.3439 61.266 30.093 61.3336 29.9579C61.4108 29.8228 61.5025 29.7263 61.6086 29.6684C61.7147 29.6009 61.8257 29.5574 61.9415 29.5381C62.0573 29.5188 62.3034 29.4609 62.6797 29.3644C63.8667 29.0749 64.9185 28.9302 65.8353 28.9302C66.752 28.9302 67.5288 29.046 68.1657 29.2776C68.8026 29.5092 69.3478 29.8614 69.8014 30.3343C70.7664 31.3282 71.2489 32.7467 71.2489 34.5899C71.2489 37.0989 70.3707 39.4004 68.6145 41.4944C67.1959 43.1831 65.3142 44.6741 62.9692 45.9672ZM62.9258 44.592C67.5867 42.0638 69.9172 38.7731 69.9172 34.7202C69.9172 32.491 69.1452 31.058 67.6012 30.4211C66.4529 29.9483 65.0585 29.9917 63.418 30.5514C63.225 30.6189 63.0416 30.6865 62.8679 30.754C62.8004 32.4428 62.7666 34.1798 62.7666 35.965V40.3364C62.7666 40.5198 62.7714 40.6983 62.7811 40.872C62.7907 41.0457 62.7955 41.2339 62.7955 41.4365C62.8052 41.6295 62.8148 41.8852 62.8245 42.2037C62.8438 42.5125 62.8631 42.9033 62.8824 43.3761C62.892 43.7139 62.9065 44.1192 62.9258 44.592ZM76.2427 28.9447C76.5129 28.9447 78.2499 28.9061 81.4537 28.8289C81.8976 28.8289 82.2016 28.9977 82.3656 29.3355C82.4042 29.432 82.4235 29.543 82.4235 29.6684C82.4235 29.7939 82.3511 29.9241 82.2064 30.0592C82.0616 30.1847 81.7914 30.2426 81.3958 30.2329C81.0001 30.2233 80.6141 30.2088 80.2378 30.1895C79.8711 30.1702 79.5285 30.1557 79.2101 30.1461C78.6407 30.1268 78.1534 30.122 77.7481 30.1316C77.6709 32.3511 77.6323 34.7588 77.6323 37.3546C77.6323 40.1338 77.6323 42.0396 77.6323 43.0722C77.642 44.0951 77.6564 45.0745 77.6757 46.0106C77.7047 48.4038 77.7336 50.1794 77.7626 51.3373C77.7722 51.6654 77.695 51.9115 77.531 52.0756C77.3766 52.23 77.2029 52.3072 77.0099 52.3072C76.8265 52.3072 76.6432 52.2348 76.4599 52.09C76.2862 51.9356 76.1993 51.7089 76.1993 51.4097L76.1848 49.5135L76.3296 35.69C76.3296 33.1134 76.2958 31.2607 76.2283 30.1316C75.7168 30.122 75.1089 30.1413 74.4044 30.1895C73.5745 30.2474 72.9714 30.2908 72.5951 30.3198C72.2284 30.3391 71.9678 30.2764 71.8134 30.1316C71.659 29.9869 71.5818 29.8228 71.5818 29.6395C71.5818 29.4465 71.659 29.2583 71.8134 29.0749C71.9678 28.8916 72.2139 28.8096 72.5516 28.8289C72.899 28.8385 73.1982 28.8482 73.4491 28.8578C73.7 28.8675 73.9171 28.8771 74.1004 28.8868C74.2934 28.8964 74.4623 28.9061 74.6071 28.9157C74.7518 28.9254 74.8966 28.935 75.0413 28.9447C75.1957 28.9447 75.3694 28.9447 75.5624 28.9447H76.2427ZM94.2929 49.4701C93.1735 51.6124 91.6054 52.6835 89.5886 52.6835C87.5717 52.6835 86.0857 51.6413 85.1303 49.5569C84.1846 47.4725 83.7118 44.3942 83.7118 40.3219C83.7118 37.1085 84.257 34.4114 85.3474 32.2305C85.8878 31.169 86.544 30.3246 87.316 29.6974C88.088 29.0605 88.9758 28.742 89.9794 28.742C90.9926 28.742 91.8756 29.0074 92.6283 29.5381C93.381 30.0592 94.0034 30.8168 94.4956 31.8107C95.4606 33.76 95.9527 36.5971 95.972 40.3219C95.9913 44.2398 95.4316 47.2892 94.2929 49.4701ZM92.7152 31.6225C92.3774 31.1207 91.9818 30.7299 91.5282 30.4501C91.0747 30.1606 90.5729 30.0158 90.0228 30.0158C89.4728 30.0158 88.9758 30.1606 88.5319 30.4501C88.088 30.7299 87.6827 31.1207 87.316 31.6225C86.959 32.1243 86.6405 32.7178 86.3607 33.4029C86.0905 34.0784 85.8589 34.807 85.6659 35.5886C85.2895 37.1905 85.1014 38.7924 85.1014 40.3943C85.1014 41.9866 85.1593 43.3231 85.2751 44.4039C85.4005 45.4847 85.5694 46.4207 85.7817 47.212C85.994 47.9936 86.2449 48.6498 86.5344 49.1806C86.8335 49.7017 87.152 50.1215 87.4897 50.4399C88.117 51.0092 88.8648 51.2939 89.7333 51.2939C92.3002 51.2939 93.8587 48.9345 94.4087 44.2157C94.5342 43.1349 94.5969 42.0348 94.5969 40.9154C94.5969 39.796 94.5631 38.8166 94.4956 37.977C94.428 37.1375 94.3171 36.3317 94.1627 35.5597C94.0179 34.7781 93.8249 34.0495 93.5837 33.374C93.3521 32.6985 93.0626 32.1147 92.7152 31.6225Z" fill="white"/>
<path d="M55.9129 72.0404C55.4401 72.0404 55.0396 72.108 54.7115 72.2431C54.3834 72.3685 54.1084 72.5229 53.8865 72.7063C53.5198 73.0247 53.2592 73.3528 53.1048 73.6906C52.8153 74.3275 52.4679 74.6459 52.0626 74.6459C51.6766 74.6459 51.4354 74.4674 51.3389 74.1103C51.3003 73.9945 51.2955 73.7967 51.3244 73.5169C51.363 73.2274 51.4016 72.88 51.4402 72.4747C51.4885 72.0694 51.5319 71.6351 51.5705 71.1719C51.638 70.1683 51.6718 68.9621 51.6718 67.5532C51.6718 64.8512 51.5898 62.487 51.4257 60.4605C51.3968 59.978 51.6043 59.6885 52.0482 59.592C52.164 59.5727 52.2942 59.5727 52.439 59.592C52.5934 59.6113 52.825 59.6306 53.1338 59.6499C53.4426 59.6692 53.79 59.6789 54.176 59.6789C55.3147 59.6982 56.1397 59.7078 56.6512 59.7078C57.7706 59.7078 58.5619 59.6933 59.0251 59.6644C59.4979 59.6354 59.8212 59.6933 59.9949 59.8381C60.1782 59.9828 60.2699 60.1758 60.2699 60.4171C60.2699 60.6583 60.1686 60.8562 59.9659 61.0106C59.7729 61.165 59.4979 61.2229 59.1409 61.1843C58.7935 61.1457 58.3399 61.1167 57.7802 61.0974C57.2302 61.0685 56.6463 61.0492 56.0287 61.0395C55.4112 61.0202 54.7936 61.0106 54.176 61.0106C53.7224 61.0009 53.3026 60.9913 52.9166 60.9816C52.9166 62.0045 52.9215 62.9454 52.9311 63.8042C52.9311 64.7789 52.9311 65.7342 52.9311 66.6702C52.9118 68.4265 52.8829 70.289 52.8443 72.2576C53.375 71.5628 54.1374 71.1044 55.1313 70.8824C55.4112 70.8149 55.6283 70.7811 55.7827 70.7811C57.2398 70.7811 58.3689 71.2926 59.1698 72.3155C59.9707 73.3384 60.3712 74.9161 60.3712 77.0488C60.3712 78.9305 59.908 80.4648 58.9816 81.6518C58.0745 82.8098 56.9262 83.3888 55.5366 83.3888C54.0602 83.3888 52.8973 82.9063 52.0482 81.9413C51.17 80.9377 50.7599 79.5915 50.8178 77.9028C50.8274 77.6036 50.9095 77.3865 51.0639 77.2514C51.2279 77.1067 51.4113 77.0343 51.6139 77.0343C51.8166 77.0343 51.9999 77.1163 52.164 77.2804C52.3376 77.4444 52.41 77.6374 52.3811 77.8593C52.3521 78.1585 52.3376 78.4818 52.3376 78.8292C52.3376 79.1766 52.4148 79.5722 52.5692 80.0161C52.7236 80.4504 52.9408 80.8315 53.2206 81.1596C53.8286 81.8544 54.6006 82.2018 55.5366 82.2018C56.7139 82.2018 57.6113 81.6904 58.2289 80.6675C58.7693 79.7604 59.0395 78.5686 59.0395 77.0922C59.0395 75.7219 58.7645 74.5542 58.2145 73.5893C57.6258 72.5567 56.8586 72.0404 55.9129 72.0404ZM69.0272 83.4032C66.3252 83.4032 64.6847 80.9377 64.1057 76.0066C63.9224 74.4433 63.8307 72.7256 63.8307 70.8535C63.8307 68.9814 63.9417 67.3506 64.1636 65.961C64.3856 64.5617 64.7233 63.3844 65.1769 62.4291C66.1129 60.4509 67.4832 59.4617 69.2878 59.4617C71.1405 59.4617 72.4915 60.4123 73.3407 62.3133C74.1417 64.1275 74.5518 66.926 74.5711 70.7087C74.6 76.8172 73.582 80.7543 71.5169 82.5203C70.8124 83.1089 69.9826 83.4032 69.0272 83.4032ZM69.0127 82.1005C71.8016 82.1005 73.196 78.337 73.196 70.8101C73.196 66.5737 72.7376 63.7125 71.8209 62.2265C71.2033 61.2325 70.3589 60.7355 69.2878 60.7355C66.5761 60.7355 65.2203 64.142 65.2203 70.9548C65.2203 76.793 65.9489 80.3104 67.406 81.507C67.8789 81.9027 68.4144 82.1005 69.0127 82.1005ZM85.6444 77.8304C85.6444 80.3394 86.1848 81.5939 87.2656 81.5939C88.1437 81.5939 88.7179 80.8171 88.9881 79.2634C89.075 78.7713 89.1184 78.2309 89.1184 77.6422C89.1184 77.0536 89.0701 76.5421 88.9736 76.1079C88.8868 75.664 88.7613 75.2925 88.5973 74.9933C88.2788 74.3661 87.8639 74.0524 87.3524 74.0524C86.8217 74.0524 86.3971 74.4433 86.0786 75.2249C85.7891 75.939 85.6444 76.8075 85.6444 77.8304ZM87.3814 72.6773C88.2981 72.6677 89.0122 73.1116 89.5237 74.009C90.0351 74.9065 90.2908 76.1803 90.2908 77.8304C90.2908 79.1524 90.0158 80.2911 89.4658 81.2465C88.8868 82.2887 88.1437 82.8098 87.2366 82.8098C86.3392 82.8098 85.6396 82.3948 85.1378 81.5649C84.636 80.7254 84.3851 79.5336 84.3851 77.9896C84.3851 75.4613 84.9834 73.816 86.18 73.0537C86.5467 72.8124 86.9471 72.687 87.3814 72.6773ZM82.5178 76.6724C82.1029 77.8497 81.7169 78.9546 81.3598 79.9872C81.0028 81.0101 80.7374 81.7772 80.5637 82.2887C80.39 82.7905 80.226 83.0944 80.0716 83.2006C79.9172 83.3067 79.7386 83.3598 79.536 83.3598C79.343 83.3598 79.1741 83.2585 79.0294 83.0558C78.8846 82.8532 78.9136 82.501 79.1162 81.9992C79.3285 81.4974 79.6132 80.7978 79.9702 79.9003C80.3273 79.0029 80.7085 78.033 81.1138 76.9909C81.5191 75.939 81.9388 74.8389 82.3731 73.6906C82.8073 72.5422 83.2367 71.3842 83.6613 70.2166C84.0956 69.049 84.5154 67.8958 84.9207 66.7571C85.326 65.6088 85.7023 64.5231 86.0497 63.5002C86.8024 61.2711 87.3235 59.5775 87.613 58.4196C87.6612 58.188 87.7674 58.0143 87.9314 57.8985C88.1051 57.773 88.2644 57.7103 88.4091 57.7103C88.5635 57.7103 88.7034 57.7489 88.8289 57.8261C88.9543 57.8936 89.0557 57.9853 89.1329 58.1011C89.3162 58.3713 89.3307 58.6512 89.1763 58.9407C89.0219 59.2205 88.8144 59.6837 88.5539 60.3302C88.2933 60.9671 87.9845 61.744 87.6275 62.6607C87.2801 63.5774 86.8941 64.6052 86.4695 65.7439C86.0545 66.8729 85.6203 68.055 85.1667 69.2902C84.7228 70.5157 84.2741 71.7606 83.8206 73.0247C83.367 74.2792 82.9328 75.4951 82.5178 76.6724ZM81.0269 67.2782C81.8954 67.2782 82.4696 66.4965 82.7494 64.9333C82.8363 64.4411 82.8797 63.9055 82.8797 63.3265C82.8797 62.7379 82.8314 62.2216 82.7349 61.7777C82.6481 61.3338 82.5275 60.9623 82.3731 60.6632C82.045 60.0359 81.6204 59.7223 81.0993 59.7223C80.5782 59.7223 80.1584 60.1131 79.84 60.8948C79.5505 61.6089 79.4057 62.5594 79.4057 63.7463C79.4057 64.9236 79.5553 65.8066 79.8544 66.3952C80.1536 66.9839 80.5444 67.2782 81.0269 67.2782ZM79.9413 58.7235C80.2983 58.4823 80.6988 58.3568 81.1427 58.3472C81.5963 58.3375 82.0015 58.4485 82.3586 58.6801C82.7253 58.9021 83.0341 59.235 83.285 59.6789C83.7964 60.586 84.0522 61.8598 84.0522 63.5002C84.0522 64.8223 83.782 65.961 83.2416 66.9163C82.6529 67.9585 81.905 68.4796 80.998 68.4796C80.1005 68.4796 79.4009 68.0647 78.8991 67.2348C78.3973 66.3952 78.1464 65.2083 78.1464 63.6739C78.1464 61.1457 78.7447 59.4955 79.9413 58.7235Z" fill="white"/>
</svg>
