<svg width="320" height="248" viewBox="0 0 320 248" fill="none" xmlns="http://www.w3.org/2000/svg">
<path d="M73.8681 240.555C73.8681 240.555 107.294 257.916 145.448 239.615C183.602 221.314 195.984 185.855 215.816 159.184C226.192 145.257 243.17 137.457 256.115 125.717C297.522 88.196 282.578 25.439 244.702 8.24562C211.91 -6.65673 174.027 -1.31556 127.085 23.914C80.1424 49.1435 46.3057 65.4247 21.6751 115.703C-2.95556 165.981 32.3365 216.231 73.8681 240.555Z" fill="#8758FF"/>
<path opacity="0.7" d="M73.8681 240.555C73.8681 240.555 107.294 257.916 145.448 239.615C183.602 221.314 195.984 185.855 215.816 159.184C226.192 145.257 243.17 137.457 256.115 125.716C297.522 88.196 282.578 25.439 244.702 8.24561C211.91 -6.65673 174.027 -1.31557 127.085 23.914C80.1424 49.1435 46.3057 65.4247 21.6751 115.703C-2.95556 165.981 32.3365 216.231 73.8681 240.555Z" fill="white"/>
<path d="M67.6636 89.4424C79.936 89.4424 89.8848 79.4936 89.8848 67.2212C89.8848 54.9488 79.936 45 67.6636 45C55.3912 45 45.4424 54.9488 45.4424 67.2212C45.4424 79.4936 55.3912 89.4424 67.6636 89.4424Z" stroke="#263238" stroke-width="1.23197" stroke-linecap="round" stroke-linejoin="round"/>
<path d="M70.5386 85.4002C80.5833 83.8165 87.4422 74.3899 85.8584 64.3453C84.2747 54.3007 74.8481 47.4418 64.8035 49.0255C54.7589 50.6092 47.9 60.0358 49.4837 70.0804C51.0674 80.1251 60.494 86.984 70.5386 85.4002Z" stroke="#263238" stroke-width="1.23197" stroke-linecap="round" stroke-linejoin="round"/>
<path d="M55.9159 67.2212H67.6637V84.1639" stroke="#263238" stroke-width="1.23197" stroke-linecap="round" stroke-linejoin="round"/>
<path d="M59.5509 143.175H110.616V141.114H59.5509V143.175Z" fill="white" stroke="#263238" stroke-width="1.23197" stroke-linecap="round" stroke-linejoin="round"/>
<path d="M45.1499 143.175H96.2148V141.114H45.1499V143.175Z" fill="white" stroke="#263238" stroke-width="1.23197" stroke-linecap="round" stroke-linejoin="round"/>
<path d="M50.8392 137.45H93.4223L88.8332 104.944H46.2501L50.8392 137.45Z" fill="white" stroke="#263238" stroke-width="1.23197" stroke-linecap="round" stroke-linejoin="round"/>
<path d="M49.0776 137.45H91.6607L87.0716 104.944H44.4885L49.0776 137.45Z" fill="#263238" stroke="#263238" stroke-width="1.23197" stroke-linecap="round" stroke-linejoin="round"/>
<path d="M62.1275 122.339L57.8518 143.175H68.8405L73.1163 122.339H62.1275ZM69.5787 128.523C69.5585 128.608 69.5105 128.683 69.4423 128.738C69.3741 128.792 69.2898 128.822 69.2027 128.823L62.9771 128.753C62.9185 128.752 62.8607 128.739 62.8081 128.713C62.7555 128.687 62.7094 128.65 62.6733 128.603C62.6371 128.557 62.6119 128.503 62.5994 128.446C62.5869 128.389 62.5874 128.329 62.6011 128.272L63.1651 125.94C63.1856 125.854 63.2347 125.777 63.3043 125.723C63.3738 125.668 63.4598 125.639 63.5481 125.64L69.7737 125.703C69.8314 125.703 69.8883 125.717 69.9401 125.742C69.9919 125.768 70.0372 125.805 70.0727 125.85C70.1082 125.896 70.1329 125.949 70.1451 126.005C70.1572 126.062 70.1564 126.12 70.1428 126.176L69.5787 128.523Z" fill="white" stroke="#263238" stroke-width="1.23197" stroke-linecap="round" stroke-linejoin="round"/>
<path d="M53.0924 104.398C54.0872 100.183 51.4769 95.9598 47.2622 94.965C43.0474 93.9703 38.8243 96.5806 37.8295 100.795C36.8347 105.01 39.445 109.233 43.6598 110.228C47.8745 111.223 52.0977 108.612 53.0924 104.398Z" fill="#8758FF" stroke="#263238" stroke-width="1.23197" stroke-linecap="round" stroke-linejoin="round"/>
<path d="M45.3519 104.199L43.04 106.831C42.9388 106.964 42.8165 107.079 42.6778 107.172C42.5192 107.293 42.3332 107.372 42.1365 107.404C41.9397 107.436 41.7381 107.418 41.5497 107.353C41.4038 107.31 41.27 107.233 41.1588 107.129C41.0476 107.025 40.9621 106.897 40.9091 106.754C40.8312 106.519 40.8233 106.266 40.8863 106.026C40.9494 105.786 41.0806 105.57 41.2642 105.403L43.9452 102.562L41.3895 99.5957C41.1937 99.36 41.0812 99.0662 41.0692 98.76C41.0586 98.6339 41.0742 98.507 41.1149 98.3871C41.1557 98.2673 41.2207 98.1572 41.306 98.0637C41.4721 97.89 41.6775 97.7586 41.9049 97.6807C42.1547 97.5908 42.428 97.5908 42.6778 97.6807C42.978 97.7951 43.239 97.9933 43.4299 98.2517L45.6513 100.898L47.7405 98.4676C47.8485 98.3133 47.9801 98.177 48.1304 98.0637C48.2872 97.9171 48.4825 97.8183 48.6934 97.7788C48.9043 97.7394 49.1221 97.7609 49.3212 97.8408C49.464 97.8926 49.5943 97.974 49.7035 98.0796C49.8127 98.1852 49.8984 98.3127 49.9549 98.4536C50.0294 98.6157 50.054 98.7963 50.0255 98.9725C49.9969 99.1486 49.9166 99.3122 49.7948 99.4425L47.0093 102.486L49.7948 105.752C49.8833 105.862 49.9559 105.984 50.0106 106.114C50.078 106.283 50.0974 106.467 50.0666 106.647C50.0359 106.826 49.9563 106.993 49.8365 107.13C49.73 107.266 49.595 107.377 49.441 107.455C49.287 107.534 49.1178 107.577 48.9452 107.583C48.6887 107.588 48.4353 107.526 48.2096 107.404C47.9839 107.282 47.7935 107.104 47.6569 106.887L45.3519 104.199Z" fill="#263238"/>
<path d="M145.845 155.027L143.631 238.39C143.618 238.921 143.398 239.426 143.018 239.796C142.638 240.167 142.128 240.375 141.598 240.375C141.065 240.369 140.555 240.156 140.178 239.78C139.801 239.404 139.585 238.895 139.578 238.362L138.492 155.027H145.845Z" fill="white" stroke="#263238" stroke-width="1.23197" stroke-linecap="round" stroke-linejoin="round"/>
<path d="M118.924 155.027L116.716 238.39C116.703 238.922 116.483 239.428 116.101 239.799C115.72 240.17 115.208 240.377 114.676 240.375C114.14 240.375 113.626 240.163 113.245 239.786C112.865 239.41 112.648 238.898 112.642 238.362L111.549 155.027H118.924Z" fill="white" stroke="#263238" stroke-width="1.23197" stroke-linecap="round" stroke-linejoin="round"/>
<path d="M52.3366 155.027L50.1291 238.39C50.1164 238.922 49.8956 239.428 49.5141 239.799C49.1326 240.17 48.6209 240.377 48.0887 240.375C47.5531 240.375 47.039 240.163 46.6582 239.786C46.2775 239.41 46.0608 238.898 46.0553 238.362L44.962 155.027H52.3366Z" fill="white" stroke="#263238" stroke-width="1.23197" stroke-linecap="round" stroke-linejoin="round"/>
<path d="M25.3731 155.027L23.1934 238.39C23.1809 238.915 22.9659 239.414 22.5934 239.784C22.2209 240.154 21.7198 240.366 21.1949 240.375C20.9252 240.381 20.6569 240.334 20.4055 240.236C20.1541 240.138 19.9246 239.991 19.7304 239.804C19.5361 239.617 19.3808 239.393 19.2736 239.146C19.1664 238.898 19.1093 238.632 19.1057 238.362L18.0333 155.027H25.3731Z" fill="white" stroke="#263238" stroke-width="1.23197" stroke-linecap="round" stroke-linejoin="round"/>
<path d="M15.5752 155.904L148.478 155.904V145.925L15.5752 145.925V155.904Z" fill="white" stroke="#263238" stroke-width="1.23197" stroke-linecap="round" stroke-linejoin="round"/>
<path d="M111.354 155.904H148.478V145.925H111.354V155.904Z" fill="white" stroke="#263238" stroke-width="1.23197" stroke-linecap="round" stroke-linejoin="round"/>
<path d="M15.5752 150.912L148.478 150.912V145.926L15.5752 145.926V150.912Z" fill="#263238" stroke="#263238" stroke-width="1.23197" stroke-linecap="round" stroke-linejoin="round"/>
<path d="M13.5139 147.986L150.539 147.986V142.492L13.5139 142.492V147.986Z" fill="#8758FF" stroke="#263238" stroke-width="1.23197" stroke-linecap="round" stroke-linejoin="round"/>
<path d="M13.5139 147.986H108.889V142.492H13.5139V147.986Z" fill="#8758FF" stroke="#263238" stroke-width="1.23197" stroke-linecap="round" stroke-linejoin="round"/>
<path d="M312.814 240.374H318.545" stroke="#263238" stroke-width="1.23197" stroke-linecap="round" stroke-linejoin="round"/>
<path d="M1 240.374H303.49" stroke="#263238" stroke-width="1.23197" stroke-linecap="round" stroke-linejoin="round"/>
<path d="M189.959 177.074C187.099 176.52 184.416 175.115 182.181 173.002C179.945 170.888 178.235 168.139 177.222 165.031C176.209 161.922 175.928 158.564 176.409 155.293C176.889 152.022 178.114 148.953 179.959 146.393L240.565 62.2445C242.398 59.6651 244.798 57.6895 247.518 56.52C250.239 55.3505 253.183 55.0293 256.048 55.5892H256.106C258.962 56.1241 261.642 57.5144 263.875 59.6187C266.108 61.7229 267.814 64.4659 268.819 67.5687L302.253 169.66C303.271 172.769 303.556 176.129 303.078 179.403C302.601 182.677 301.378 185.75 299.533 188.313C297.688 190.876 295.285 192.838 292.567 194.003C289.848 195.168 286.91 195.495 284.046 194.95L190.006 177.007L189.959 177.074Z" fill="#8758FF"/>
<path d="M189.959 177.074L190.948 177.22L193.87 177.739L205.093 179.815L246.327 187.575L274.802 192.9L282.614 194.377C283.925 194.681 285.257 194.859 286.595 194.91C287.943 194.94 289.29 194.77 290.6 194.404C293.327 193.637 295.835 192.081 297.884 189.885C299.933 187.689 301.454 184.927 302.299 181.865C303.181 178.683 303.282 175.285 302.59 172.042C302.195 170.4 301.713 168.786 301.147 167.21C300.611 165.587 300.087 163.963 299.552 162.325C297.402 155.786 295.214 149.13 292.986 142.36C288.527 128.77 283.917 114.701 279.203 100.285C276.874 93.0799 274.546 85.981 272.218 78.9885C271.054 75.4745 269.889 72.0005 268.795 68.5398C267.966 65.591 266.503 62.9268 264.541 60.7906C262.579 58.6543 260.18 57.1141 257.564 56.3106C254.947 55.5071 252.197 55.4659 249.563 56.1908C246.929 56.9157 244.495 58.3836 242.485 60.4603C241.414 61.6419 240.418 62.9096 239.505 64.2538C237.611 66.9159 235.733 69.5203 233.871 72.0671L194.418 126.733C188.83 134.533 183.673 141.521 179.284 147.751C177.402 150.777 176.36 154.38 176.292 158.093C176.249 161.213 176.877 164.298 178.12 167.077C179.101 169.299 180.458 171.277 182.113 172.894C183.336 174.069 184.7 175.037 186.164 175.769C187.068 176.215 188.002 176.575 188.958 176.847C189.598 177.007 189.936 177.113 189.936 177.113C189.936 177.113 189.598 177.113 188.934 176.914C186.58 176.334 184.369 175.161 182.462 173.48C180.555 171.799 178.999 169.653 177.91 167.197C176.629 164.388 175.974 161.261 176.001 158.093C176.05 154.305 177.096 150.622 179.004 147.524C183.37 141.228 188.492 134.214 194.068 126.427L233.417 71.6677L239.051 63.8412C239.971 62.4672 240.983 61.1767 242.078 59.9811C243.248 58.7737 244.561 57.761 245.978 56.973C248.141 55.7578 250.506 55.0878 252.915 55.0081C255.324 54.9283 257.719 55.4409 259.94 56.5109C262.16 57.581 264.154 59.1837 265.786 61.2107C267.418 63.2377 268.651 65.6417 269.4 68.2603C270.565 71.721 271.729 75.195 272.823 78.709C275.151 85.7236 277.48 92.858 279.808 100.006C284.534 114.421 289.121 128.49 293.591 142.094C295.811 148.882 297.992 155.537 300.134 162.059L301.729 166.931C302.301 168.534 302.791 170.174 303.196 171.842C303.904 175.202 303.795 178.718 302.881 182.012C302.001 185.175 300.426 188.026 298.306 190.294C296.186 192.561 293.593 194.169 290.774 194.963C289.417 195.33 288.024 195.499 286.63 195.469C285.265 195.416 283.906 195.234 282.567 194.923L274.767 193.432L246.304 187.961L205.105 179.975L193.905 177.779L190.995 177.193L189.959 177.074Z" fill="#263238"/>
<path d="M255.291 61.1924C253.278 60.7745 251.204 60.9799 249.284 61.7874C247.364 62.5948 245.668 63.9749 244.372 65.7845L183.766 149.933C182.486 151.731 181.638 153.879 181.307 156.166C180.976 158.453 181.173 160.799 181.879 162.972C182.585 165.145 183.774 167.07 185.33 168.555C186.886 170.041 188.755 171.037 190.751 171.443L284.861 189.439C286.87 189.816 288.93 189.583 290.836 188.765C292.743 187.947 294.428 186.571 295.724 184.776C297.02 182.98 297.881 180.827 298.222 178.532C298.563 176.237 298.371 173.88 297.666 171.696L264.197 69.6179C263.496 67.4391 262.303 65.5115 260.738 64.0315C259.174 62.5515 257.294 61.5719 255.291 61.1924Z" fill="white"/>
<path d="M234.686 154.712C234.821 153.782 235.119 152.892 235.562 152.098C236.006 151.303 236.586 150.619 237.267 150.088C237.948 149.557 238.716 149.189 239.525 149.007C240.334 148.825 241.167 148.832 241.974 149.028C242.766 149.176 243.526 149.501 244.209 149.984C244.892 150.467 245.484 151.099 245.954 151.845C246.423 152.59 246.759 153.434 246.943 154.328C247.127 155.221 247.155 156.148 247.026 157.054C246.897 157.961 246.613 158.829 246.19 159.61C245.767 160.391 245.214 161.069 244.562 161.605C243.911 162.141 243.173 162.526 242.391 162.736C241.609 162.947 240.799 162.979 240.006 162.831C239.184 162.714 238.391 162.409 237.674 161.934C236.958 161.459 236.332 160.823 235.836 160.065C235.339 159.307 234.981 158.442 234.784 157.522C234.586 156.603 234.553 155.647 234.686 154.712ZM243.196 98.8076L254.733 100.964L246.851 142.293L239.133 140.855L243.196 98.8076Z" fill="#8758FF"/>
<path d="M227.933 184.314L218.096 239.952H239.132L247.77 188.095L227.933 184.314Z" fill="#455A64"/>
</svg>
