<svg width="117" height="117" viewBox="0 0 117 117" fill="none" xmlns="http://www.w3.org/2000/svg">
<g filter="url(#filter0_f_999_5773)">
<path d="M112.227 29C112.227 15.1929 101.034 4 87.2266 4H28.9999C15.1928 4 3.99988 15.1929 3.99988 29V87.2267C3.99988 101.034 15.1928 112.227 28.9999 112.227H112.227V29Z" fill="black" fill-opacity="0.5"/>
</g>
<path d="M112.227 29C112.227 15.1929 101.034 4 87.2266 4H28.9999C15.1928 4 3.99988 15.1929 3.99988 29V87.2267C3.99988 101.034 15.1928 112.227 28.9999 112.227H112.227V29Z" fill="url(#paint0_linear_999_5773)"/>
<g style="mix-blend-mode:overlay" opacity="0.3">
<mask id="mask0_999_5773" style="mask-type:alpha" maskUnits="userSpaceOnUse" x="4" y="4" width="109" height="109">
<rect width="108.227" height="108.227" rx="25" transform="matrix(-1 0 0 1 112.227 4)" fill="url(#paint1_linear_999_5773)"/>
</mask>
<g mask="url(#mask0_999_5773)">
<path d="M112.227 4H3.99988V112.227L60.8189 59.1956L112.227 4Z" fill="url(#paint2_linear_999_5773)"/>
</g>
</g>
<path d="M34 42C34 41.4696 34.2107 40.9609 34.5858 40.5858C34.9609 40.2107 35.4696 40 36 40H80C80.5304 40 81.0391 40.2107 81.4142 40.5858C81.7893 40.9609 82 41.4696 82 42C82 42.5304 81.7893 43.0391 81.4142 43.4142C81.0391 43.7893 80.5304 44 80 44H36C35.4696 44 34.9609 43.7893 34.5858 43.4142C34.2107 43.0391 34 42.5304 34 42ZM36 60H54C54.5304 60 55.0391 59.7893 55.4142 59.4142C55.7893 59.0391 56 58.5304 56 58C56 57.4696 55.7893 56.9609 55.4142 56.5858C55.0391 56.2107 54.5304 56 54 56H36C35.4696 56 34.9609 56.2107 34.5858 56.5858C34.2107 56.9609 34 57.4696 34 58C34 58.5304 34.2107 59.0391 34.5858 59.4142C34.9609 59.7893 35.4696 60 36 60ZM58 72H36C35.4696 72 34.9609 72.2107 34.5858 72.5858C34.2107 72.9609 34 73.4696 34 74C34 74.5304 34.2107 75.0391 34.5858 75.4142C34.9609 75.7893 35.4696 76 36 76H58C58.5304 76 59.0391 75.7893 59.4142 75.4142C59.7893 75.0391 60 74.5304 60 74C60 73.4696 59.7893 72.9609 59.4142 72.5858C59.0391 72.2107 58.5304 72 58 72ZM85.415 72.585L80.34 67.5C81.7043 65.4321 82.2525 62.9313 81.8782 60.4823C81.504 58.0333 80.234 55.8104 78.3143 54.2444C76.3946 52.6783 73.962 51.8806 71.4877 52.0058C69.0134 52.1309 66.6737 53.1701 64.9219 54.9219C63.1701 56.6737 62.1309 59.0134 62.0058 61.4877C61.8806 63.962 62.6783 66.3946 64.2444 68.3143C65.8104 70.234 68.0333 71.504 70.4823 71.8782C72.9313 72.2525 75.4321 71.7043 77.5 70.34L82.575 75.415C82.9503 75.7903 83.4593 76.0011 83.99 76.0011C84.5207 76.0011 85.0297 75.7903 85.405 75.415C85.7803 75.0397 85.9911 74.5307 85.9911 74C85.9911 73.4693 85.7803 72.9603 85.405 72.585H85.415Z" fill="white"/>
<defs>
<filter id="filter0_f_999_5773" x="0" y="0" width="116.227" height="116.227" filterUnits="userSpaceOnUse" color-interpolation-filters="sRGB">
<feFlood flood-opacity="0" result="BackgroundImageFix"/>
<feBlend mode="normal" in="SourceGraphic" in2="BackgroundImageFix" result="shape"/>
<feGaussianBlur stdDeviation="2" result="effect1_foregroundBlur_999_5773"/>
</filter>
<linearGradient id="paint0_linear_999_5773" x1="58.1132" y1="4" x2="58.1132" y2="112.227" gradientUnits="userSpaceOnUse">
<stop stop-color="#5E17EB"/>
<stop offset="1" stop-color="#8851F5"/>
</linearGradient>
<linearGradient id="paint1_linear_999_5773" x1="2.5169" y1="51.2653" x2="104.451" y2="51.2653" gradientUnits="userSpaceOnUse">
<stop stop-color="#07569E"/>
<stop offset="1" stop-color="#0093DD"/>
</linearGradient>
<linearGradient id="paint2_linear_999_5773" x1="10.4935" y1="103.027" x2="126.837" y2="-20.8921" gradientUnits="userSpaceOnUse">
<stop offset="0.116225" stop-color="white" stop-opacity="0"/>
<stop offset="1" stop-color="white"/>
</linearGradient>
</defs>
</svg>
