<svg width="117" height="117" viewBox="0 0 117 117" fill="none" xmlns="http://www.w3.org/2000/svg">
<g filter="url(#filter0_f_999_5775)">
<path d="M112.227 29C112.227 15.1929 101.034 4 87.2266 4H28.9999C15.1928 4 3.99988 15.1929 3.99988 29V87.2267C3.99988 101.034 15.1928 112.227 28.9999 112.227H112.227V29Z" fill="black" fill-opacity="0.5"/>
</g>
<path d="M112.227 29C112.227 15.1929 101.034 4 87.2266 4H28.9999C15.1928 4 3.99988 15.1929 3.99988 29V87.2267C3.99988 101.034 15.1928 112.227 28.9999 112.227H112.227V29Z" fill="url(#paint0_linear_999_5775)"/>
<g style="mix-blend-mode:overlay">
<mask id="mask0_999_5775" style="mask-type:alpha" maskUnits="userSpaceOnUse" x="4" y="4" width="109" height="109">
<rect width="108.227" height="108.227" rx="25" transform="matrix(-1 0 0 1 112.227 4)" fill="url(#paint1_linear_999_5775)"/>
</mask>
<g mask="url(#mask0_999_5775)">
<path opacity="0.3" d="M112.227 4H3.99988V112.227L60.8189 59.1956L112.227 4Z" fill="url(#paint2_linear_999_5775)"/>
</g>
</g>
<path d="M80.0001 38H36.0001C34.9392 38 33.9218 38.4214 33.1716 39.1716C32.4215 39.9217 32.0001 40.9391 32.0001 42V82C31.9955 82.7628 32.2112 83.5106 32.6215 84.1537C33.0317 84.7968 33.6189 85.3077 34.3126 85.625C34.8411 85.8711 35.417 85.9991 36.0001 86C36.9391 85.9978 37.8469 85.663 38.5626 85.055C38.5745 85.0472 38.5854 85.038 38.5951 85.0275L46.6251 78H80.0001C81.0609 78 82.0784 77.5786 82.8285 76.8284C83.5786 76.0783 84.0001 75.0609 84.0001 74V42C84.0001 40.9391 83.5786 39.9217 82.8285 39.1716C82.0784 38.4214 81.0609 38 80.0001 38ZM47.0001 61C46.4067 61 45.8267 60.8241 45.3334 60.4944C44.84 60.1648 44.4555 59.6962 44.2284 59.148C44.0014 58.5999 43.942 57.9967 44.0577 57.4147C44.1735 56.8328 44.4592 56.2982 44.8788 55.8787C45.2983 55.4591 45.8329 55.1734 46.4148 55.0576C46.9967 54.9419 47.5999 55.0013 48.1481 55.2284C48.6963 55.4554 49.1648 55.8399 49.4945 56.3333C49.8241 56.8266 50.0001 57.4067 50.0001 58C50.0001 58.7956 49.684 59.5587 49.1214 60.1213C48.5588 60.6839 47.7957 61 47.0001 61ZM58.0001 61C57.4067 61 56.8267 60.8241 56.3334 60.4944C55.84 60.1648 55.4555 59.6962 55.2284 59.148C55.0014 58.5999 54.942 57.9967 55.0577 57.4147C55.1735 56.8328 55.4592 56.2982 55.8788 55.8787C56.2983 55.4591 56.8329 55.1734 57.4148 55.0576C57.9967 54.9419 58.5999 55.0013 59.1481 55.2284C59.6963 55.4554 60.1648 55.8399 60.4945 56.3333C60.8241 56.8266 61.0001 57.4067 61.0001 58C61.0001 58.7956 60.684 59.5587 60.1214 60.1213C59.5588 60.6839 58.7957 61 58.0001 61ZM69.0001 61C68.4067 61 67.8267 60.8241 67.3334 60.4944C66.84 60.1648 66.4555 59.6962 66.2284 59.148C66.0014 58.5999 65.942 57.9967 66.0577 57.4147C66.1735 56.8328 66.4592 56.2982 66.8788 55.8787C67.2983 55.4591 67.8329 55.1734 68.4148 55.0576C68.9967 54.9419 69.5999 55.0013 70.1481 55.2284C70.6963 55.4554 71.1648 55.8399 71.4945 56.3333C71.8241 56.8266 72.0001 57.4067 72.0001 58C72.0001 58.7956 71.684 59.5587 71.1214 60.1213C70.5588 60.6839 69.7957 61 69.0001 61Z" fill="white"/>
<defs>
<filter id="filter0_f_999_5775" x="0" y="0" width="116.227" height="116.227" filterUnits="userSpaceOnUse" color-interpolation-filters="sRGB">
<feFlood flood-opacity="0" result="BackgroundImageFix"/>
<feBlend mode="normal" in="SourceGraphic" in2="BackgroundImageFix" result="shape"/>
<feGaussianBlur stdDeviation="2" result="effect1_foregroundBlur_999_5775"/>
</filter>
<linearGradient id="paint0_linear_999_5775" x1="58.1132" y1="4" x2="58.1132" y2="112.227" gradientUnits="userSpaceOnUse">
<stop stop-color="#5E17EB"/>
<stop offset="1" stop-color="#8851F5"/>
</linearGradient>
<linearGradient id="paint1_linear_999_5775" x1="2.5169" y1="51.2653" x2="104.451" y2="51.2653" gradientUnits="userSpaceOnUse">
<stop stop-color="#07569E"/>
<stop offset="1" stop-color="#0093DD"/>
</linearGradient>
<linearGradient id="paint2_linear_999_5775" x1="10.4935" y1="103.027" x2="126.837" y2="-20.8921" gradientUnits="userSpaceOnUse">
<stop offset="0.116225" stop-color="white" stop-opacity="0"/>
<stop offset="1" stop-color="white"/>
</linearGradient>
</defs>
</svg>
