<svg width="167" height="133" viewBox="0 0 167 133" fill="none" xmlns="http://www.w3.org/2000/svg">
<path d="M130.879 15.1712V27.557L164.772 1.43115L130.879 15.1712Z" fill="#5E17EB" stroke="#210852" stroke-miterlimit="10" stroke-linecap="round" stroke-linejoin="round"/>
<path d="M130.879 15.1711L165.553 1L118.211 5.91004L130.879 15.1711Z" fill="#5E17EB" stroke="#210852" stroke-miterlimit="10" stroke-linecap="round" stroke-linejoin="round"/>
<path d="M134.957 17.7345L151.281 29.8125L165.553 1L134.957 17.7345Z" fill="#5E17EB" stroke="#210852" stroke-miterlimit="10" stroke-linecap="round" stroke-linejoin="round"/>
<path d="M134.956 17.7344L130.879 27.5568L139.563 21.1425L134.956 17.7344Z" fill="#5E17EB" stroke="#210852" stroke-miterlimit="10" stroke-linecap="round" stroke-linejoin="round"/>
<path d="M1 121.562C1.09029 121.315 1.17979 121.068 1.26772 120.823" stroke="#210852" stroke-linecap="round" stroke-linejoin="round"/>
<path d="M2.2959 117.859C9.59893 96.054 8.28701 82.9537 20.1389 61.8305C22.5343 57.5619 34.4215 37.3526 51.3688 30.1485C60.1761 26.4043 65.784 31.9943 63.5143 35.9457C58.4504 44.7608 39.8521 34.1981 58.4504 23.7727C75.6544 14.1293 112.289 32.9796 129.462 27.5726" stroke="#210852" stroke-linecap="round" stroke-linejoin="round" stroke-dasharray="2 3.99"/>
<path d="M130.931 27.0293C131.172 26.9256 131.41 26.8149 131.642 26.6987" stroke="#210852" stroke-linecap="round" stroke-linejoin="round"/>
<path d="M100.959 112.843C86.211 124.868 59.005 132.168 59.005 132.168L72.719 117.479V117.469C60.117 113.409 51 101.588 51 87.6301C51 69.5781 66.26 55.0921 84.585 56.3681C100.269 57.4601 112.868 70.3411 113.641 86.0441C114.177 96.9361 109.157 106.681 101.161 112.69" fill="white"/>
<path d="M100.959 112.843C86.211 124.868 59.005 132.168 59.005 132.168L72.719 117.479V117.469C60.117 113.409 51 101.588 51 87.6301C51 69.5781 66.26 55.0921 84.585 56.3681C100.269 57.4601 112.868 70.3411 113.641 86.0441C114.177 96.9361 109.157 106.681 101.161 112.69" stroke="#210852" stroke-miterlimit="10" stroke-linecap="round" stroke-linejoin="round"/>
<path d="M101.707 74.1211C106.804 74.1211 110.936 69.9891 110.936 64.8921C110.936 59.7951 106.804 55.6631 101.707 55.6631C96.61 55.6631 92.478 59.7951 92.478 64.8921C92.478 69.9891 96.61 74.1211 101.707 74.1211Z" fill="#5E17EB" stroke="#210852" stroke-linecap="round" stroke-linejoin="round"/>
<path d="M96.3569 62.835L101.707 68.852L113.874 54.452L113.449 54L101.707 64.099L98.597 60.713L96.3569 62.835Z" fill="#210852" stroke="#210852" stroke-linecap="round" stroke-linejoin="round"/>
<path d="M66.1089 80.0371H100.572" stroke="#210852" stroke-miterlimit="10" stroke-linecap="round" stroke-linejoin="round"/>
<path d="M65.3296 88.937H99.7926" stroke="#210852" stroke-miterlimit="10" stroke-linecap="round" stroke-linejoin="round"/>
<path d="M64.5518 97.8372H99.0148" stroke="#210852" stroke-miterlimit="10" stroke-linecap="round" stroke-linejoin="round"/>
</svg>
