<svg width="270" height="32" viewBox="0 0 270 32" fill="none" xmlns="http://www.w3.org/2000/svg">
<path d="M268.868 30.4894C269.117 30.6072 269.224 30.9052 269.107 31.155C268.989 31.4047 268.691 31.5117 268.441 31.3939L268.868 30.4894ZM0.252075 30.9417L3.56447 26.2129L6.00352 31.4459L0.252075 30.9417ZM268.441 31.3939C267.572 30.984 266.701 30.5781 265.828 30.176L266.246 29.2676C267.122 29.671 267.996 30.0783 268.868 30.4894L268.441 31.3939ZM260.568 27.8121C258.809 27.0411 257.041 26.2857 255.265 25.5461L255.65 24.6229C257.431 25.3649 259.204 26.1227 260.969 26.8963L260.568 27.8121ZM249.921 23.378C248.135 22.6724 246.341 21.9827 244.539 21.309L244.889 20.3723C246.697 21.0481 248.497 21.7401 250.289 22.4479L249.921 23.378ZM239.119 19.34C237.308 18.7009 235.489 18.0779 233.663 17.4712L233.978 16.5222C235.81 17.1308 237.635 17.7558 239.452 18.397L239.119 19.34ZM228.174 15.7038C226.341 15.1322 224.501 14.5769 222.653 14.0381L222.933 13.0781C224.787 13.6186 226.633 14.1757 228.472 14.7491L228.174 15.7038ZM217.102 12.4746C215.25 11.9712 213.39 11.4843 211.524 11.0141L211.768 10.0444C213.64 10.5161 215.506 11.0046 217.364 11.5096L217.102 12.4746ZM205.92 9.65693C204.049 9.22228 202.173 8.80433 200.29 8.40322L200.498 7.42517C202.387 7.82756 204.27 8.24685 206.146 8.68289L205.92 9.65693ZM194.64 7.25383C192.755 6.88857 190.865 6.54014 188.969 6.20869L189.141 5.22362C191.043 5.55613 192.94 5.90567 194.83 6.2721L194.64 7.25383ZM183.278 5.26794C181.382 4.97233 179.48 4.69366 177.573 4.4321L177.709 3.44137C179.622 3.70376 181.53 3.98332 183.432 4.27987L183.278 5.26794ZM171.853 3.70104C169.947 3.47517 168.036 3.26634 166.12 3.07471L166.219 2.07967C168.142 2.27191 170.059 2.4814 171.971 2.70799L171.853 3.70104ZM160.377 2.5533C158.465 2.39726 156.548 2.25832 154.626 2.13665L154.689 1.13864C156.617 1.2607 158.54 1.40008 160.458 1.55661L160.377 2.5533ZM148.867 1.82448C146.95 1.738 145.029 1.66868 143.103 1.61667L143.13 0.617038C145.062 0.669209 146.989 0.738746 148.912 0.825499L148.867 1.82448ZM137.338 1.51296C136.378 1.50433 135.416 1.5 134.453 1.5V0.5C135.419 0.5 136.384 0.50434 137.347 0.513002L137.338 1.51296ZM134.453 1.5C133.49 1.5 132.529 1.50433 131.568 1.51296L131.559 0.513001C132.523 0.50434 133.487 0.5 134.453 0.5V1.5ZM125.803 1.61667C123.878 1.66868 121.956 1.738 120.039 1.82448L119.994 0.825498C121.917 0.738744 123.845 0.669208 125.776 0.617037L125.803 1.61667ZM114.281 2.13664C112.359 2.25832 110.442 2.39725 108.529 2.5533L108.448 1.55661C110.366 1.40007 112.29 1.2607 114.217 1.13864L114.281 2.13664ZM102.786 3.07471C100.87 3.26633 98.9591 3.47516 97.0531 3.70104L96.9354 2.70799C98.8474 2.4814 100.765 2.2719 102.687 2.07967L102.786 3.07471ZM91.3333 4.4321C89.426 4.69366 87.5242 4.97232 85.628 5.26793L85.4739 4.27987C87.3762 3.98332 89.2841 3.70376 91.1974 3.44137L91.3333 4.4321ZM79.9377 6.20869C78.0415 6.54014 76.1511 6.88857 74.2668 7.25383L74.0765 6.2721C75.9669 5.90567 77.8633 5.55613 79.7655 5.22362L79.9377 6.20869ZM68.6163 8.40322C66.7335 8.80433 64.857 9.22229 62.9868 9.65693L62.7605 8.68289C64.6366 8.24685 66.5192 7.82756 68.408 7.42517L68.6163 8.40322ZM57.3824 11.0141C55.5163 11.4843 53.6568 11.9712 51.8041 12.4746L51.5419 11.5096C53.4005 11.0046 55.266 10.5161 57.1381 10.0444L57.3824 11.0141ZM46.2529 14.0381C44.4056 14.5769 42.5653 15.1322 40.7323 15.7038L40.4346 14.7491C42.2735 14.1757 44.1197 13.6186 45.9729 13.0781L46.2529 14.0381ZM35.2433 17.4712C33.4172 18.0779 31.5985 18.7009 29.7874 19.34L29.4546 18.397C31.2715 17.7558 33.096 17.1309 34.928 16.5222L35.2433 17.4712ZM24.3677 21.309C22.5655 21.9827 20.7712 22.6724 18.9848 23.378L18.6175 22.4479C20.4095 21.7401 22.2096 21.0481 24.0176 20.3723L24.3677 21.309ZM13.641 25.5461C11.8653 26.2857 10.0978 27.0411 8.33876 27.8121L7.93731 26.8963C9.70201 26.1227 11.4751 25.3649 13.2566 24.623L13.641 25.5461ZM269.081 30.0372C269.58 30.2728 269.794 30.8688 269.559 31.3683C269.323 31.8678 268.727 32.0817 268.228 31.8461L269.081 30.0372ZM0.252075 30.9417L6.87686 21.4841L11.755 31.9501L0.252075 30.9417ZM268.228 31.8461C267.36 31.4369 266.491 31.0316 265.619 30.6301L266.455 28.8135C267.333 29.2175 268.208 29.6254 269.081 30.0372L268.228 31.8461ZM260.367 28.2701C258.611 27.5003 256.846 26.746 255.073 26.0076L255.842 24.1614C257.626 24.9045 259.402 25.6636 261.17 26.4383L260.367 28.2701ZM249.738 23.843C247.954 23.1386 246.163 22.4499 244.364 21.7774L245.064 19.904C246.875 20.5809 248.678 21.2739 250.473 21.9829L249.738 23.843ZM238.953 19.8115C237.144 19.1734 235.329 18.5514 233.505 17.9457L234.136 16.0477C235.971 16.6573 237.798 17.2833 239.618 17.9255L238.953 19.8115ZM228.025 16.1811C226.195 15.6104 224.358 15.056 222.513 14.5181L223.073 12.5981C224.93 13.1395 226.779 13.6974 228.621 14.2718L228.025 16.1811ZM216.971 12.9571C215.121 12.4545 213.265 11.9684 211.402 11.499L211.89 9.55958C213.766 10.032 215.634 10.5212 217.496 11.0271L216.971 12.9571ZM205.806 10.1439C203.939 9.71 202.066 9.29271 200.186 8.89225L200.603 6.93614C202.494 7.33917 204.38 7.75914 206.259 8.19587L205.806 10.1439ZM194.544 7.74469C192.663 7.38002 190.776 7.03214 188.883 6.70122L189.227 4.73109C191.132 5.06412 193.032 5.41423 194.925 5.78124L194.544 7.74469ZM183.201 5.76197C181.308 5.46683 179.409 5.18861 177.505 4.92746L177.777 2.94601C179.693 3.20882 181.604 3.48881 183.509 3.78584L183.201 5.76197ZM171.794 4.19757C169.892 3.97205 167.983 3.76355 166.07 3.57223L166.269 1.58216C168.195 1.77469 170.115 1.98451 172.03 2.21147L171.794 4.19757ZM160.336 3.05164C158.427 2.89585 156.513 2.75713 154.594 2.63565L154.721 0.639643C156.651 0.761891 158.578 0.901485 160.499 1.05827L160.336 3.05164ZM148.844 2.32397C146.931 2.23763 145.012 2.16842 143.09 2.11649L143.144 0.11722C145.078 0.169472 147.009 0.239118 148.935 0.326007L148.844 2.32397ZM137.334 2.01294C136.375 2.00432 135.414 2 134.453 2V0C135.42 0 136.387 0.00434678 137.352 0.0130219L137.334 2.01294ZM134.453 2C133.492 2 132.532 2.00432 131.573 2.01294L131.555 0.0130215C132.52 0.00434665 133.486 0 134.453 0V2ZM125.817 2.11649C123.894 2.16842 121.976 2.23763 120.062 2.32397L119.972 0.326006C121.898 0.239117 123.828 0.169471 125.763 0.11722L125.817 2.11649ZM114.312 2.63564C112.393 2.75713 110.479 2.89584 108.57 3.05164L108.407 1.05827C110.329 0.901483 112.255 0.76189 114.186 0.639641L114.312 2.63564ZM102.836 3.57223C100.923 3.76355 99.0149 3.97205 97.1119 4.19756L96.8766 2.21146C98.7916 1.98451 100.712 1.77469 102.637 1.58215L102.836 3.57223ZM91.4012 4.92746C89.497 5.1886 87.5982 5.46683 85.705 5.76197L85.3969 3.78583C87.3022 3.48881 89.2131 3.20882 91.1295 2.94601L91.4012 4.92746ZM80.0238 6.70122C78.1306 7.03214 76.2433 7.38002 74.3619 7.74469L73.9813 5.78124C75.8747 5.41423 77.7741 5.06412 79.6794 4.73109L80.0238 6.70122ZM68.7205 8.89225C66.8407 9.29271 64.9672 9.71 63.1 10.1439L62.6473 8.19587C64.5264 7.75914 66.412 7.33918 68.3038 6.93615L68.7205 8.89225ZM57.5046 11.499C55.6414 11.9684 53.7849 12.4545 51.9352 12.9571L51.4108 11.0271C53.2724 10.5212 55.1408 10.032 57.0159 9.55958L57.5046 11.499ZM46.3929 14.5181C44.5485 15.056 42.7112 15.6104 40.8811 16.1811L40.2857 14.2718C42.1276 13.6974 43.9767 13.1395 45.8329 12.5981L46.3929 14.5181ZM35.4009 17.9457C33.5777 18.5514 31.762 19.1734 29.9538 19.8115L29.2883 17.9255C31.108 17.2833 32.9355 16.6573 34.7704 16.0477L35.4009 17.9457ZM24.5428 21.7774C22.7435 22.4499 20.952 23.1386 19.1685 23.8431L18.4338 21.9829C20.2287 21.2739 22.0317 20.5809 23.8425 19.904L24.5428 21.7774ZM13.8333 26.0076C12.0604 26.7461 10.2957 27.5003 8.53949 28.2701L7.73658 26.4383C9.50409 25.6636 11.2801 24.9045 13.0643 24.1614L13.8333 26.0076Z" fill="#210852" fill-opacity="0.5"/>
</svg>
