<svg width="271" height="32" viewBox="0 0 271 32" fill="none" xmlns="http://www.w3.org/2000/svg">
<path d="M269.455 1.45197C269.704 1.33416 269.811 1.03619 269.693 0.786438C269.576 0.536688 269.278 0.429728 269.028 0.547539L269.455 1.45197ZM0.838989 0.999752L4.1514 5.72853L6.59042 0.495525L0.838989 0.999752ZM269.028 0.547539C268.159 0.957378 267.288 1.36336 266.415 1.76545L266.833 2.67377C267.709 2.27039 268.583 1.86312 269.455 1.45197L269.028 0.547539ZM261.154 4.12927C259.395 4.90033 257.628 5.65574 255.852 6.39534L256.237 7.31847C258.018 6.5765 259.791 5.81867 261.556 5.04515L261.154 4.12927ZM250.508 8.5634C248.722 9.26902 246.928 9.95874 245.126 10.6324L245.476 11.5691C247.284 10.8933 249.084 10.2013 250.876 9.49347L250.508 8.5634ZM239.706 12.6014C237.895 13.2405 236.076 13.8635 234.25 14.4702L234.565 15.4192C236.397 14.8106 238.222 14.1856 240.039 13.5444L239.706 12.6014ZM228.761 16.2377C226.928 16.8092 225.088 17.3645 223.24 17.9033L223.52 18.8633C225.374 18.3228 227.22 17.7657 229.059 17.1923L228.761 16.2377ZM217.689 19.4668C215.836 19.9702 213.977 20.4571 212.111 20.9273L212.355 21.897C214.227 21.4253 216.093 20.9368 217.951 20.4318L217.689 19.4668ZM206.506 22.2845C204.636 22.7191 202.76 23.1371 200.877 23.5382L201.085 24.5162C202.974 24.1138 204.857 23.6946 206.733 23.2585L206.506 22.2845ZM195.227 24.6876C193.342 25.0528 191.452 25.4013 189.556 25.7327L189.728 26.7178C191.63 26.3853 193.526 26.0357 195.417 25.6693L195.227 24.6876ZM183.865 26.6735C181.969 26.9691 180.067 27.2477 178.16 27.5093L178.296 28.5C180.209 28.2376 182.117 27.9581 184.019 27.6615L183.865 26.6735ZM172.44 28.2404C170.534 28.4662 168.623 28.6751 166.707 28.8667L166.806 29.8617C168.729 29.6695 170.646 29.46 172.558 29.2334L172.44 28.2404ZM160.964 29.3881C159.052 29.5442 157.135 29.6831 155.213 29.8048L155.276 30.8028C157.204 30.6807 159.127 30.5413 161.045 30.3848L160.964 29.3881ZM149.454 30.1169C147.537 30.2034 145.616 30.2727 143.69 30.3247L143.717 31.3244C145.649 31.2722 147.576 31.2027 149.499 31.1159L149.454 30.1169ZM137.925 30.4284C136.965 30.4371 136.003 30.4414 135.04 30.4414V31.4414C136.006 31.4414 136.971 31.4371 137.934 31.4284L137.925 30.4284ZM135.04 30.4414C134.077 30.4414 133.116 30.4371 132.155 30.4284L132.146 31.4284C133.11 31.4371 134.074 31.4414 135.04 31.4414V30.4414ZM126.39 30.3247C124.465 30.2727 122.543 30.2034 120.626 30.1169L120.581 31.1159C122.504 31.2027 124.431 31.2722 126.363 31.3244L126.39 30.3247ZM114.867 29.8048C112.946 29.6831 111.029 29.5442 109.116 29.3881L109.035 30.3848C110.953 30.5413 112.876 30.6807 114.804 30.8028L114.867 29.8048ZM103.373 28.8667C101.457 28.6751 99.546 28.4662 97.64 28.2404L97.5223 29.2334C99.4343 29.46 101.352 29.6695 103.274 29.8617L103.373 28.8667ZM91.9202 27.5093C90.0129 27.2477 88.1111 26.9691 86.2149 26.6735L86.0609 27.6615C87.9631 27.9581 89.871 28.2376 91.7843 28.5L91.9202 27.5093ZM80.5246 25.7327C78.6284 25.4013 76.7381 25.0528 74.8537 24.6876L74.6634 25.6693C76.5538 26.0357 78.4502 26.3853 80.3524 26.7178L80.5246 25.7327ZM69.2032 23.5382C67.3205 23.1371 65.4439 22.7191 63.5738 22.2845L63.3474 23.2585C65.2235 23.6946 67.1061 24.1138 68.9949 24.5162L69.2032 23.5382ZM57.9693 20.9273C56.1032 20.4571 54.2437 19.9702 52.3911 19.4668L52.1288 20.4319C53.9875 20.9369 55.8529 21.4253 57.725 21.897L57.9693 20.9273ZM46.8398 17.9033C44.9925 17.3645 43.1523 16.8093 41.3192 16.2377L41.0215 17.1923C42.8605 17.7657 44.7066 18.3228 46.5598 18.8633L46.8398 17.9033ZM35.8302 14.4702C34.0041 13.8635 32.1855 13.2405 30.3744 12.6014L30.0416 13.5444C31.8585 14.1856 33.683 14.8106 35.515 15.4192L35.8302 14.4702ZM24.9547 10.6324C23.1525 9.95875 21.3582 9.26903 19.5718 8.56342L19.2044 9.49349C20.9965 10.2014 22.7966 10.8933 24.6046 11.5691L24.9547 10.6324ZM14.228 6.39536C12.4523 5.65576 10.6848 4.90034 8.92575 4.12929L8.52429 5.04517C10.289 5.81869 12.0621 6.57652 13.8435 7.31849L14.228 6.39536ZM269.668 1.90418C270.167 1.66856 270.381 1.07263 270.146 0.573126C269.91 0.0736237 269.314 -0.140295 268.815 0.0953236L269.668 1.90418ZM0.838989 0.999752L7.46378 10.4573L12.3419 -0.00869942L0.838989 0.999752ZM268.815 0.0953236C267.947 0.504509 267.078 0.909838 266.206 1.31129L267.042 3.12793C267.92 2.72391 268.795 2.31598 269.668 1.90418L268.815 0.0953236ZM260.954 3.67133C259.198 4.44115 257.433 5.19536 255.66 5.93378L256.429 7.78004C258.213 7.03688 259.989 6.27784 261.757 5.50309L260.954 3.67133ZM250.325 8.09837C248.541 8.80285 246.75 9.49147 244.95 10.1641L245.651 12.0374C247.462 11.3605 249.265 10.6675 251.059 9.95851L250.325 8.09837ZM239.539 12.1299C237.731 12.768 235.916 13.39 234.092 13.9957L234.723 15.8937C236.558 15.2841 238.385 14.6581 240.205 14.0159L239.539 12.1299ZM228.612 15.7603C226.782 16.331 224.945 16.8854 223.1 17.4233L223.66 19.3433C225.517 18.8019 227.366 18.244 229.208 17.6696L228.612 15.7603ZM217.558 18.9843C215.708 19.4869 213.852 19.973 211.989 20.4424L212.477 22.3818C214.352 21.9094 216.221 21.4202 218.082 20.9144L217.558 18.9843ZM206.393 21.7975C204.526 22.2314 202.653 22.6487 200.773 23.0492L201.189 25.0053C203.081 24.6022 204.967 24.1823 206.846 23.7455L206.393 21.7975ZM195.131 24.1967C193.25 24.5614 191.363 24.9093 189.469 25.2402L189.814 27.2103C191.719 26.8773 193.619 26.5272 195.512 26.1602L195.131 24.1967ZM183.788 26.1794C181.895 26.4746 179.996 26.7528 178.092 27.0139L178.364 28.9954C180.28 28.7326 182.191 28.4526 184.096 28.1556L183.788 26.1794ZM172.381 27.7438C170.478 27.9694 168.57 28.1779 166.657 28.3692L166.856 30.3593C168.781 30.1667 170.702 29.9569 172.617 29.7299L172.381 27.7438ZM160.923 28.8898C159.014 29.0456 157.1 29.1843 155.181 29.3058L155.308 31.3018C157.238 31.1795 159.165 31.0399 161.086 30.8831L160.923 28.8898ZM149.431 29.6174C147.518 29.7038 145.599 29.773 143.677 29.8249L143.731 31.8242C145.665 31.7719 147.596 31.7023 149.522 31.6154L149.431 29.6174ZM137.921 29.9285C136.962 29.9371 136.001 29.9414 135.04 29.9414V31.9414C136.007 31.9414 136.974 31.9371 137.939 31.9284L137.921 29.9285ZM135.04 29.9414C134.079 29.9414 133.119 29.9371 132.159 29.9285L132.141 31.9284C133.107 31.9371 134.073 31.9414 135.04 31.9414V29.9414ZM126.404 29.8249C124.481 29.773 122.563 29.7038 120.649 29.6174L120.559 31.6154C122.485 31.7023 124.415 31.7719 126.35 31.8242L126.404 29.8249ZM114.899 29.3058C112.98 29.1843 111.066 29.0456 109.157 28.8898L108.994 30.8831C110.916 31.0399 112.842 31.1795 114.773 31.3018L114.899 29.3058ZM103.423 28.3692C101.51 28.1779 99.6018 27.9694 97.6989 27.7438L97.4635 29.7299C99.3785 29.9569 101.299 30.1667 103.224 30.3593L103.423 28.3692ZM91.9881 27.0139C90.0839 26.7528 88.1851 26.4746 86.2919 26.1794L85.9838 28.1556C87.8891 28.4526 89.8 28.7326 91.7164 28.9954L91.9881 27.0139ZM80.6107 25.2402C78.7175 24.9093 76.8302 24.5614 74.9488 24.1967L74.5683 26.1602C76.4616 26.5272 78.3611 26.8773 80.2664 27.2103L80.6107 25.2402ZM69.3074 23.0492C67.4277 22.6487 65.5541 22.2314 63.687 21.7975L63.2342 23.7455C65.1133 24.1823 66.9989 24.6022 68.8907 25.0053L69.3074 23.0492ZM58.0915 20.4424C56.2284 19.973 54.3719 19.4869 52.5222 18.9843L51.9977 20.9144C53.8593 21.4202 55.7278 21.9094 57.6028 22.3818L58.0915 20.4424ZM46.9798 17.4233C45.1355 16.8854 43.2982 16.331 41.4681 15.7603L40.8727 17.6697C42.7146 18.244 44.5637 18.8019 46.4198 19.3433L46.9798 17.4233ZM35.9879 13.9957C34.1647 13.39 32.3489 12.768 30.5408 12.1299L29.8752 14.0159C31.695 14.6581 33.5224 15.2841 35.3573 15.8937L35.9879 13.9957ZM25.1298 10.1641C23.3305 9.49148 21.539 8.80286 19.7555 8.09838L19.0207 9.95852C20.8157 10.6675 22.6186 11.3606 24.4295 12.0375L25.1298 10.1641ZM14.4203 5.93379C12.6474 5.19538 10.8827 4.44117 9.12646 3.67135L8.32355 5.50311C10.0911 6.27786 11.867 7.0369 13.6513 7.78005L14.4203 5.93379Z" fill="#210852" fill-opacity="0.5"/>
</svg>
