<svg width="169" height="172" viewBox="0 0 169 172" fill="none" xmlns="http://www.w3.org/2000/svg">
<path d="M5.44769 38.9734C4.34341 36.0081 4.14332 32.782 4.87272 29.703C5.60213 26.624 7.22825 23.8305 9.54544 21.6758C11.8626 19.521 14.7668 18.1019 17.8906 17.5978C21.0144 17.0938 24.2175 17.5274 27.0948 18.844C29.9721 20.1605 32.3943 22.3008 34.0552 24.9941C35.716 27.6874 36.5408 30.8127 36.4252 33.9748C36.3097 37.1369 35.259 40.1937 33.406 42.7586C31.553 45.3234 28.981 47.2812 26.0153 48.3842C22.0398 49.8627 17.6399 49.7019 13.783 47.9372C9.92612 46.1724 6.92793 42.9482 5.44769 38.9734Z" fill="#EBEBEB"/>
<path d="M28.7575 34.4441C26.9293 39.5585 21.5543 43.0962 21.5543 43.0962C21.5543 43.0962 15.5166 40.8931 12.5548 36.3363C10.0867 32.5381 10.8454 28.0315 13.8849 26.7106C18.2406 24.8139 20.3202 32.5473 20.3202 32.5473C20.3202 32.5473 20.5625 24.5442 25.2428 25.3806C28.5061 25.9656 30.2795 30.166 28.7575 34.4441Z" fill="white"/>
<path d="M155.691 100.247C152.676 101.774 149.255 102.307 145.918 101.769C142.582 101.231 139.501 99.6504 137.118 97.2535C134.735 94.8566 133.173 91.7666 132.655 88.4268C132.137 85.087 132.691 81.669 134.235 78.663C135.78 75.6571 138.238 73.2177 141.255 71.6947C144.272 70.1718 147.694 69.6435 151.03 70.1858C154.366 70.728 157.444 72.3128 159.824 74.713C162.203 77.1131 163.761 80.2052 164.275 83.5457C164.808 86.8806 164.263 90.2987 162.719 93.3025C161.175 96.3062 158.713 98.7389 155.691 100.247Z" fill="#EBEBEB"/>
<path d="M153.471 84.583C153.388 85.5414 153.024 86.4538 152.423 87.205C151.822 87.9562 151.012 88.5123 150.095 88.8031C149.179 89.0939 148.196 89.1062 147.272 88.8386C146.348 88.571 145.525 88.0354 144.905 87.2995C144.286 86.5637 143.898 85.6607 143.792 84.7047C143.686 83.7487 143.865 82.7827 144.308 81.9288C144.751 81.0749 145.437 80.3716 146.28 79.9076C147.122 79.4436 148.083 79.2399 149.042 79.3223C150.327 79.4327 151.515 80.049 152.346 81.0355C153.176 82.0221 153.581 83.2981 153.471 84.583Z" fill="white"/>
<path d="M155.86 98.2673L155.691 100.265C153.043 101.606 150.072 102.181 147.115 101.926C144.157 101.671 141.329 100.595 138.949 98.8203L139.118 96.8321C139.309 94.612 140.373 92.5584 142.078 91.1231C143.782 89.6878 145.987 88.9884 148.207 89.1787C150.427 89.369 152.481 90.4335 153.916 92.1379C155.351 93.8423 156.051 96.0471 155.86 98.2673Z" fill="white"/>
<path d="M129.813 39.243C138.436 34.8153 141.837 24.2358 137.409 15.613C132.981 6.99017 122.402 3.58939 113.779 8.0171C105.156 12.4448 101.755 23.0243 106.183 31.6471C110.611 40.2699 121.19 43.6707 129.813 39.243Z" fill="#EBEBEB"/>
<path fill-rule="evenodd" clip-rule="evenodd" d="M119.401 30.6031C118.944 30.3106 118.532 29.8856 117.911 29.945C117.673 29.945 117.723 29.7713 117.723 29.6433C117.723 27.3032 117.723 24.9676 117.723 22.6275C117.723 22.4584 117.723 22.3213 117.92 22.2253C119.707 21.3112 120.479 19.5561 121.576 18.0386C122.137 17.2872 122.541 16.4305 122.764 15.5197C122.987 14.6088 123.025 13.6624 122.874 12.7368C122.797 12.2112 123.043 11.9735 123.519 11.8684C123.756 11.7856 124.014 11.7813 124.255 11.8562C124.495 11.9311 124.705 12.0811 124.853 12.2843C125.365 13.241 125.71 14.2782 125.873 15.3511C125.973 16.2378 125.658 17.1017 125.548 17.9746C125.466 18.6191 125.315 19.2544 125.192 19.9034C125.351 20.0177 125.53 19.9583 125.699 19.9583H131.641C132.472 19.9583 132.879 20.1959 133.012 20.749C133.076 21.0893 133.027 21.4414 132.871 21.751C132.716 22.0607 132.464 22.3108 132.152 22.463C132.006 22.5361 131.737 22.463 131.718 22.7006C131.7 22.9383 131.979 22.9109 132.111 23.0068C132.829 23.4959 132.696 24.5106 131.869 25.091C131.668 25.2327 131.284 25.1687 131.275 25.4612C131.266 25.7538 131.631 25.6898 131.791 25.8543C132.372 26.4256 132.084 27.4906 131.22 27.9202C131.102 27.9568 130.986 28.0011 130.873 28.0528C130.777 28.1213 130.681 28.1945 130.873 28.327C131.727 28.9395 131.709 29.7896 130.845 30.4112L130.589 30.594C130.276 30.7819 129.91 30.8621 129.547 30.8225C126.451 30.8225 123.356 30.8225 120.26 30.8225C120.109 30.8464 119.955 30.8393 119.808 30.8015C119.66 30.7638 119.521 30.6963 119.401 30.6031Z" fill="white"/>
<path fill-rule="evenodd" clip-rule="evenodd" d="M110.593 26.4805C110.593 24.9951 110.593 23.5051 110.593 22.0242C110.593 21.7225 110.625 21.5671 110.995 21.5671C112.805 21.5915 114.617 21.5915 116.43 21.5671C116.782 21.5671 116.837 21.686 116.837 22.0242C116.837 25.0134 116.837 28.0025 116.837 30.9917C116.837 31.3756 116.736 31.4807 116.357 31.4761C114.597 31.4761 112.842 31.4761 111.082 31.4761C110.625 31.4761 110.589 31.3299 110.593 30.946C110.607 29.4697 110.593 27.9659 110.593 26.4805Z" fill="white"/>
<path d="M101.645 76.306L68.2843 90.5159L56.2637 62.2972L68.4305 44.6045L89.6243 48.0873L101.645 76.306Z" fill="#5E17EB"/>
<path opacity="0.2" d="M101.645 76.306L68.2843 90.5159L56.2637 62.2972L68.4305 44.6045L89.6243 48.0873L101.645 76.306Z" fill="black"/>
<path d="M99.6477 76.8314L70.0487 89.437L54.2573 52.3651L76.2326 43L86.9369 46.9947L99.6477 76.8314Z" fill="#EBEBEB"/>
<path d="M76.2329 43L86.9372 46.9947L79.3135 50.2398L76.2329 43Z" fill="#DBDBDB"/>
<path d="M60.28 58.4757L76.7344 51.4675L76.3189 50.492L59.8645 57.5002L60.28 58.4757Z" fill="#DBDBDB"/>
<path d="M61.3279 60.9403L77.7822 53.9321L77.3667 52.9566L60.9124 59.9648L61.3279 60.9403Z" fill="#DBDBDB"/>
<path d="M62.3816 63.4027L78.8359 56.3945L78.4204 55.419L61.9661 62.4272L62.3816 63.4027Z" fill="#DBDBDB"/>
<path d="M63.421 65.8648L87.5327 55.5952L87.1172 54.6196L63.0054 64.8893L63.421 65.8648Z" fill="#DBDBDB"/>
<path d="M64.4703 68.3292L88.582 58.0596L88.1665 57.084L64.0548 67.3536L64.4703 68.3292Z" fill="#DBDBDB"/>
<path d="M65.5215 70.7918L89.6333 60.5222L89.2178 59.5466L65.106 69.8163L65.5215 70.7918Z" fill="#DBDBDB"/>
<path d="M66.5694 73.252L90.6812 62.9824L90.2656 62.0068L66.1539 72.2765L66.5694 73.252Z" fill="#DBDBDB"/>
<path d="M67.6211 75.7149L91.7329 65.4453L91.3174 64.4698L67.2056 74.7394L67.6211 75.7149Z" fill="#DBDBDB"/>
<path d="M68.6661 78.179L92.7778 67.9094L92.3623 66.9338L68.2506 77.2035L68.6661 78.179Z" fill="#DBDBDB"/>
<path d="M69.7173 80.6419L93.8291 70.3723L93.4136 69.3967L69.3018 79.6664L69.7173 80.6419Z" fill="#DBDBDB"/>
<path d="M70.7652 83.1019L94.877 72.8323L94.4614 71.8567L70.3497 82.1263L70.7652 83.1019Z" fill="#DBDBDB"/>
<path d="M71.8169 85.5601L95.9287 75.2905L95.5132 74.315L71.4014 84.5846L71.8169 85.5601Z" fill="#DBDBDB"/>
<path d="M92.6314 55.1531L101.645 76.3057L68.2794 90.5156L59.2754 69.3767C61.0533 69.5778 62.8222 69.8338 64.5955 70.0577C66.3689 70.2817 68.1423 70.5468 69.9111 70.8119C71.8826 71.0952 73.8631 71.4 75.8529 71.726L75.8894 71.6711C75.8894 71.6711 75.8894 71.7077 75.862 71.726L80.2955 72.4207C81.1502 71.1958 82.0003 69.9617 82.8596 68.7414C82.8596 68.7414 82.8276 68.7414 82.8047 68.7414H82.8687C84.0113 67.1051 85.1616 65.475 86.3195 63.8509C87.3585 62.3974 88.4037 60.9486 89.4549 59.5043C90.5016 58.0234 91.5436 56.5791 92.6314 55.1531Z" fill="#5E17EB"/>
<g opacity="0.2">
<path d="M92.6314 55.1531C91.6899 56.6705 90.7027 58.1651 89.7428 59.6734C88.783 61.1817 87.7775 62.6625 86.7857 64.1525C85.7939 65.6425 84.7015 67.256 83.6548 68.7962L83.5634 68.9425L80.7617 73.0332L80.62 73.2297L80.3869 73.1931C78.7552 72.9235 77.1326 72.6492 75.5055 72.3704L75.3318 72.343C73.5036 72.0322 71.6754 71.7168 69.8106 71.3832C68.0555 71.0724 66.2958 70.7433 64.5361 70.4142C62.7765 70.0851 61.0259 69.7378 59.2754 69.3676C61.0533 69.5687 62.8222 69.8246 64.5955 70.0486C66.3689 70.2725 68.1423 70.5376 69.9111 70.8027C71.8826 71.0861 73.8631 71.3908 75.8529 71.7168L80.2863 72.4116C81.141 71.1867 81.9911 69.9526 82.8504 68.7322C83.9931 67.096 85.1433 65.4658 86.3012 63.8417C87.3402 62.3883 88.3854 60.9394 89.4366 59.4951C90.5016 58.0234 91.5436 56.5791 92.6314 55.1531Z" fill="black"/>
<path d="M75.8662 71.6621C75.8662 71.6621 75.8662 71.6987 75.8387 71.717C75.7291 71.9409 75.6194 72.174 75.5051 72.3843C74.9703 73.4492 74.399 74.4913 73.8094 75.5151C73.0918 76.7811 72.3331 78.0198 71.5698 79.2584C70.8065 80.497 70.0158 81.7037 69.1931 82.9149C68.3704 84.1261 67.5386 85.3053 66.6382 86.4525C67.2689 85.1362 67.9728 83.861 68.6904 82.5995C69.408 81.338 70.1667 80.0948 70.9254 78.8608C71.6841 77.6267 72.4839 76.4109 73.3067 75.2043C73.9557 74.2445 74.6275 73.2892 75.3314 72.3614C75.496 72.1466 75.6605 71.9318 75.8296 71.7215L75.8662 71.6621Z" fill="black"/>
<path d="M99.8346 72.2835C98.3811 72.1372 96.9414 71.9178 95.5108 71.6756C94.0802 71.4334 92.6542 71.15 91.2282 70.8666C89.8021 70.5832 88.3898 70.245 86.9821 69.8885C85.8349 69.6006 84.6968 69.2943 83.5633 68.9424L82.8366 68.7139C82.8366 68.7139 82.8046 68.7139 82.7817 68.7139H82.8457C83.12 68.7459 83.3851 68.7733 83.6547 68.8099C84.8111 68.9424 85.94 69.1206 87.1055 69.3126C88.5407 69.5549 89.9621 69.8382 91.3836 70.1307C92.805 70.4233 94.2219 70.7524 95.6296 71.1089C97.0374 71.4654 98.4451 71.8264 99.8346 72.2835Z" fill="black"/>
</g>
<path d="M168.91 103.752H0V150.143H168.91V103.752Z" fill="#5E17EB"/>
<path d="M168.91 150.143H0L1.82823 152.392H167.082L168.91 150.143Z" fill="#5E17EB"/>
<path opacity="0.1" d="M168.91 150.143H0L1.82823 152.392H167.082L168.91 150.143Z" fill="black"/>
<path d="M17.5651 130.91C17.7433 130.696 17.9989 130.561 18.2763 130.534C18.5537 130.508 18.8304 130.592 19.046 130.769C19.9601 131.495 21.4775 132.35 22.9172 132.327C23.82 132.346 24.7064 132.084 25.4539 131.578C25.7057 131.423 25.9163 131.209 26.0675 130.956C26.2188 130.702 26.3062 130.415 26.3223 130.12C26.3283 129.89 26.2646 129.664 26.1395 129.471C25.9881 129.223 25.7797 129.014 25.5316 128.863C24.6732 128.377 23.7328 128.053 22.7573 127.908H22.7161C21.8149 127.755 20.9365 127.489 20.1018 127.117C19.3342 126.781 18.6791 126.232 18.2141 125.535C17.9085 125.035 17.7501 124.458 17.7571 123.872C17.7772 123.286 17.9346 122.714 18.2164 122.2C18.4982 121.686 18.8966 121.246 19.3796 120.915C20.407 120.198 21.6331 119.823 22.8852 119.84C24.8323 119.84 26.272 120.791 27.305 121.463C27.5325 121.617 27.69 121.855 27.743 122.125C27.7961 122.394 27.7405 122.674 27.5884 122.903C27.5152 123.019 27.4194 123.119 27.3067 123.197C27.194 123.276 27.0667 123.33 26.9324 123.359C26.7981 123.387 26.6595 123.388 26.5249 123.361C26.3902 123.335 26.2623 123.281 26.1486 123.204C25.1157 122.514 24.1239 121.906 22.8852 121.906C22.0696 121.888 21.2693 122.13 20.6 122.596C20.3781 122.731 20.1921 122.918 20.0576 123.14C19.9231 123.362 19.8442 123.613 19.8275 123.872C19.8164 124.072 19.8658 124.271 19.9692 124.443C20.116 124.652 20.3024 124.831 20.5177 124.969C21.2957 125.428 22.1558 125.73 23.0498 125.86H23.0909C24.0542 126.029 24.9935 126.315 25.8881 126.71C26.71 127.07 27.4135 127.654 27.9175 128.397C28.2348 128.915 28.4025 129.512 28.4019 130.12C28.383 130.744 28.2151 131.355 27.9122 131.901C27.6093 132.447 27.1801 132.913 26.6605 133.26C25.5639 134.033 24.2499 134.438 22.9081 134.416C20.7188 134.416 18.8769 133.301 17.7205 132.387C17.5095 132.208 17.3757 131.955 17.3467 131.68C17.3178 131.405 17.396 131.129 17.5651 130.91Z" fill="white"/>
<path d="M35.3215 134.434C34.2057 134.428 33.1373 133.982 32.3483 133.193C31.5593 132.404 31.1134 131.336 31.1074 130.22V125.375C31.1121 125.092 31.2268 124.821 31.4272 124.621C31.6276 124.421 31.8981 124.306 32.1815 124.301C32.4656 124.304 32.7374 124.417 32.9384 124.618C33.1393 124.819 33.2532 125.091 33.2556 125.375V130.22C33.2532 130.492 33.3049 130.762 33.4079 131.014C33.5108 131.265 33.6629 131.494 33.8552 131.686C34.0476 131.879 34.2763 132.031 34.528 132.134C34.7798 132.237 35.0495 132.288 35.3215 132.286C35.597 132.29 35.8706 132.24 36.1268 132.139C36.3829 132.037 36.6166 131.886 36.8144 131.694C37.0122 131.502 37.1702 131.273 37.2795 131.02C37.3888 130.768 37.4472 130.496 37.4514 130.22V125.375C37.4502 125.235 37.4765 125.097 37.5289 124.967C37.5813 124.837 37.6588 124.719 37.7568 124.62C37.8549 124.52 37.9716 124.44 38.1003 124.386C38.2291 124.331 38.3673 124.302 38.5072 124.301C38.7913 124.309 39.0619 124.424 39.2646 124.623C39.4673 124.823 39.5869 125.091 39.5996 125.375V130.22C39.5827 131.344 39.1246 132.415 38.3241 133.204C37.5237 133.992 36.4451 134.434 35.3215 134.434Z" fill="white"/>
<path d="M43.7354 129.388V121.339C43.7534 121.059 43.8776 120.796 44.0826 120.604C44.2876 120.411 44.5581 120.304 44.8391 120.304C45.1202 120.304 45.3907 120.411 45.5957 120.604C45.8007 120.796 45.9249 121.059 45.9429 121.339V125.151C46.7427 124.6 47.6909 124.303 48.6624 124.301C49.4593 124.285 50.2487 124.458 50.9665 124.804C51.6843 125.151 52.3102 125.662 52.7935 126.296C53.2767 126.93 53.6037 127.669 53.7478 128.453C53.8919 129.236 53.8491 130.043 53.6228 130.808C53.3966 131.572 52.9933 132.272 52.4457 132.851C51.8981 133.43 51.2217 133.872 50.4713 134.141C49.7208 134.41 48.9176 134.498 48.1269 134.398C47.3361 134.298 46.58 134.013 45.9201 133.566C45.8607 133.827 45.7076 134.058 45.4897 134.214C45.2719 134.37 45.0043 134.441 44.7376 134.414C44.4709 134.386 44.2236 134.262 44.0423 134.064C43.861 133.867 43.7583 133.61 43.7536 133.342L43.7354 129.388ZM45.9429 129.388C45.9393 130.138 46.2317 130.859 46.7565 131.395C46.9992 131.658 47.2939 131.868 47.622 132.011C47.9501 132.154 48.3044 132.228 48.6624 132.227C49.0199 132.224 49.3732 132.149 49.7008 132.006C50.0285 131.863 50.3236 131.655 50.5684 131.395C51.0898 130.857 51.3802 130.137 51.3774 129.388C51.3876 128.626 51.0969 127.89 50.5684 127.341C50.3236 127.08 50.0285 126.872 49.7008 126.729C49.3732 126.586 49.0199 126.511 48.6624 126.509C48.3044 126.508 47.9501 126.581 47.622 126.724C47.2939 126.868 46.9992 127.077 46.7565 127.341C46.225 127.889 45.9324 128.625 45.9429 129.388Z" fill="white"/>
<path d="M56.6246 131.536C56.7118 131.423 56.8212 131.328 56.9461 131.259C57.0711 131.189 57.2089 131.145 57.3513 131.13C57.4936 131.115 57.6375 131.129 57.7742 131.171C57.911 131.214 58.0376 131.284 58.1466 131.376C58.7721 131.91 59.5559 132.223 60.377 132.268C60.8599 132.263 61.3329 132.13 61.7482 131.884C61.8499 131.815 61.935 131.724 61.9975 131.618C62.0599 131.512 62.0981 131.394 62.1093 131.271C62.115 131.199 62.0938 131.128 62.0498 131.07C62.0498 131.011 61.9493 130.929 61.7847 130.828C61.2845 130.542 60.7361 130.35 60.1668 130.261C59.5597 130.155 58.9675 129.977 58.4025 129.731C57.8365 129.477 57.3523 129.07 57.0039 128.556C56.7747 128.171 56.6561 127.73 56.6611 127.281C56.675 126.843 56.7899 126.413 56.9968 126.027C57.2037 125.64 57.4971 125.306 57.8541 125.051C58.5899 124.552 59.4607 124.291 60.3496 124.301C61.4556 124.34 62.5205 124.731 63.389 125.416C63.6246 125.577 63.7896 125.823 63.8499 126.101C63.9103 126.38 63.8615 126.672 63.7135 126.916C63.6341 127.033 63.5322 127.134 63.4137 127.212C63.2952 127.29 63.1624 127.343 63.023 127.37C62.8836 127.396 62.7404 127.395 62.6016 127.365C62.4628 127.336 62.3312 127.279 62.2144 127.199C61.6801 126.771 61.0314 126.51 60.3496 126.449C59.9158 126.439 59.49 126.567 59.1338 126.815C58.8687 126.998 58.8093 127.176 58.8093 127.272C58.8053 127.3 58.8068 127.329 58.8139 127.356C58.8209 127.384 58.8334 127.409 58.8504 127.432C58.904 127.521 58.9817 127.592 59.0744 127.638C59.5325 127.889 60.033 128.053 60.5507 128.122H60.5736C61.2264 128.233 61.8613 128.432 62.4612 128.712C63.051 128.956 63.5529 129.374 63.9009 129.909C64.1469 130.311 64.2795 130.773 64.2849 131.244C64.2746 131.709 64.1536 132.166 63.9318 132.575C63.7101 132.984 63.394 133.335 63.0097 133.598C62.2335 134.13 61.3134 134.412 60.3724 134.407C59.0456 134.361 57.7731 133.868 56.7617 133.008C56.5567 132.826 56.4286 132.572 56.4031 132.299C56.3777 132.026 56.4568 131.754 56.6246 131.536Z" fill="white"/>
<path d="M66.374 129.388C66.3968 128.037 66.9494 126.748 67.9128 125.8C68.8762 124.852 70.1734 124.32 71.5251 124.319C72.6846 124.332 73.8082 124.724 74.7245 125.435C74.9447 125.61 75.0904 125.862 75.1319 126.14C75.1735 126.418 75.1079 126.702 74.9484 126.934C74.8623 127.047 74.7546 127.142 74.6316 127.214C74.5086 127.285 74.3726 127.331 74.2316 127.35C74.0905 127.369 73.9472 127.359 73.8098 127.323C73.6724 127.286 73.5436 127.222 73.431 127.135C72.8738 126.718 72.1979 126.491 71.5022 126.486C71.1105 126.47 70.7196 126.534 70.3531 126.673C69.9866 126.813 69.652 127.024 69.3694 127.296C69.0867 127.568 68.8618 127.894 68.7082 128.254C68.5546 128.615 68.4754 129.003 68.4754 129.395C68.4754 129.787 68.5546 130.175 68.7082 130.536C68.8618 130.897 69.0867 131.223 69.3694 131.494C69.652 131.766 69.9866 131.978 70.3531 132.117C70.7196 132.256 71.1105 132.32 71.5022 132.304C72.1978 132.298 72.8734 132.071 73.431 131.655C73.6638 131.489 73.9519 131.42 74.2348 131.461C74.5178 131.503 74.7735 131.653 74.9484 131.879C75.1058 132.112 75.1701 132.395 75.1287 132.672C75.0872 132.95 74.9429 133.202 74.7245 133.378C73.7951 134.059 72.6771 134.435 71.5251 134.452C70.1728 134.456 68.8735 133.927 67.9092 132.978C66.9449 132.03 66.3933 130.74 66.374 129.388Z" fill="white"/>
<path d="M84.9121 125.375C84.9097 125.659 84.7958 125.931 84.5949 126.132C84.394 126.333 84.1222 126.447 83.838 126.449C83.4009 126.435 82.9721 126.571 82.6223 126.833C82.2497 127.087 81.9375 127.419 81.7082 127.807C81.3462 128.33 81.0657 128.904 80.8763 129.512V133.36C80.8691 133.65 80.748 133.925 80.5393 134.126C80.3305 134.327 80.0509 134.438 79.7611 134.434C79.477 134.432 79.2052 134.318 79.0042 134.117C78.8033 133.916 78.6894 133.644 78.687 133.36V125.375C78.6882 125.235 78.7169 125.097 78.7716 124.968C78.8262 124.84 78.9056 124.723 79.0054 124.625C79.1051 124.527 79.2232 124.449 79.3529 124.397C79.4825 124.345 79.6212 124.318 79.7611 124.319C80.0488 124.312 80.3278 124.419 80.5368 124.617C80.7459 124.815 80.8679 125.088 80.8763 125.375V125.517C81.003 125.366 81.1455 125.23 81.3014 125.11C82.0519 124.591 82.9438 124.315 83.8563 124.319C83.9951 124.319 84.1327 124.346 84.2611 124.399C84.3895 124.451 84.5061 124.529 84.6042 124.627C84.7024 124.726 84.7802 124.842 84.833 124.97C84.8858 125.099 84.9127 125.236 84.9121 125.375Z" fill="white"/>
<path d="M89.7664 121.765C89.7695 121.91 89.7435 122.054 89.69 122.19C89.6364 122.325 89.5564 122.448 89.4547 122.552C89.3529 122.656 89.2315 122.738 89.0975 122.795C88.9634 122.851 88.8195 122.88 88.6741 122.88C88.3811 122.876 88.1014 122.757 87.896 122.548C87.6905 122.339 87.5759 122.058 87.5771 121.765V121.34C87.5765 121.195 87.6045 121.052 87.6594 120.919C87.7143 120.786 87.7951 120.665 87.8971 120.563C87.9991 120.461 88.1202 120.38 88.2536 120.325C88.3869 120.27 88.5299 120.242 88.6741 120.243C88.8186 120.24 88.9621 120.267 89.0961 120.321C89.2301 120.375 89.3517 120.456 89.4537 120.559C89.5557 120.661 89.636 120.783 89.6897 120.917C89.7434 121.051 89.7695 121.195 89.7664 121.34V121.765ZM89.7664 125.421V133.328C89.7689 133.472 89.7424 133.615 89.6883 133.749C89.6343 133.883 89.5539 134.004 89.452 134.106C89.3501 134.208 89.2287 134.288 89.095 134.342C88.9614 134.396 88.8182 134.423 88.6741 134.421C88.5302 134.421 88.3877 134.393 88.2546 134.339C88.1216 134.284 88.0006 134.204 87.8987 134.102C87.7968 134.001 87.7159 133.88 87.6607 133.747C87.6055 133.614 87.5771 133.472 87.5771 133.328V125.421C87.5728 125.275 87.5981 125.13 87.6515 124.993C87.7048 124.857 87.7852 124.734 87.8876 124.629C87.9901 124.525 88.1126 124.443 88.2478 124.387C88.3829 124.332 88.528 124.304 88.6741 124.306C88.8216 124.302 88.9682 124.33 89.1047 124.386C89.2412 124.442 89.3646 124.525 89.4672 124.631C89.5698 124.737 89.6493 124.864 89.7008 125.002C89.7523 125.14 89.7747 125.287 89.7664 125.435V125.421Z" fill="white"/>
<path d="M93.2534 129.388V121.339C93.2534 121.046 93.37 120.765 93.5774 120.557C93.7848 120.35 94.0662 120.233 94.3595 120.233C94.6529 120.233 94.9342 120.35 95.1416 120.557C95.349 120.765 95.4656 121.046 95.4656 121.339V125.151C96.2623 124.61 97.2034 124.32 98.1668 124.319C99.4842 124.359 100.734 124.91 101.652 125.856C102.57 126.802 103.083 128.068 103.083 129.386C103.083 130.704 102.57 131.97 101.652 132.916C100.734 133.862 99.4842 134.413 98.1668 134.452C97.1868 134.441 96.2322 134.139 95.4244 133.584C95.3693 133.85 95.2174 134.086 94.9982 134.247C94.779 134.407 94.508 134.48 94.2378 134.452C93.9676 134.425 93.7173 134.297 93.5355 134.096C93.3536 133.894 93.2531 133.632 93.2534 133.36V129.388ZM95.4656 129.388C95.4603 130.138 95.751 130.859 96.2746 131.395C96.5164 131.655 96.809 131.864 97.1345 132.007C97.4599 132.15 97.8113 132.225 98.1668 132.227C98.5244 132.225 98.8778 132.15 99.2055 132.007C99.5332 131.864 99.8283 131.656 100.073 131.395C100.596 130.859 100.887 130.138 100.882 129.388C100.894 128.626 100.603 127.889 100.073 127.341C99.8283 127.08 99.5332 126.871 99.2055 126.728C98.8778 126.585 98.5244 126.511 98.1668 126.509C97.809 126.509 97.455 126.583 97.1271 126.726C96.7991 126.869 96.5042 127.078 96.2609 127.341C95.7356 127.891 95.4497 128.627 95.4656 129.388Z" fill="white"/>
<path d="M105.937 129.37C105.931 128.049 106.444 126.779 107.367 125.834C108.29 124.889 109.548 124.345 110.868 124.32C112.136 124.308 113.358 124.795 114.272 125.674C115.185 126.553 115.717 127.755 115.754 129.023V129.123C115.763 129.184 115.763 129.246 115.754 129.306C115.714 129.55 115.582 129.769 115.386 129.919C115.19 130.069 114.944 130.139 114.699 130.115H108.222C108.318 130.619 108.557 131.084 108.912 131.454C109.433 131.976 110.12 132.3 110.855 132.368C111.596 132.44 112.339 132.261 112.966 131.861C113.168 131.666 113.433 131.552 113.713 131.541C113.993 131.529 114.267 131.62 114.484 131.797C114.573 131.882 114.644 131.985 114.692 132.098C114.741 132.212 114.766 132.334 114.766 132.458C114.766 132.581 114.741 132.703 114.692 132.817C114.644 132.93 114.573 133.033 114.484 133.118C113.495 134.019 112.192 134.498 110.855 134.453C109.531 134.424 108.272 133.874 107.351 132.922C106.43 131.971 105.922 130.694 105.937 129.37ZM108.144 128.374H113.885C113.684 127.565 112.646 126.367 110.882 126.226C110.25 126.226 109.636 126.438 109.137 126.827C108.639 127.216 108.284 127.76 108.131 128.374H108.144Z" fill="white"/>
<path d="M118.977 129.548V121.358C118.979 121.063 119.098 120.781 119.306 120.572C119.515 120.363 119.797 120.245 120.092 120.243C120.385 120.246 120.665 120.366 120.87 120.574C121.076 120.783 121.19 121.065 121.189 121.358V129.548C121.192 129.694 121.165 129.839 121.111 129.974C121.057 130.109 120.977 130.232 120.874 130.336C120.772 130.44 120.651 130.522 120.516 130.578C120.382 130.635 120.238 130.664 120.092 130.664C119.946 130.664 119.8 130.636 119.665 130.58C119.529 130.524 119.406 130.442 119.302 130.338C119.199 130.235 119.117 130.111 119.061 129.976C119.005 129.84 118.976 129.695 118.977 129.548ZM120.106 134.434C119.96 134.435 119.815 134.407 119.68 134.351C119.544 134.296 119.421 134.214 119.318 134.111C119.214 134.007 119.132 133.885 119.076 133.75C119.02 133.615 118.991 133.47 118.991 133.324V132.917C118.993 132.622 119.111 132.34 119.32 132.131C119.529 131.922 119.811 131.804 120.106 131.802C120.399 131.805 120.679 131.925 120.884 132.133C121.09 132.342 121.204 132.624 121.203 132.917V133.324C121.205 133.469 121.179 133.613 121.125 133.748C121.071 133.883 120.99 134.006 120.888 134.11C120.786 134.213 120.664 134.295 120.53 134.351C120.395 134.407 120.251 134.435 120.106 134.434Z" fill="white"/>
<path d="M145.934 135.6C145.934 136.015 145.811 136.422 145.58 136.768C145.349 137.113 145.02 137.383 144.636 137.542C144.252 137.701 143.829 137.743 143.421 137.662C143.013 137.581 142.639 137.38 142.345 137.086C142.051 136.792 141.851 136.418 141.769 136.01C141.688 135.602 141.73 135.179 141.889 134.795C142.048 134.411 142.318 134.083 142.663 133.852C143.009 133.62 143.416 133.497 143.831 133.497C144.108 133.497 144.381 133.552 144.636 133.657C144.891 133.763 145.123 133.918 145.318 134.113C145.513 134.308 145.668 134.54 145.774 134.795C145.88 135.05 145.934 135.324 145.934 135.6Z" fill="white"/>
<path d="M153.014 134.9H134.658L134.896 133.607C135.055 132.807 135.473 132.081 136.084 131.541L137.053 130.673L139.48 121.321C139.846 119.493 141.61 118.181 143.671 118.181H143.991C146.053 118.181 147.826 119.502 148.183 121.321L150.614 130.673L151.578 131.541C152.196 132.076 152.615 132.804 152.767 133.607L153.014 134.9Z" fill="white"/>
<path d="M143.671 120.174C143.277 120.174 142.892 120.057 142.564 119.838C142.237 119.619 141.981 119.308 141.83 118.944C141.68 118.58 141.64 118.179 141.717 117.793C141.794 117.406 141.984 117.051 142.262 116.772C142.541 116.494 142.896 116.304 143.283 116.227C143.669 116.15 144.07 116.189 144.434 116.34C144.798 116.491 145.109 116.747 145.328 117.074C145.547 117.402 145.664 117.787 145.664 118.181C145.664 118.443 145.613 118.702 145.513 118.944C145.412 119.186 145.266 119.405 145.081 119.59C144.896 119.776 144.676 119.922 144.434 120.022C144.192 120.123 143.933 120.174 143.671 120.174ZM143.671 117.391C143.515 117.391 143.362 117.437 143.232 117.524C143.102 117.611 143.001 117.734 142.941 117.879C142.881 118.023 142.865 118.182 142.896 118.336C142.926 118.489 143.002 118.63 143.112 118.74C143.223 118.851 143.364 118.926 143.517 118.957C143.671 118.987 143.83 118.972 143.974 118.912C144.119 118.852 144.242 118.751 144.329 118.621C144.416 118.491 144.462 118.338 144.462 118.181C144.462 117.972 144.379 117.771 144.231 117.622C144.082 117.474 143.881 117.391 143.671 117.391Z" fill="white"/>
<path d="M79.3312 157.287V143.351C79.3312 139.572 84.0572 139.832 84.0572 143.351V154.892H84.176V149.988C84.176 146.789 88.4358 146.789 88.4358 149.988V154.892H88.5684V151.035C88.5684 147.917 92.9058 147.771 92.9058 151.3V156.154H93.0384V153.411C93.0384 150.015 97.3941 149.892 97.3941 153.516V166.369C97.3941 168.768 96.2469 171.561 91.2147 171.561H82.1696C79.8523 171.561 78.1383 165.491 76.9774 163.137C75.8165 160.784 73.5038 158.626 71.9863 156.387C70.4689 154.147 72.9461 151.958 75.3411 153.754C76.7706 154.815 78.1056 155.997 79.3312 157.287Z" fill="white"/>
<path d="M91.2009 172H82.1694C80.0852 172 78.6318 168.343 77.4617 165.427C77.1372 164.618 76.831 163.855 76.5704 163.32C75.7642 161.874 74.7967 160.523 73.6864 159.294C72.9688 158.425 72.2193 157.529 71.6068 156.624C70.6927 155.299 71.0492 153.996 71.7805 153.297C72.6032 152.516 74.1023 152.237 75.6152 153.37C76.7583 154.229 77.8439 155.162 78.8649 156.163V143.365C78.8253 142.492 79.1269 141.638 79.7059 140.984C79.9522 140.724 80.2494 140.518 80.5788 140.378C80.9083 140.238 81.263 140.167 81.6209 140.17C83.0195 140.17 84.505 141.29 84.505 143.37V147.899C84.825 147.585 85.2225 147.36 85.6571 147.248C86.0917 147.137 86.5481 147.141 86.9802 147.262C87.4123 147.384 87.8049 147.616 88.1182 147.938C88.4315 148.259 88.6545 148.657 88.7647 149.092C89.006 148.822 89.3019 148.606 89.6328 148.459C89.9637 148.311 90.3221 148.236 90.6844 148.237C91.0265 148.238 91.365 148.307 91.6793 148.443C91.9936 148.578 92.2771 148.775 92.5126 149.024C93.0522 149.627 93.3429 150.413 93.3262 151.222L93.3536 151.195C93.588 150.944 93.8711 150.745 94.1855 150.608C94.4999 150.471 94.839 150.4 95.1818 150.399C96.4479 150.399 97.8145 151.382 97.8145 153.539V166.369C97.8373 168.462 96.9735 172 91.2009 172ZM73.5539 153.53C73.1348 153.522 72.7288 153.676 72.4204 153.96C71.9633 154.38 71.7348 155.171 72.3747 156.113C72.9597 156.981 73.691 157.859 74.3994 158.709C75.5587 159.991 76.5649 161.403 77.3977 162.918C77.6765 163.485 77.9873 164.262 78.3118 165.089C79.2671 167.475 80.7114 171.086 82.174 171.086H91.1963C95.9268 171.086 96.9186 168.513 96.9186 166.351V153.521C96.9186 151.981 96.0548 151.295 95.2001 151.295C94.3454 151.295 93.477 151.958 93.477 153.416V156.615H92.4303V151.286C92.466 150.68 92.2644 150.083 91.8682 149.622C91.7167 149.462 91.5338 149.335 91.3309 149.248C91.1281 149.162 90.9095 149.118 90.689 149.12C89.88 149.12 89.007 149.714 89.007 151.021V155.336H87.974V149.988C87.974 148.653 87.1376 148.055 86.3058 148.055C85.4739 148.055 84.6284 148.658 84.6284 149.988V155.349H83.5954V143.352C83.5954 141.852 82.6036 141.066 81.6255 141.066C81.3915 141.064 81.1595 141.109 80.944 141.201C80.7285 141.292 80.5342 141.427 80.3732 141.596C79.9579 142.082 79.7466 142.709 79.7836 143.347V158.471L78.97 157.593C77.7702 156.318 76.4611 155.149 75.0576 154.101C74.6313 153.754 74.1037 153.553 73.5539 153.53Z" fill="#263238"/>
<path d="M83.4771 138.84C83.4942 138.226 83.6292 137.621 83.8747 137.058C84.0988 136.487 84.4327 135.965 84.8574 135.522C84.8051 136.755 84.3196 137.93 83.4862 138.84H83.4771Z" fill="#263238"/>
<path d="M80.1265 138.84C79.7031 138.396 79.3708 137.872 79.1484 137.3C78.9001 136.738 78.7664 136.132 78.7554 135.518C79.5884 136.43 80.0738 137.606 80.1265 138.84Z" fill="#263238"/>
<path d="M77.7543 141.231C76.5211 141.179 75.3458 140.694 74.436 139.86C75.0502 139.873 75.6558 140.007 76.2186 140.253C76.7884 140.477 77.3098 140.809 77.7543 141.231Z" fill="#263238"/>
<path d="M77.7544 144.558C76.8435 145.393 75.6664 145.879 74.4316 145.929C74.8761 145.504 75.3994 145.171 75.9719 144.947C76.5357 144.704 77.1409 144.572 77.7544 144.558Z" fill="#263238"/>
<path d="M85.8262 144.563C86.4403 144.58 87.0455 144.715 87.6087 144.96C88.1813 145.184 88.7045 145.518 89.149 145.943C87.9149 145.89 86.7388 145.404 85.8262 144.572V144.563Z" fill="#263238"/>
<path d="M85.8262 141.231C86.2716 140.808 86.7947 140.476 87.3665 140.253C87.9285 140.004 88.5346 139.871 89.149 139.86C88.2367 140.693 87.0604 141.178 85.8262 141.231Z" fill="#263238"/>
</svg>
