<svg width="319" height="319" viewBox="0 0 319 319" fill="none" xmlns="http://www.w3.org/2000/svg">
<path d="M290.022 157.867C286.966 183.776 275.138 213.89 251.512 227.728C215.823 248.635 218.834 280.797 149.145 294.756C138.986 296.846 128.63 297.824 118.26 297.672C113.185 297.585 108.122 297.171 103.101 296.434C58.8237 289.99 29.029 259.213 18.1001 222.063C3.71321 173.205 32.436 141.215 51.4739 121.948C70.5118 102.68 84.4585 42.6251 152.833 28.3403C163.265 26.121 173.917 25.1106 184.58 25.3289C208.907 25.9223 235.441 33.91 253.803 50.5873C255.181 51.8633 256.521 53.1393 257.829 54.4728C283.349 80.669 294.195 122.554 290.022 157.867Z" fill="#8758FF"/>
<path opacity="0.7" d="M290.022 157.867C286.966 183.776 275.138 213.89 251.512 227.728C215.823 248.635 218.834 280.797 149.145 294.756C138.986 296.846 128.63 297.824 118.26 297.672C113.185 297.585 108.122 297.171 103.101 296.434C58.8237 289.99 29.029 259.213 18.1001 222.063C3.71321 173.205 32.436 141.215 51.4739 121.948C70.5118 102.68 84.4585 42.6251 152.833 28.3403C163.265 26.121 173.917 25.1106 184.58 25.3289C208.907 25.9223 235.441 33.91 253.803 50.5873C255.181 51.8633 256.521 53.1393 257.829 54.4728C283.349 80.669 294.195 122.554 290.022 157.867Z" fill="white"/>
<path d="M269.88 269.619V197.621" stroke="black" stroke-linecap="round" stroke-linejoin="round"/>
<path d="M264.042 269.619V233.917" stroke="black" stroke-linecap="round" stroke-linejoin="round"/>
<path d="M271.705 209.424C271.705 209.424 265.823 208.754 263.411 204.096C260.999 199.439 260.77 187.425 269.931 174.11C279.093 160.795 283.897 160.655 285.492 171.52C287.087 182.385 286.857 198.163 283.106 204.141C279.355 210.119 271.705 209.424 271.705 209.424Z" fill="white" stroke="black" stroke-linecap="round" stroke-linejoin="round"/>
<path d="M273.791 184.344C274.876 180.644 276.171 177.326 277.676 175.055" stroke="black" stroke-linecap="round" stroke-linejoin="round"/>
<path d="M269.236 208.626C270.043 201.303 271.322 194.041 273.064 186.883" stroke="black" stroke-linecap="round" stroke-linejoin="round"/>
<path d="M275.208 232.794C275.208 232.794 271.431 229.865 271.737 225.654C272.043 221.444 276.892 213.054 288.765 207.733C300.638 202.412 304.026 204.3 300.581 212.454C297.136 220.608 290.373 231.396 285.269 233.948C280.165 236.5 275.208 232.794 275.208 232.794Z" fill="white" stroke="black" stroke-linecap="round" stroke-linejoin="round"/>
<path d="M287.145 216.372C289.441 214.279 291.725 212.544 293.71 211.6" stroke="black" stroke-linecap="round" stroke-linejoin="round"/>
<path d="M285.62 217.813C281.418 222.021 277.492 226.497 273.868 231.211C273.868 231.211 270.824 235.307 269.925 243.442" stroke="black" stroke-linecap="round" stroke-linejoin="round"/>
<path d="M273.064 257.114C273.064 257.114 270.876 255.417 271.054 252.98C271.233 250.543 274.04 245.681 280.924 242.593C287.808 239.505 289.76 240.609 287.764 245.336C285.767 250.064 281.849 256.31 278.902 257.784C275.954 259.258 273.064 257.114 273.064 257.114Z" fill="white" stroke="black" stroke-linecap="round" stroke-linejoin="round"/>
<path d="M279.961 247.627C281.099 246.528 282.388 245.598 283.789 244.864" stroke="black" stroke-linecap="round" stroke-linejoin="round"/>
<path d="M279.08 248.463C276.647 250.898 274.373 253.487 272.273 256.215C272.273 256.215 270.506 258.588 269.982 263.303" stroke="black" stroke-linecap="round" stroke-linejoin="round"/>
<path d="M264.547 223.058C264.547 223.058 268.317 220.13 268.017 215.919C267.717 211.708 262.862 203.318 250.983 197.998C239.103 192.677 235.728 194.565 239.173 202.719C242.619 210.872 249.381 221.661 254.485 224.213C259.589 226.765 264.547 223.058 264.547 223.058Z" fill="white" stroke="black" stroke-linecap="round" stroke-linejoin="round"/>
<path d="M252.609 206.636C250.654 204.744 248.442 203.137 246.038 201.863" stroke="black" stroke-linecap="round" stroke-linejoin="round"/>
<path d="M254.134 208.077C258.334 212.286 262.257 216.761 265.88 221.475C265.88 221.475 268.923 225.571 269.829 233.706" stroke="black" stroke-linecap="round" stroke-linejoin="round"/>
<path d="M262.69 255.576C262.69 255.576 266.518 255.698 268.432 253.395C270.346 251.091 271.494 244.66 266.709 236.807C261.924 228.953 258.868 228.404 256.954 234.146C255.04 239.888 253.924 248.303 255.838 251.819C257.752 255.334 262.69 255.576 262.69 255.576Z" fill="white" stroke="black" stroke-linecap="round" stroke-linejoin="round"/>
<path d="M263.29 249.72C263.347 250.504 263.385 251.289 263.404 252.068" stroke="black" stroke-linecap="round" stroke-linejoin="round"/>
<path d="M260.355 233.77C261.656 238.394 262.582 243.115 263.124 247.888" stroke="black" stroke-linecap="round" stroke-linejoin="round"/>
<path d="M15.8799 209.073H104.185V28.8379" stroke="black" stroke-linecap="round" stroke-linejoin="round"/>
<path d="M197.895 209.073H109.589V28.8379" stroke="black" stroke-linecap="round" stroke-linejoin="round"/>
<path d="M145.63 209.073H233.935V28.8379" stroke="black" stroke-linecap="round" stroke-linejoin="round"/>
<path d="M215.918 71.1562L185.052 105.264" stroke="black" stroke-linecap="round" stroke-linejoin="round"/>
<path d="M198.794 97.5439L190.232 107.005" stroke="black" stroke-linecap="round" stroke-linejoin="round"/>
<path d="M130.765 62.1992L114.094 80.6183" stroke="black" stroke-linecap="round" stroke-linejoin="round"/>
<path d="M135.269 57.714L146.536 45.2666" stroke="black" stroke-linecap="round" stroke-linejoin="round"/>
<path d="M100.581 171.73L89.7666 183.68" stroke="black" stroke-linecap="round" stroke-linejoin="round"/>
<path d="M96.9762 155.8L76.9238 177.958" stroke="black" stroke-linecap="round" stroke-linejoin="round"/>
<path d="M300.373 86.0571C306.926 69.6653 298.95 51.0649 282.558 44.512C266.166 37.9591 247.566 45.935 241.013 62.3268C234.46 78.7187 242.436 97.319 258.827 103.872C275.219 110.425 293.82 102.449 300.373 86.0571Z" stroke="black" stroke-linecap="round" stroke-linejoin="round"/>
<path d="M270.703 102.099C286.112 102.099 298.603 89.6082 298.603 74.1995C298.603 58.7909 286.112 46.2998 270.703 46.2998C255.295 46.2998 242.804 58.7909 242.804 74.1995C242.804 89.6082 255.295 102.099 270.703 102.099Z" stroke="black" stroke-linecap="round" stroke-linejoin="round"/>
<path d="M270.704 76.1072C271.757 76.1072 272.611 75.2532 272.611 74.1996C272.611 73.1461 271.757 72.292 270.704 72.292C269.65 72.292 268.796 73.1461 268.796 74.1996C268.796 75.2532 269.65 76.1072 270.704 76.1072Z" stroke="black" stroke-linecap="round" stroke-linejoin="round"/>
<path d="M270.704 76.1074V85.4796" stroke="black" stroke-linecap="round" stroke-linejoin="round"/>
<path d="M268.796 74.2002H246.045" stroke="black" stroke-linecap="round" stroke-linejoin="round"/>
<path d="M125.539 151.347L115.025 135.027C121.432 124.67 123.604 112.243 121.09 100.327C118.576 88.4109 111.569 77.9207 101.524 71.0345C91.4793 64.1483 79.1684 61.3952 67.1472 63.3467C55.1261 65.2983 44.3184 71.8046 36.968 81.5148C29.6176 91.225 26.2893 103.393 27.6741 115.493C29.0589 127.592 35.0504 138.694 44.4046 146.492C53.7589 154.29 65.7572 158.186 77.9084 157.371C90.0596 156.556 101.43 151.093 109.659 142.115L125.539 151.347Z" fill="black" stroke="black" stroke-linecap="round" stroke-linejoin="round"/>
<path d="M126.541 147.378L116.02 131.058C122.415 120.706 124.578 108.288 122.059 96.3832C119.54 84.4783 112.532 74.0009 102.492 67.1263C92.4513 60.2516 80.1488 57.508 68.1387 59.4649C56.1286 61.4218 45.3335 67.9291 37.9947 77.6355C30.6559 87.3419 27.3372 99.5019 28.7277 111.591C30.1181 123.68 36.1109 134.768 45.4618 142.555C54.8127 150.342 66.8033 154.228 78.9441 153.407C91.0849 152.586 102.443 147.121 110.661 138.147L126.541 147.378Z" fill="white" stroke="black" stroke-linecap="round" stroke-linejoin="round"/>
<path d="M42.5162 112.927V108.505L49.7639 97.3658C50.3126 96.5428 50.8294 95.7389 51.3206 94.9669C51.7932 94.2192 52.1947 93.4289 52.5201 92.6063C52.8325 91.8053 52.9906 90.9524 52.9858 90.0926C53.0395 89.4032 52.8548 88.7163 52.4627 88.1467C52.2907 87.9379 52.0729 87.7717 51.826 87.661C51.5792 87.5503 51.3102 87.4982 51.0399 87.5087C50.753 87.4923 50.4658 87.5335 50.1951 87.6299C49.9245 87.7263 49.6759 87.876 49.464 88.0702C49.0676 88.4842 48.8014 89.0055 48.6984 89.5695C48.5515 90.2593 48.4809 90.9632 48.4879 91.6685V93.1486H42.4397V91.5409C42.4173 89.9095 42.7098 88.2892 43.301 86.7686C43.8402 85.3965 44.7978 84.2291 46.038 83.4319C47.5205 82.5583 49.2252 82.1349 50.9442 82.2133C53.6706 82.2133 55.725 82.9194 57.1073 84.3315C58.4896 85.7436 59.1829 87.7107 59.1872 90.233C59.1987 91.3963 59.0021 92.5522 58.6066 93.6463C58.2077 94.7162 57.692 95.7389 57.069 96.6959C56.431 97.6848 55.7547 98.712 55.0274 99.7902L49.4832 108.084H58.3642V112.927H42.5162Z" fill="black" stroke="black" stroke-linecap="round" stroke-linejoin="round"/>
<path d="M69.9057 112.927V106.132H60.5718V101.526L68.483 82.6025H75.7498V101.487H78.557V106.132H75.7498V112.927H69.9057ZM65.3313 101.443H69.9057V88.8613L65.3313 101.443Z" fill="black" stroke="black" stroke-linecap="round" stroke-linejoin="round"/>
<path d="M80.8853 112.927L90.1745 82.5771H93.473L84.1454 112.927H80.8853Z" fill="black" stroke="black" stroke-linecap="round" stroke-linejoin="round"/>
<path d="M97.5184 112.927L104.115 87.3366H95.8213V82.5771H110.208V86.8836L103.63 112.927H97.5184Z" fill="black" stroke="black" stroke-linecap="round" stroke-linejoin="round"/>
<path d="M48.4115 132.372C47.6675 132.4 46.9309 132.216 46.287 131.843C45.7204 131.486 45.2755 130.965 45.011 130.35C44.7084 129.637 44.5314 128.877 44.4878 128.104L45.7638 127.721C45.8196 128.317 45.9372 128.905 46.1147 129.476C46.2531 129.958 46.5305 130.388 46.9122 130.713C47.3378 131.042 47.8683 131.206 48.4051 131.173C48.9968 131.207 49.5791 131.013 50.032 130.631C50.2433 130.398 50.4041 130.125 50.504 129.827C50.604 129.529 50.6409 129.214 50.6126 128.902C50.6247 128.266 50.447 127.642 50.1022 127.109C49.6929 126.524 49.22 125.987 48.6922 125.507L45.9361 122.853C45.4852 122.428 45.1155 121.924 44.8451 121.367C44.6112 120.839 44.4937 120.266 44.5006 119.689C44.4709 119.227 44.5423 118.763 44.7098 118.331C44.8773 117.9 45.1368 117.509 45.4703 117.188C46.1813 116.587 47.0921 116.275 48.0223 116.314C48.5303 116.309 49.036 116.382 49.5216 116.531C49.9549 116.663 50.3492 116.9 50.67 117.22C51.0052 117.571 51.2599 117.991 51.4165 118.451C51.6129 119.047 51.7371 119.663 51.7865 120.289L50.5105 120.62C50.4741 120.044 50.367 119.474 50.1915 118.923C50.0588 118.494 49.7929 118.119 49.4323 117.851C49.0092 117.581 48.511 117.451 48.0096 117.481C47.437 117.456 46.874 117.634 46.4209 117.985C46.2013 118.18 46.0295 118.423 45.9188 118.696C45.8082 118.968 45.7617 119.262 45.7829 119.555C45.7779 119.955 45.8606 120.351 46.0254 120.716C46.2636 121.15 46.5793 121.537 46.9568 121.858L49.7258 124.474C50.3422 125.041 50.8845 125.684 51.3399 126.388C51.7919 127.108 52.0267 127.943 52.0162 128.793C52.0399 129.481 51.8814 130.164 51.5568 130.771C51.2657 131.291 50.8198 131.708 50.2808 131.964C49.6966 132.24 49.0575 132.379 48.4115 132.372Z" fill="black" stroke="black" stroke-linecap="round" stroke-linejoin="round"/>
<path d="M53.9746 132.181V116.474H59.6528V117.616H55.4675V123.511H58.8808V124.595H55.4675V131.071H59.6975V132.181H53.9746Z" fill="black" stroke="black" stroke-linecap="round" stroke-linejoin="round"/>
<path d="M61.7134 132.181V116.473H65.2607C66.06 116.435 66.8562 116.597 67.5766 116.946C68.1279 117.251 68.5563 117.738 68.7888 118.324C69.0515 119.007 69.1773 119.735 69.1588 120.467C69.163 121.022 69.0965 121.575 68.9611 122.113C68.8554 122.598 68.6368 123.05 68.3231 123.434C67.9779 123.817 67.5116 124.069 67.0024 124.149L69.4077 132.181H67.9722L65.669 124.461H63.1616V132.181H61.7134ZM63.1616 123.377H65.1586C65.6896 123.407 66.2189 123.292 66.6898 123.045C67.0546 122.824 67.3284 122.48 67.4618 122.075C67.6342 121.557 67.7141 121.013 67.6978 120.467C67.7521 119.708 67.5765 118.95 67.1938 118.292C66.8557 117.813 66.1921 117.577 65.1969 117.577H63.1616V123.377Z" fill="black" stroke="black" stroke-linecap="round" stroke-linejoin="round"/>
<path d="M71.6792 132.181V116.474H73.153V132.181H71.6792Z" fill="black" stroke="black" stroke-linecap="round" stroke-linejoin="round"/>
<path d="M78.7164 132.181L75.0352 116.474H76.4515L79.4182 129.514L82.2063 116.506H83.578L80.0307 132.213L78.7164 132.181Z" fill="black" stroke="black" stroke-linecap="round" stroke-linejoin="round"/>
<path d="M85.4917 132.181V116.474H86.9655V132.181H85.4917Z" fill="black" stroke="black" stroke-linecap="round" stroke-linejoin="round"/>
<path d="M93.3775 132.373C92.513 132.435 91.6523 132.21 90.9276 131.735C90.3462 131.291 89.927 130.668 89.7345 129.962C89.5042 129.157 89.3924 128.323 89.4028 127.486V121.221C89.3904 120.358 89.5043 119.499 89.7409 118.669C89.941 117.975 90.3678 117.369 90.9531 116.946C91.6752 116.487 92.5227 116.264 93.3775 116.308C94.1548 116.267 94.9269 116.456 95.5977 116.851C96.1405 117.226 96.5459 117.768 96.7525 118.395C96.9991 119.161 97.1177 119.963 97.1034 120.768V121.719H95.6998V120.813C95.7079 120.219 95.6523 119.627 95.5339 119.045C95.4536 118.597 95.2161 118.192 94.864 117.903C94.4275 117.601 93.9008 117.457 93.3711 117.495C92.8098 117.457 92.2521 117.61 91.7889 117.929C91.4201 118.248 91.1686 118.682 91.0743 119.16C90.9443 119.766 90.8823 120.384 90.8893 121.004V127.697C90.8781 128.342 90.9532 128.985 91.1126 129.611C91.2198 130.081 91.4885 130.498 91.8718 130.791C92.3174 131.072 92.8389 131.208 93.3647 131.18C93.897 131.216 94.425 131.065 94.8577 130.753C95.2099 130.443 95.4462 130.022 95.5276 129.56C95.6446 128.969 95.7002 128.369 95.6934 127.767V126.74H97.0907V127.671C97.1026 128.497 96.993 129.321 96.7653 130.115C96.5871 130.776 96.1916 131.358 95.6424 131.767C94.9707 132.204 94.1776 132.416 93.3775 132.373Z" fill="black" stroke="black" stroke-linecap="round" stroke-linejoin="round"/>
<path d="M99.3877 132.181V116.474H105.072V117.616H100.881V123.511H104.294V124.595H100.881V131.071H105.111V132.181H99.3877Z" fill="black" stroke="black" stroke-linecap="round" stroke-linejoin="round"/>
<path d="M71.5264 266.314H68.3491V267.291H71.5264V266.314Z" fill="white" stroke="black" stroke-linecap="round" stroke-linejoin="round"/>
<path d="M75.9282 266.314H72.751V267.291H75.9282V266.314Z" fill="white" stroke="black" stroke-linecap="round" stroke-linejoin="round"/>
<path d="M80.3306 266.314H77.1533V267.291H80.3306V266.314Z" fill="white" stroke="black" stroke-linecap="round" stroke-linejoin="round"/>
<path d="M84.7393 266.314H81.562V267.291H84.7393V266.314Z" fill="white" stroke="black" stroke-linecap="round" stroke-linejoin="round"/>
<path d="M89.1411 266.314H85.9639V267.291H89.1411V266.314Z" fill="white" stroke="black" stroke-linecap="round" stroke-linejoin="round"/>
<path d="M93.5434 266.314H90.3662V267.291H93.5434V266.314Z" fill="white" stroke="black" stroke-linecap="round" stroke-linejoin="round"/>
<path d="M97.9458 266.314H94.7686V267.291H97.9458V266.314Z" fill="white" stroke="black" stroke-linecap="round" stroke-linejoin="round"/>
<path d="M102.348 266.314H99.1709V267.291H102.348V266.314Z" fill="white" stroke="black" stroke-linecap="round" stroke-linejoin="round"/>
<path d="M106.75 266.314H103.573V267.291H106.75V266.314Z" fill="white" stroke="black" stroke-linecap="round" stroke-linejoin="round"/>
<path d="M111.152 266.314H107.975V267.291H111.152V266.314Z" fill="white" stroke="black" stroke-linecap="round" stroke-linejoin="round"/>
<path d="M115.561 266.314H112.384V267.291H115.561V266.314Z" fill="white" stroke="black" stroke-linecap="round" stroke-linejoin="round"/>
<path d="M119.963 266.314H116.786V267.291H119.963V266.314Z" fill="white" stroke="black" stroke-linecap="round" stroke-linejoin="round"/>
<path d="M124.365 266.314H121.188V267.291H124.365V266.314Z" fill="white" stroke="black" stroke-linecap="round" stroke-linejoin="round"/>
<path d="M128.768 266.314H125.59V267.291H128.768V266.314Z" fill="white" stroke="black" stroke-linecap="round" stroke-linejoin="round"/>
<path d="M133.17 266.314H129.993V267.291H133.17V266.314Z" fill="white" stroke="black" stroke-linecap="round" stroke-linejoin="round"/>
<path d="M137.572 266.314H134.395V267.291H137.572V266.314Z" fill="white" stroke="black" stroke-linecap="round" stroke-linejoin="round"/>
<path d="M145.247 267.086H66.5244V269.855H145.247V267.086Z" fill="white" stroke="black" stroke-linecap="round" stroke-linejoin="round"/>
<path d="M145.241 267.086H115.063V269.855H145.241V267.086Z" fill="white" stroke="black" stroke-linecap="round" stroke-linejoin="round"/>
<path d="M91.0872 242.836H29.1948L16.7666 177.02H78.659L91.0872 242.836Z" fill="black" stroke="white" stroke-linecap="round" stroke-linejoin="round"/>
<path d="M89.205 241.17H29.1628L17.3662 178.685H77.402L89.205 241.17Z" fill="black" stroke="white" stroke-linecap="round" stroke-linejoin="round"/>
<path d="M77.6448 236.194H33.0039L24.2314 189.741H68.8723L77.6448 236.194Z" fill="black" stroke="white" stroke-linecap="round" stroke-linejoin="round"/>
<path d="M24.2311 189.741L17.3662 178.685" stroke="black" stroke-linecap="round" stroke-linejoin="round"/>
<path d="M68.8721 189.741L77.4021 178.685" stroke="white" stroke-linecap="round" stroke-linejoin="round"/>
<path d="M77.6445 236.194L89.2051 241.171" stroke="white" stroke-linecap="round" stroke-linejoin="round"/>
<path d="M33.0038 236.194L29.1631 241.171" stroke="black" stroke-linecap="round" stroke-linejoin="round"/>
<path d="M51.155 222.279H40.9917L47.461 216.512H57.6244L51.155 222.279Z" fill="black" stroke="white" stroke-linecap="round" stroke-linejoin="round"/>
<path d="M84.8731 266.391H47.6904V270.085H84.8731V266.391Z" fill="black" stroke="white" stroke-linecap="round" stroke-linejoin="round"/>
<path d="M63.6279 270.085H53.4646L40.9917 255.915H51.155L63.6279 270.085Z" fill="black" stroke="white" stroke-linecap="round" stroke-linejoin="round"/>
<path d="M51.155 222.516H40.9917V255.768H51.155V222.516Z" fill="black" stroke="white" stroke-linecap="round" stroke-linejoin="round"/>
<path d="M199.956 263.762C201.407 266.397 203.614 268.539 206.291 269.912L199.956 263.762Z" fill="white"/>
<path d="M199.956 263.762C201.407 266.397 203.614 268.539 206.291 269.912" stroke="black" stroke-linecap="round" stroke-linejoin="round"/>
<path d="M8.97021 270.084H300.032" stroke="black" stroke-linecap="round" stroke-linejoin="round"/>
</svg>
