<svg width="151" height="121" viewBox="0 0 151 121" fill="none" xmlns="http://www.w3.org/2000/svg">
<g opacity="0.2">
<path d="M10.23 120.531C7.52381 120.52 4.93204 119.438 3.02219 117.52C1.11233 115.603 0.0400184 113.007 0.0400391 110.301V21.3609C0.11832 19.1159 1.08314 16.9934 2.72318 15.4584C4.36321 13.9233 6.54477 13.1007 8.79004 13.1709H17.15C18.795 13.2036 20.4162 12.7751 21.8301 11.9338C23.244 11.0925 24.394 9.87216 25.15 8.4109L26.94 4.76089C27.6922 3.30733 28.8345 2.09205 30.2387 1.25129C31.6429 0.410537 33.2536 -0.0224416 34.89 0.000895987H74.58C76.0715 -0.0184365 77.5438 0.337815 78.8615 1.03683C80.1791 1.73585 81.2997 2.75515 82.12 4.0009L84.07 7.09089C84.8888 8.33585 86.0076 9.35476 87.3235 10.0538C88.6395 10.7528 90.1101 11.1095 91.6 11.0909H142.2C144.448 11.0181 146.632 11.8411 148.273 13.3789C149.914 14.9166 150.877 17.0432 150.95 19.2909V110.291C150.95 113.004 149.872 115.606 147.954 117.525C146.035 119.443 143.433 120.521 140.72 120.521L10.23 120.531Z" fill="#8758FF"/>
<g opacity="0.3">
<path d="M10.23 120.531C7.52381 120.52 4.93204 119.438 3.02219 117.52C1.11233 115.603 0.0400184 113.007 0.0400391 110.301V21.3609C0.11832 19.1159 1.08314 16.9934 2.72318 15.4584C4.36321 13.9233 6.54477 13.1007 8.79004 13.1709H17.15C18.795 13.2036 20.4162 12.7751 21.8301 11.9338C23.244 11.0925 24.394 9.87216 25.15 8.4109L26.94 4.76089C27.6922 3.30733 28.8345 2.09205 30.2387 1.25129C31.6429 0.410537 33.2536 -0.0224416 34.89 0.000895987H74.58C76.0715 -0.0184365 77.5438 0.337815 78.8615 1.03683C80.1791 1.73585 81.2997 2.75515 82.12 4.0009L84.07 7.09089C84.8888 8.33585 86.0076 9.35476 87.3235 10.0538C88.6395 10.7528 90.1101 11.1095 91.6 11.0909H142.2C144.448 11.0181 146.632 11.8411 148.273 13.3789C149.914 14.9166 150.877 17.0432 150.95 19.2909V110.291C150.95 113.004 149.872 115.606 147.954 117.525C146.035 119.443 143.433 120.521 140.72 120.521L10.23 120.531Z" fill="black"/>
</g>
<path d="M86.52 11.1409L54.32 11.0709L51.45 5.6909C50.4741 3.94435 49.0447 2.49373 47.3128 1.49222C45.5808 0.490701 43.6105 -0.0245408 41.61 0.000898403H10.14C4.54 0.000898403 0 4.2509 0 9.5009V109.741C0 115.741 5.15999 120.531 11.52 120.531H139.34C145.71 120.531 150.86 115.701 150.86 109.741V18.5109C150.86 16.5562 150.084 14.6817 148.701 13.2995C147.319 11.9174 145.445 11.1409 143.49 11.1409H86.52Z" fill="#8758FF"/>
<path d="M102.75 87.1008H88.5002C88.235 87.1008 87.9807 86.9954 87.7931 86.8079C87.6056 86.6203 87.5002 86.366 87.5002 86.1008C87.5002 85.8355 87.6056 85.5812 87.7931 85.3937C87.9807 85.2061 88.235 85.1008 88.5002 85.1008H102.75C106.446 85.108 109.998 83.6714 112.649 81.0972C115.3 78.523 116.841 75.0149 116.943 71.3209C117.045 67.6269 115.699 64.0393 113.194 61.3231C110.688 58.6068 107.22 56.9769 103.53 56.7808C103.317 56.7704 103.112 56.692 102.947 56.557C102.781 56.4221 102.663 56.2376 102.61 56.0308C101.558 51.9655 99.3949 48.273 96.3641 45.3663C93.3332 42.4596 89.5537 40.4531 85.448 39.5712C81.3422 38.6892 77.0721 38.9666 73.115 40.3722C69.1578 41.7779 65.6696 44.2564 63.0402 47.5308C62.9332 47.6655 62.7932 47.7704 62.6338 47.8352C62.4744 47.9 62.3009 47.9226 62.1302 47.9007C61.4139 47.8082 60.6925 47.7615 59.9702 47.7607C55.0948 47.8736 50.457 49.8897 47.0487 53.3777C43.6405 56.8658 41.7323 61.549 41.7323 66.4258C41.7323 71.3025 43.6405 75.9857 47.0487 79.4738C50.457 82.9619 55.0948 84.9779 59.9702 85.0907H71.5202C71.7854 85.0907 72.0398 85.1961 72.2273 85.3836C72.4149 85.5712 72.5202 85.8255 72.5202 86.0907C72.5202 86.356 72.4149 86.6103 72.2273 86.7979C72.0398 86.9854 71.7854 87.0907 71.5202 87.0907H59.9202C54.4356 87.0907 49.1755 84.912 45.2973 81.0337C41.419 77.1555 39.2402 71.8954 39.2402 66.4108C39.2402 60.9261 41.419 55.666 45.2973 51.7878C49.1755 47.9095 54.4356 45.7307 59.9202 45.7307C60.5349 45.731 61.1491 45.7644 61.7602 45.8308C64.6321 42.3984 68.3838 39.8122 72.6134 38.3495C76.8429 36.8867 81.3908 36.6026 85.7695 37.5275C90.1483 38.4523 94.1927 40.5514 97.4695 43.5996C100.746 46.6478 103.132 50.5302 104.37 54.8308C108.524 55.2171 112.368 57.1931 115.1 60.346C117.832 63.499 119.24 67.5853 119.031 71.7519C118.822 75.9185 117.012 79.8434 113.978 82.7071C110.945 85.5708 106.922 87.1521 102.75 87.1207V87.1008Z" fill="white"/>
<path d="M79.71 96.2207C79.4447 96.2207 79.1904 96.1153 79.0029 95.9278C78.8153 95.7403 78.71 95.4859 78.71 95.2207V69.2207C78.71 68.9555 78.8153 68.7011 79.0029 68.5136C79.1904 68.3261 79.4447 68.2207 79.71 68.2207C79.9752 68.2207 80.2295 68.3261 80.4171 68.5136C80.6046 68.7011 80.71 68.9555 80.71 69.2207V95.2207C80.71 95.4859 80.6046 95.7403 80.4171 95.9278C80.2295 96.1153 79.9752 96.2207 79.71 96.2207Z" fill="white"/>
<path d="M87.31 79.5707C87.1531 79.5722 86.998 79.5368 86.8573 79.4673C86.7165 79.3978 86.5942 79.2962 86.5 79.1707L79.88 70.2907C79.8557 70.2615 79.8251 70.2381 79.7904 70.2226C79.7557 70.207 79.718 70.1995 79.68 70.2007C79.6438 70.2016 79.6082 70.2101 79.5755 70.2256C79.5428 70.2411 79.5137 70.2633 79.49 70.2907L72.49 78.9207C72.3216 79.1289 72.0774 79.2616 71.8111 79.2898C71.5448 79.3179 71.2782 79.2391 71.07 79.0707C70.8618 78.9023 70.729 78.658 70.7009 78.3917C70.6728 78.1254 70.7516 77.8588 70.92 77.6507L77.92 69.0207C78.1401 68.7572 78.4154 68.5454 78.7264 68.4002C79.0375 68.255 79.3767 68.1801 79.72 68.1807C80.0617 68.1856 80.3978 68.2683 80.7027 68.4225C81.0077 68.5768 81.2735 68.7984 81.48 69.0707L88.12 77.9607C88.1998 78.0666 88.2578 78.1874 88.2905 78.316C88.3231 78.4446 88.3299 78.5784 88.3104 78.7096C88.2908 78.8409 88.2453 78.9669 88.1766 79.0804C88.1079 79.1939 88.0172 79.2925 87.91 79.3707C87.7369 79.5005 87.5264 79.5707 87.31 79.5707Z" fill="white"/>
</g>
</svg>
