<svg width="37" height="37" viewBox="0 0 37 37" fill="none" xmlns="http://www.w3.org/2000/svg">
<path d="M36.9995 18.4991C36.9995 23.4866 35.0253 28.0139 31.8164 31.3402C28.4514 34.8285 23.7297 36.9981 18.5002 36.9981C13.271 36.9981 8.54721 34.8285 5.1841 31.3393C1.97334 28.013 0 23.4857 0 18.4991C0 8.28205 8.28321 0 18.5 0C28.7173 0 36.9995 8.28205 36.9995 18.4991Z" fill="#8758FF" fill-opacity="0.24"/>
<path d="M24.9733 13.2489L24.9705 13.2517C24.6165 13.6097 24.4778 14.1279 24.6055 14.6147L24.606 14.6164C24.8042 15.3723 24.3567 16.1466 23.6028 16.3522H23.6026C23.1158 16.4848 22.7355 16.8651 22.6029 17.3519C22.3973 18.106 21.6227 18.5535 20.8668 18.3553L20.8652 18.3549C20.3781 18.2272 19.8599 18.3658 19.5019 18.7198L19.4991 18.7226C18.9441 19.2713 18.0507 19.2713 17.4958 18.7226L17.4934 18.72C17.1355 18.366 16.6173 18.2274 16.1304 18.3551L16.1288 18.3556C15.3729 18.5537 14.5985 18.1062 14.3929 17.3524C14.2604 16.8656 13.8801 16.485 13.3932 16.3525C12.6392 16.1468 12.1916 15.3723 12.3898 14.6166L12.3903 14.615C12.518 14.1279 12.3793 13.6099 12.0253 13.2517L12.0225 13.2489C11.4738 12.6939 11.4738 11.8008 12.0225 11.2456L12.0253 11.2428C12.3793 10.8848 12.518 10.3666 12.3903 9.87976L12.3898 9.87814C12.1914 9.1222 12.6392 8.34765 13.393 8.14227H13.3932C13.8801 8.00946 14.2604 7.62916 14.3929 7.14257C14.5985 6.3885 15.3731 5.94098 16.1288 6.13939L16.1304 6.13985C16.6175 6.26755 17.1355 6.12892 17.4937 5.77491L17.4965 5.77212C18.0514 5.22342 18.9446 5.22342 19.4998 5.77212L19.5026 5.77491C19.8606 6.12892 20.3788 6.26755 20.8656 6.13985L20.8672 6.13939C21.6232 5.94121 22.3977 6.38873 22.6031 7.14257C22.7359 7.6294 23.1162 8.00992 23.6028 8.1425C24.3567 8.34812 24.8044 9.12266 24.606 9.8786L24.6055 9.88023C24.4778 10.3671 24.6165 10.8855 24.9705 11.2435L24.9733 11.2463C25.522 11.8008 25.522 12.6939 24.9733 13.2489Z" fill="#555A5E"/>
<path d="M21.3231 21.5106C20.9138 23.3086 19.8054 24.5981 18.5015 24.5981C17.1966 24.5981 16.0862 23.3056 15.6778 21.5058L15.9927 20.2846L16.0872 19.9197H20.9131L21.2722 21.315L21.305 21.4402L21.3231 21.5106Z" fill="#8758FF"/>
<path d="M24.5724 14.6688C26.9753 11.9725 25.3721 18.5638 24.0428 17.7935C21.7059 16.4393 24.5724 14.6688 24.5724 14.6688Z" fill="#F4F4F4"/>
<path d="M31.8162 31.3401C30.5671 32.6334 29.132 33.7452 27.555 34.6337C26.3408 35.3175 25.0406 35.8665 23.6776 36.2642C22.3076 36.6619 20.8748 36.9062 19.3932 36.976C19.0978 36.9922 18.8001 36.9992 18.5 36.9992C17.0091 36.9992 15.56 36.8224 14.1714 36.4898C13.9714 36.441 13.7713 36.3921 13.5736 36.334C11.8617 35.8641 10.2522 35.1547 8.77751 34.2406C7.45869 33.4242 6.25384 32.4496 5.1839 31.3401L5.50255 30.0841C5.98403 28.1978 7.47031 26.7324 9.36597 26.2789L9.57531 26.23L11.8989 25.6741L12.5339 25.5229C12.8014 25.4578 13.0573 25.3671 13.2992 25.2508C13.3922 25.2066 13.4853 25.1554 13.5736 25.1042C13.6783 25.0438 13.7783 24.9786 13.876 24.9089C14.0714 24.7693 14.2551 24.6111 14.4203 24.4367C14.8646 23.9692 15.1925 23.3923 15.36 22.7434L15.6065 21.7851L15.6717 21.5269L15.6763 21.506L15.9926 20.2849L16.0857 19.9197H20.9121L21.2726 21.3153L21.3051 21.4409L21.3237 21.5106L21.3261 21.5269L21.3935 21.7874L21.6401 22.7434C21.8703 23.6319 22.403 24.3925 23.1264 24.9089C23.2985 25.0345 23.4846 25.1461 23.6776 25.2392C23.9265 25.3624 24.1893 25.4578 24.4661 25.5229L25.0523 25.6625L27.6341 26.2789C29.5297 26.7324 31.016 28.1978 31.4975 30.0841L31.8162 31.3401Z" fill="#F4F4F4"/>
<path d="M21.3231 21.5106C20.9138 23.3086 19.8054 24.5981 18.5015 24.5981C17.1966 24.5981 16.0862 23.3056 15.6778 21.5058L15.9927 20.2846L16.0872 19.9197H20.9131L21.2722 21.315L21.305 21.4402L21.3231 21.5106Z" fill="#E9E9E9"/>
<path d="M12.4299 14.6688C10.0269 11.9725 11.6302 18.5638 12.9595 17.7935C15.2964 16.4393 12.4299 14.6688 12.4299 14.6688Z" fill="#F4F4F4"/>
<path d="M24.0916 12.7258C24.0916 12.9304 24.08 13.1305 24.0567 13.3305C24.0474 13.4305 24.0172 13.7166 23.9683 14.119C23.9288 14.44 23.8776 14.8354 23.8125 15.2727L23.8102 15.275C23.7311 15.8216 23.6287 16.4333 23.5078 17.0474C23.5055 17.0544 23.5055 17.0637 23.5031 17.0707C23.2077 18.5663 22.7914 20.0549 22.2471 20.5968C21.6331 21.2109 21.14 21.7691 20.5771 22.1715C20.0142 22.5762 19.3839 22.8274 18.5 22.8274C17.6161 22.8274 16.9858 22.5762 16.4229 22.1715C15.8624 21.7691 15.3669 21.2109 14.7529 20.5968C14.2086 20.0525 13.7922 18.5616 13.4945 17.0683V17.066C13.4922 17.0637 13.4922 17.0614 13.4922 17.059C13.455 16.866 13.4201 16.6729 13.3852 16.4822C13.3712 16.4031 13.3573 16.324 13.3433 16.2449C13.2852 15.91 13.234 15.582 13.1875 15.275C13.02 14.1423 12.9386 13.2886 12.9386 13.2886C12.92 13.1049 12.9107 12.9165 12.9107 12.7258C12.9107 12.6769 12.9107 12.6281 12.913 12.5792C12.9247 12.1396 12.9851 11.7116 13.0945 11.3023C13.0991 11.2837 13.1038 11.2651 13.1084 11.2464C13.7294 8.97631 15.7461 7.28068 18.179 7.14578C18.286 7.1388 18.3907 7.13647 18.5 7.13647C20.0444 7.13647 21.4423 7.76216 22.4541 8.77395C23.3287 9.64619 23.9148 10.8092 24.0567 12.1047C24.08 12.3094 24.0916 12.5164 24.0916 12.7258Z" fill="#F4F4F4"/>
<path d="M24.2537 12.7695C24.2537 12.9802 24.2418 13.1858 24.2179 13.3917C24.2083 13.4945 24.1772 13.7889 24.1269 14.203C24.0862 14.5332 23.8127 15.2722 23.8127 15.2722C23.0707 15.2722 22.7244 14.791 22.7244 14.0487V12.6734C22.7244 11.9226 22.1157 11.3141 21.3651 11.3141H15.6376C14.8868 11.3141 14.2783 11.9228 14.2783 12.6734V14.1525C14.2783 14.8372 13.8724 15.2743 13.1877 15.2743L12.7776 13.3482C12.7585 13.1591 12.7488 12.9653 12.7488 12.769C12.7488 12.7188 12.7488 12.6685 12.7511 12.6183C12.7632 12.1659 12.8253 11.7256 12.9379 11.3043C12.9428 11.2853 12.9474 11.266 12.9523 11.2469C13.5912 8.91092 15.6662 7.16622 18.1699 7.02736C18.2799 7.02015 18.3876 7.01782 18.5002 7.01782C20.0893 7.01782 21.5279 7.66165 22.569 8.70275C23.4689 9.60034 24.072 10.797 24.2181 12.1301C24.2418 12.341 24.2537 12.5541 24.2537 12.7695Z" fill="#555A5E"/>
<path d="M19.3792 17.7523C19.3792 18.1382 18.9861 18.4508 18.5 18.4508C18.0162 18.4508 17.6231 18.1384 17.6231 17.7523C17.6231 17.706 17.6278 17.6597 17.6417 17.6167C17.7185 17.9372 18.0743 18.1796 18.5 18.1796C18.928 18.1796 19.2838 17.9372 19.3606 17.6167C19.3746 17.66 19.3792 17.706 19.3792 17.7523Z" fill="#8758FF" fill-opacity="0.24"/>
<path d="M31.8139 31.3432C30.6346 32.5644 29.2902 33.625 27.8156 34.4856C25.0802 36.0835 21.896 37 18.4978 37C15.0879 37 11.892 36.0766 9.14973 34.467C7.68438 33.6087 6.3516 32.555 5.18164 31.3409L5.5003 30.0872C5.98177 28.1985 7.46806 26.7332 9.36372 26.2796L9.84984 26.1633L11.9013 25.6749L12.4037 25.5539L12.5317 25.5237C12.8154 25.4562 13.0899 25.3562 13.3458 25.2283C14.6343 26.6006 16.4649 27.4589 18.4978 27.4589C20.5307 27.4589 22.3612 26.6006 23.6498 25.2283C23.9056 25.3539 24.1778 25.4562 24.4639 25.5237L24.5662 25.5493L25.0151 25.6562L27.1201 26.1587L27.6318 26.2796C29.5275 26.7332 31.0138 28.1985 31.4929 30.0872L31.8139 31.3432Z" fill="#8758FF"/>
<path d="M15.8397 18.481C14.7183 18.481 13.8061 17.5688 13.8061 16.4474C13.8061 15.3261 14.7183 14.4138 15.8397 14.4138C16.961 14.4138 17.8733 15.3261 17.8733 16.4474C17.8733 17.5688 16.9608 18.481 15.8397 18.481ZM15.8397 14.6466C14.8465 14.6466 14.0387 15.4545 14.0387 16.4476C14.0387 17.4408 14.8467 18.2486 15.8397 18.2486C16.8329 18.2486 17.6407 17.4408 17.6407 16.4476C17.6404 15.4545 16.8326 14.6466 15.8397 14.6466Z" fill="#8758FF"/>
<path d="M21.1627 18.481C20.0413 18.481 19.1291 17.5688 19.1291 16.4474C19.1291 15.3261 20.0413 14.4138 21.1627 14.4138C22.284 14.4138 23.1963 15.3261 23.1963 16.4474C23.1963 17.5688 22.284 18.481 21.1627 18.481ZM21.1627 14.6466C20.1695 14.6466 19.3617 15.4545 19.3617 16.4476C19.3617 17.4408 20.1697 18.2486 21.1627 18.2486C22.1556 18.2486 22.9637 17.4408 22.9637 16.4476C22.9637 15.4545 22.1559 14.6466 21.1627 14.6466Z" fill="#8758FF"/>
<path d="M19.3618 16.4475H19.1292C19.1292 16.1012 18.8476 15.8195 18.5012 15.8195C18.1549 15.8195 17.8732 16.1012 17.8732 16.4475H17.6406C17.6406 15.9728 18.0267 15.5869 18.5012 15.5869C18.9757 15.5869 19.3618 15.973 19.3618 16.4475Z" fill="#8758FF"/>
<path d="M13.5736 25.1042V36.334C11.8617 35.8641 10.2522 35.1547 8.77751 34.2406C7.45869 33.4242 6.25384 32.4496 5.1839 31.3402L5.50255 30.0841C5.98403 28.1978 7.47031 26.7324 9.36597 26.2789L9.57531 26.23L11.8989 25.6741L12.5339 25.5229C12.8014 25.4578 13.0573 25.3671 13.2992 25.2508C13.3922 25.2066 13.4853 25.1554 13.5736 25.1042Z" fill="#7C49FF"/>
<path d="M31.8162 31.3405C30.5672 32.6337 29.1321 33.7455 27.5551 34.6341C26.3409 35.3179 25.0407 35.8668 23.6777 36.2646V25.2395C23.9266 25.3628 24.1894 25.4581 24.4662 25.5233L25.0523 25.6628L27.6341 26.2792C29.5298 26.7328 31.0161 28.1981 31.4976 30.0845L31.8162 31.3405Z" fill="#7C49FF"/>
</svg>
